<mxfile host="app.diagrams.net" agent="Mozilla/5.0 (Windows NT 10.0; Win64; x64) AppleWebKit/537.36 (KHTML, like Gecko) Chrome/135.0.0.0 Safari/537.36" version="26.2.13">
  <diagram name="PÃ¡gina-1" id="sPCDGL92DTbEy7Q_NQLK">
    <mxGraphModel dx="1028" dy="1676" grid="1" gridSize="10" guides="1" tooltips="1" connect="1" arrows="1" fold="1" page="1" pageScale="1" pageWidth="827" pageHeight="1169" math="0" shadow="0">
      <root>
        <mxCell id="0" />
        <mxCell id="1" parent="0" />
        <mxCell id="Ol-fPhwVLLmiDNsKS8r2-1" value="" style="shape=image;verticalLabelPosition=bottom;labelBackgroundColor=default;verticalAlign=top;aspect=fixed;imageAspect=0;image=data:image/png,iVBORw0KGgoAAAANSUhEUgAAAsIAAACaCAYAAACjUC5qAAAAAXNSR0IArs4c6QAAAARnQU1BAACxjwv8YQUAAAAJcEhZcwAADsMAAA7DAcdvqGQAAOb3SURBVHhe7J0JXFRV//8/MzArCgMI4camgiuEErkkqWlSmopmGa4/7envlmll6FOiJqL5mGWGKZlkLplILrmVqIilmJqsIoaJJCiKKLHIAMP3f2YBZnCYOywu1X33GuNu53z3c+7lHkZADPDw8PDw8PDw8PD8yxDq/s/Dw8PDw8PDw8Pzr4KfCPPw8PDw8PDw8Pwr4SfCPDw8PDw8PDw8/0runwiXZCL2m5VYOC8Y7y9di73Jd1CpO6ShMh9J33+GRfPmY+GnO3D+lsFRk1Rc+BYh767EoevmX2MeZfgzNgLvTxmJQf38MeCFVzB18SbE56p0xx8RJaewfu4CbEut0O3gQoms5DTcbmrzVKPClT1hmLv6mG77QVKCU+vnYsG2VN1206C6sgdhc1fjmFlGKsCJ8Ln4cOcl3XYtys5h43tzMHv2bOOfOe9h47ky3cl/f5RZyUhrouCqvHUUn74zBwu2prDsqz9NKUvDeNC59vhRcmo95i7YpttiKLOQnHbbsL4/ZjQ6TgpOIHzuh9h56RGPBRoaG3MPun5z1Eueh4PqCvaEzcXqY7d1OxrGo6+xD4YHoZfBRLjyzhEE+z+JwXM3Iz7jMs7vCsOrfr4Yv+UKS0H1CTewe2pv9JoSjrj0VBxd8x/07jkR27PMKzIVV2Lw5ZpvEV+PyTM3KvwROQa9XlyMWFVHDBw5GsOeaYObO2ejH5Pt26xHGAhlWfj14E9INGtCzorcFyPgO2EbHpzIKuTEbUJ41Fnd9oOkDFm/HsRPibm67aZBlROHTeFROHvXjDWelUVIiA5H5LFruh21UaIw/zZu31Z/8pB+OBKfbzqC3/Oq9uWjUKk79W+O6soXGOE7AduaJLgqkbV9KRasi8An8z/F4SLdbjNpWlkawsPItcePsqxfcfCnRO0GG2y/GOGLCduyHtuJcFPESWVRAqLDI3HsmrkPIx4UTRFzD7h+c9ZLnoeCKgdxm8IRdfaubkf9efQ19sHwoPTSmwir8HtECNZk+SM8/jf8uHMnDvyaiF2TLLFz4Sc4wSYEyl9WIPgbAV7//lcc3bUXx8/+gDetv8f8ZcdQomvloVN2DhErD8Dq/23H4a/DEDzrTcx+fxV2xkZiTEUUlnz+a4OeWDUJilfxVcppfDRAotthCkLRzVso+sfErQKvfpWC0x8N0G0/hoh7460N32Dz5s3ssxHzBzrAwvF5/Hejept9vtmAt3qLdSf/vaGim7jVVMGlSse3W0/D9f/ewqDi3fhq1816TaaaVJYG8U/LNfNQvPoVUk5/pN2gIty8VfRYPw1+9HHSlPw7Y47n0fDPyp0aHpReehNhArn2x8S3Z+BlNwvtLqE9nnmmC8Q3/sSf5WVI2HcIVzuMxPi+NtrDtn0wdWx33Di4C/FN8eSs8iaOfzwRz3o6wkpkAUupPTwGzMCWNBONUwHuFhIsLAzf8hDav4B3PgnF5KebMyUrcfO7qegz7COcqZ4VVyDpk5HoM+UbzVbBrjfR97Vl+GrhEHjYSiBRuKHv6xE4W6A5rKEyNxYrgvzQ1lrMZHNAx8Fz8G1aqfZg/k5M7xuE+QtGoZOdFex83sOx67vwZu9BWBSn7rQAu97si3Ert2L56CfhJBdBYueJgHl7kaWqRM6WqZjw5UUoMyIxrs9EbMxUqTtE7Iog+LW1hthSCoeOgzHn2zToetTKPG4lti4fjSed5BBJ7OAZMA97q5/QlyBl8yw852EHqdgG7QbOx+Gbhk9STepUwOTvOw4rty7H6CedIBdJYOcZgHl7s9htk46KLBxY8ir8XBSQiGRw6PISPtinPq7WtzcGLYrTntcQ3zJKUjZj1nMesJOKYdNuIOYfvskitQaT8jcFxvxawuLp+MeY+KwnHK1EsGC+sfcYgBlb0qDRhtNuBTj9+UT06eAAKzHTy9kXo0NjcEOT39o4eW3ZV1g4xAO2EgkUbn3xesRZdqSKMlzZG4JAn1ZoJrKEzLETAuZswwXd3Wj+zunoGzQfC0Z1gp2VHZ6c/l9MnfAlLiozEDmuDyZuzGRnVSI3dgWC/NrCWmwJqUNHDJ7zLcwxXcX5rfg20RkvjJ2DoMEWOBy5Depw1WI61ypzthiRhWl0ZS9CAn3QqpkIljJHdAqYg21VCunsuTxyEUZ0acFi2Qptek1jfk7Blml94dJcDLGtB4YsjcOdqhpZdgV7QwLh06oZRJYyOHYKwJxtF1hG1JFrdZ6vpbZNfd4z/utp7pzksnsFsg4swat+LlBIRJA5dMFLH+xjNUJ7lCveC05/jol9OsDBitnExhm+o0MRow0sjWy9By1ijeRgy9QJ+PKiEhmR49Bn4kbmP46YroOKrANY8qofXBQSiGQO6PLSB9hXJSyHTU3ZylicGPeB6VwwhEvHfOyc3hdB8xdgVCc7WNn54L1jRhti5ew4Pp74LDwdrSCyYH6098CAGVtgvJw1LOY46zdnTTVVZ8yAq/2C0/h8Yh90cLCCmMnn7DsaoTE3mLZ1Yzp+dWPk8kgsGtEFLVjNt2rTC9PYmJeyZRr6ujRn/djCY8hSxGkSnbtWGo0ZjnHVtF5cMdQAm5ekYPOs5+BhJ2U52w4D5x+G4TBdv1pttMYaG8fYpNK0fx/wOFbPmtvU45gB6r8jXCeqq/TVMAeS9Qyj1IpC2hJoRfJhX9Nd3WE193ZPIAfpQAq/rtLtqZt7+yaTk7g7LUws1+0xJG9HEDlJO9CYzw7RmeRkit/7Pwp0FZEicDPd1p1zP39RzCxPkohakHfgW7T86wP027UiMpRGRdc+608y1+l0pFS3i5T089seJOuzQrOVFxFAErGUWjw5hb44fJKOb5tP/Z1E5Px/u7V9lyfTCn8F2fZ4g9YeiKfzJ7+npcPdSN5+Kh24w3q4sZYGioUk936DNp84QVE74ujmzQgKkDrSxD331D1QRICUpM3c6Ln5myn2TDztDQ2gVqKWNGlPIRUm7abQQFcStR1OCyN2U8Kdckpe4U8K2x70xtoDFH/+JH2/dDi5ydvTVHWH6haZzFJpM3J7bj5tjj3D7BVKAa1E1HLSHs3xoqNvkYekBT3zzjcUeyqWtgT3IydLAYl0OnPpxDpg8kupmdtzNH9zLJ2J30uhAa1I1HISMZEZSjq/xI+a2fjQ6+sO05mzRylicjeyUgym8D9yNfo6TtTK0iDfFh2ltzwk1OKZd+ib2FMUuyWY+jlZkkDUh1ZkVHDLr7pGn/WXkev0I9r2TKKk47PakdjjbfpZqdvFMO7XHRTkJKUOYz6jQ2eSKZnZ5X9q3ykCabNaGQ67lf/6X+pm1ZEmRhyl8ym/0aGPA8lZ3IZeP1CkvpjZTUJiaQt6csoXdPjkcdo2vz85iZzp/3ZrLVV8Ipi6yW3Y8TW0/2Q8xWycQ30cxOQ6eTfdVKnoxtqBJBbKyfuNzXTiRBTtOBRLu0MDyVXUloYvjKDdCXeY6VaQv8KWeryxlg7En6eT3y+l4W5yaj/1AGmjqy5K6fhb7Un6ZAidZ2lcuG8KtZY8SSHqDQ0cuVaYdJ8sTCEK7iYnG5Z7a/afpPiYjTSnjwOJXSfT7pssk9X2lIhI5jKYFkWfpPNxa2m0i4is7Z3pqf+sp5hf4yn6vd6kkPai5RdZXFAxnQjuRnKbJ2nKmv10Mj6GNs7pQw5iV5q8+yYV3Jdrps9Xsf/us2ncTa1qteDKSS67K88vIb9mNuTz+jo6fOYsHY2YzGJFQYPD/+CO9/Jf6b/drKjjxAg6ej6Ffjv0MQU6i6nN6wdIE1lq2Rwnsp8KKWl3qCb/2g5fSBG7E+hOHkdMG0N5npb4NSMbn9dp3eEzdPZoBE1m/SsGh9MfFVw25bDVfXFy26gPTOeCugR8Rv1lrjRdHYxcOqpu0NqBYhLKvemNzSfoRNQOilM3ch95tCPIiaQdxtBnh85QcjKr5f9Ty6qgwDqMdX9957YPV/3mqqmm64wRatVL0+2X06//ZbW+40SKOHqeUn47RB8HOpO4zetUV/Oc8aurfSKZCw1eFE0nz8fR2tEuJLK2J+en/kPrY36l+Oj3qLdCSr2WX6w+v+5aaSxvczjGVQ69OGKo3jZnmXn0LQ+StHiG3vkmlk7FbqHgfk5kKRBRnxUZmjPqXauN1Fhj49jF7Rxj8gMdxxpQc5t0HDOk7omw6iYdmfc0KeRdaU4Ma1JTJKRkNzaa1NO6KkqPTCcXaU9alq4egExjeiKsotzT22h15HFNAdOipLjZHUj6VChdMNW88grtDx1Hz7jbsAACCYQycvJ6kWaE/0w3NNeZORGWPE1hqVUdqShnw1BSWL9EX+WqqDRmmlZPzUCrI28LjbKzpmGRzHHqQJNIaWB4NrtShyaQ9CfCLDD8V9GVqhOUsTSrnZSeCr3ANsopaVEPknl9QL+pzVMaQ9NcpNRz2UWq6TGPtoyyI+thkaQehjUyi/1pVU2DFMsmc2p7qQe76HHsJsb/Y1LPGTWosmn9C9Yk1unMpZNGfomY/FddqdZJGTuL2kmfolC1QzTyS8jr/bOsZx1FRyh07BT6/HQ207dqItww3xZGjyMHmT99XKMAZa9/gazF2okwp/xNNRGu5VdV7mnatjqSjusNksq42dShyi4cdrsXHUR2zftS6G93tccrMumn9eG0J0V9d6GNE8nT6ptP9UGGKoc2DFWQ9UtfUa6qkKJesydZr2WUVq02i9WNw1iuDqA1V8s1BUSivjnNrpGvPGkR9ZB50Qfa4KKYaS4k7bmMDE03iuysh5HadHVStI+mtJFRr2Vp2ri8d4zebCcm9xlHWGlTw51rhrIwP0e9RvayXrSsRiGm8kYappDTgDVXSaWzp3pg0J5RSoenOpPIZSod1hUjVc7n9Jy0JU3Zx3YURtFr9noyqmE23DhMQfIBa+iqqlaucZ6vLcq1bWoM0znJZXftuRKv9+lsTULRkdCxNOXz09zxfi+aguyaU9/Q3+iuNrAo86f1FL4nhVUDrWzaiTCjPIkW9ZCR1we/scrD1OWKaSNoYlriRe/XCMvSP5TGTvmcTudx2ZTLVrXjxJgPuHKBDad6E2FOHTVjnISkA8PJpJtVuXR622qKPK6dsGpQxtHsDtpabtxa9Y05rvrNXVNN1xkjGNRLrvbvUXSQHTXvG0q/aYONNf8TrQ/fQ3U1zxm/VWMk069K59LDU8lZ5EJTaxKdPn9OSi2n7GMbXLXSSMxwjqum9eKKoXrbvDCaxjnIyP/jqtrG+sheTy9Ya+sdd83Q7ahF7Rp7/zhmxpj8IMexgobV3CYbx2px/1+NUFOajm1vPIcRnxdh1MY9WPGcAhCKIBIBlZW1nvGz7UoIITTeUj0QwtHvVYz3LUD0smBMnzASA307Y3h4BlTqPkytjRK74sX3N+PE5VzkpBzFtlWz8bztBUS+OQgDg2NRqDuNCws3f/Rrr3stRC1PTz+0L7uIlEtK5CQk43rFRawb6Y2uXbtqP88uwomSe7iUmqF9D1lgCxcXO3ZlXQigcG8Pp6oThAoomgtQUXb/W8yqnAQkX6/AxXUj4V3VX9dnsehECe5dSkWG7hKBwh3taxqEQtEcggp2sCITKWmFaO3ji7bVKjmid88OsNRsqMzUSQH39k7VOgkVCjQXVKCsjFCZn4oL2Tbo7tcF1W/SWg3A+1s2YIaf/nvRDfFtBTJT0lDY2ge+NQrAsXdPdNAoYKb8TUEtvwod/fDqeF8URC9D8PQJGDnQF52HhyNDxXSpUsaE3aT9J2C88zks8G2FNt6DMH7eLhT6jcaQLs10Z1vAzb8fakLRET392qPsYgoulf6B5IvFaNurL9yrjqvt4t8HnVXpSLpQrtkjsHWBi11V77VQ5SAh+ToqLq7DSG+d3djn2UUnUHLvElKrgssId/Zvwd7clmiNk/gmMhKR32bAys0aWVEbsP+O7qR6UYE/ki+iuG0v9K1RiKnsjz6dVUhPugCNRgJrtPNozSyj2YC8mQyWLV3QltUkNUK5HDKBChUq1uIfybhY3Ba9+rrrzmcwG/r36QxVehJ0JqrG3PNN2lSPOnOSy+6XbiD1QjZsuvuhS01CYcD7W7BhRg/ueJf2x4Txzji3wBet2nhj0Ph52FXoh9FDuqAqsurCrJg2oBL5qReQbdMdfjXCsvR/H1s2zED3bDNtWpet6sDABxXm5UIV5ukogK2LC0y6menh9+p4+BZEY1nwdEwYORC+nYcjPEOlGR9NDVVVcMbcPa76zV1TueuMKbjal6L/hPFwPrcAvq3awHvQeMzbVQi/0UNgvHlz67UA1u080Fqns0DeDDLLlnCpSXTIZQKo1ImuwUSt1K2P1I8Z7nHVtF5cMVRfm1dkpiCtsDV8fNtWx4HQsTd6age5RtXq+zAYx7jjR8MDGscu/N4ENbcJbaOzdg2Vt+OwdPSrWHqxM+b/8C0W9HPUGUEOe3srKPPuoJhtSTX7mCNv5+MvoR1a2Fer00AqkRM1GX3Hf4d7nf3h36Mb/CeNwkun3kdwuu4UI1Rc+B6fHqjE4DdfRjeJBA6d+2OM+vPmuxgzzQ/Dv/4KMaH+8FOfXKtCqQNXf5dAKoNM3+YWlsxJbMLH5v5KJTOqdQ8EzZ2ITgaqCtG8YztmyATWgAW7RKDbbwwBLCxq2amu05VKVhis0SNoLiYadghh845op/OcgLVneLSqwQqoWK0QWuq7WACpVFJ9BrdOKeoOmMy63TqqRS5nfbCzLESmdFbTQN9qFTAIUoFUComuO275a814Gkotv1bmRGFy3/H47l5n+Pv3QDf/SRj10im8r6+MKbvZDsanp87jhe1bEb3/Jxzd8B62rl6JEeviEDVZ/f4985NMVl181FhYssaIFSgWFSpW4C1FhqkrYLFqyY5WqrQRrY6LukNRCa3pgjB3YifD+BE2R8eq4KpN5Q3s2nIIBTYtcGn7Z/hdtxvUDM3y92Pjjj8x6v+11u3T/q+K2rmmT5lWIQM/q+2nDt3KSpX2OoH2RtwAAcsn3Y8GlLEJMWvN0ETsXG2D0JmoBjPPN23TGurOSS67E06xkLe0ENXEih7c8W6LwZ+ewvkXtmNr9H78dHQD3tu6GitHrEMcyz/tyg7jmBXTtShXT0ZYXBpN/3rY1LitjGPoA/NyoQrzdFTXaEvTUlTmsDzti/Hf3UNnf3/06OaPSaNewqn3g2GinBnCaR+u+m1GTTVZZ/QmIEbhbt928Kc4df4FbN8ajf0/HcWG97Zi9coRWBfH7Kx3U1sFd/yqEbA8vy/RmU91P96HqVqpxSBmzBhXTek1Sfq96Riqr81ZDqmY9IZulkJaNcg1tFYbw2AcM3NMflDjWJPU3Kazjb6MQMkZLA8cgRW5L+Cr2ANYWD0JViOCl3cn4MJv+K36ReQypPyWDGU7b3g11+1qKJXXELX2O+QNWI0zZ3/E9i9XImTmUDxR/pe6pFUHdW0q83/Gl6wArf+l1qIGoQLe3VwgZNWE3axpJqBUpsS96tpYhhs38gzaVWVdxEW9PwVVlJKCPyzc4dlBgpZuzpAXl8CmVxDGjx+v/YwdDJ92nvBqb+opsPmwcb0ai5ZucJYXo8SmF4Kq+hs/FoN92sHTq73pJxZqLF3QwU2C6xdSkV+tpBLpl66yAFRj0WidhPaucLbOR0a63gKJijRsmDYWC/fd0O1gNMi3lnDp4AbJ9QtIrVEAyvRLuKpRoPHyN4xKXItai+/yBmD1mbP4cfuXWBkyE0OfKMdfTEyWwxxU4vaZ7Vi98wa6T1mMiN2nkJGdhFXPFuHAlv26hQYqZF28iJpQLEJKyh+wcPdEB6kL3JwtcY3FZvXCMEZJUjKbmLaBq1vtQUSHYXCxNuQoLrFBryCd3dhn7GAftPP0Qvs6gkuVtQNbjlZi0LI4nE9IQELV57cYLOhTjmORm3GRDd6cuaYvi9rPzI+W11KQYqgQktlMu42rG6s89cPSheWO5TVmM/2/gV6CJG2DUJtIXwRzzm8SuOzewgGuztbIz0jXW1xTgbQN0zB24UHOeGeBhe2rd+JG9ylYHLEbpzKykbTqWRQd2IL9963WYZML3U8Ni2kh7F2dYZ2fgXS9tivSNmDa2IU4xOK00TY1iBMjsBpnfi40Nm9rqLwWhbXf5WHA6jM4++N2fLkyBDOHPoFyjobqFXMyjvrNWVPNqTMm4Gq/8jbObF+NnTe6Y8riCOw+lYHspFV4tugAtuzXq/3VPKh6baJWGpkHcY6rMKVXDkcM1d/mli4d4Ca5jgup+cyqOpTpuKQd5Bpcqzlzp4HzrRoaN451cm9gzdXXq6G2MYLemRVI+N80hMZbY8CoHvjryEZ88cUX2k/EPlwotYBr4Cvo/dd2LGBF+c/SMuQe/wjzI7PgPeZVPKkJugqkH4zA+p1n9ZK3FlSK/Mw0pKam1nwuXER2ofruQICyW5nIvMsuVt3Gua9mYfEPd1lgKGtWdNZC3HMK/tPzNiKn/R9W/XgJd9lArDZo9s9rMWf1KTiNHIMBciEULi6wzTuGHXsz1fcRyDq0BKsOFhg8paI7+xAWHIVLJSoUp3+HdxfvgSBgPEY8IYRNwDgEOpzFJzPCcCRbyeS7hfhVk/B8vxEIPaF+Rt5YBBBLxKCiu7irzgGbAIwLdMDZT2Yg7Eg2k1iFW/GrMOn5fhgRekLzVN40tniR3eHZHl2OtzYmokBViqs/fIBFO65XB16jdZL3x5gRTohfMx+bUgtZIShE6qZFWPr1ORTaKHQnqWmYb21fZHfbtkex/K2NSCxQofTqD/hg0Q5UfR/Lg/eJcdRPoARlt5CZeZfZUoXb577CrMU/4K46sjhXqwohuLwbS2fOwpIDWewKljV/ZePP22Wwc3aGjSYjCXf2hSE46hJKVMVI/+5dLN4jQMD4EXhCaI+h44ZAHhOGmRFnkM9ipeTy9wheGIXinmPwsud9zxw0CMQSiKkId7XBhYBxgXA4+wlmhB2B1nTxWDXpefQbEQrjplMhfds2nBI9h1eHP2E4aFm4YczY/pD8thmRpys4c81QFsB+6DgMkccgbGYEzmgVwvfBCxFV3BNjXvY0vNM3B/uhGDdEjpiwmYg4k8+qUgkufx+MhVHF6DnmZXha1Mo1zvO1zTYeLrvL0X/MCDjFr8H8TakoZANrYeomLFr6Nc4V2nDGu1BwGbuXzsSsJQeQpQ0sZP95G2V2znDWBlYNAjEkYkLR3buaiVVDYlrefwxGOMVjzfxNSC1kg2dhKjYtWoqvzxXCxn1Yo21aO07up3650Li81UP92wtBGW5lZkJbzs7hq1mLoS1ndTVU35jjqt9cNdWcOmMKjvaFAlzevRQzZy3BAW2w4a/sP3G7zA7OzsZ/9/Bg6rWpWqk7RR+ucZVDL9Mx1ACb276ISaNscXT5W9iYWABV6VX88MEi7Kj+0rGG1GpzcqdhY3INjRzHHBpWcxs/jtWB9lVhhvI0zetiqR6r7v+In6cvctUvLCspLXICdbYWkoVIRJZCObV/+QtKql49V0hfD5OQqMciStK+o22AZrGc0Ej7AgW9FlVIt2Pm09N2liQUW1EzqZjsvMdS2LwAUiiGU6Smf+NU5PxEi4d3JIWlgCzYtc3lIhJKnOipSevo7F+6k5QptG6kO8mEliSVS0nuOpQWTH+GrPQWy0ltn6YX/VuSWCQmkVBCrfvNo/05Vf2qKC8ujIa6W5FQKCapxJIE0jY0MCSG1KJpXkaXtaE3DlWvENK+bG6wWE5GLafsr1lsWJ5AIT4y8glJ0GzeOzabPCQWJGnejd6NU5IqL47ChrqTlVBIYqmELAVSajMwhGJ0tlDLLGs5hfbXNEgJIT4k8wnRbqryKHbxIGojFZJILCKRfU+aGNiV5DqduXTSyC9rSVNqOmAih5CPzIdCEnQv4eefoGVDXElmISa5jNld5kpDPvqF7mj0rVks1zDfMvliF9OgNlISqn0isqeeEwOpq1z3VyO45G+qxXK1/Kq6HUPzn7Zj8S8mq2ZSEtt509iweRSgUNDwyFzt4i5TdivPoK1TvEhhYUHS5tYkY7nk4DeTdmZqViho7Gb79Ivk35LpzPwmlLSmfvP2U00o3qCYhc+Ts4zFu1ROEksptfafTdFX1D7RLjKQtXmD9ENRvahttoeELCTNqdu7cey0PIoLG0ruVkLmEylrQ0DSNgMpJIbJr7vEgPIz9N9uImrx6neUr9tlwO1v6ZUWltR68g/0F0eu3SeLWuaYhfS8s4wEFux85kdpa3+aHX1Fs5Dr/jhU0i/vepKs13L6vWqRxN2NNFRWlWtqE8XQwuedSSZgNpaz3JG2Jv/Z0aQxEeO+XDN5fh02NYI5OWnS7qp8OrFsCLnKLEgsl7E6xOJ3yEf0i2YJNEe8s74ytk4hL4UFi4vmZM3yUeTgRzN3ZmoWpGhqXNViOVaFjs32IImFhJp3e5dir3PEtO4qQ1SUf2IZDXGVsborZ3EsJJnrEPpIKyynDzhtZRAnscZ9YDIX2GH9xXJceatZLCejNm8cIpNuVt2mmPlPk50lq8tWzUgqtiPvsWE0L0BBiuGROl/cT/1ijmGyfptRU03WGSPUWizH1X55xlaa4qUgC5azza1ZrIocyG/mTqqreXWbpuNXXfsMx0jlL++Sp6wXLa9JdNo4VKYbV7hqpfG85RpXTenFGUP1tTlDlRdLiwe1IalQxOYeIrLvOZECu8qr/2pEvWu1mlo19v5xzIz4ecDjWINqbmPHsToQqP9hk9F6obp7BQkp11Dh0BE+ng41C6WagMrCq0hMvIpSRXt4d20FuW6/OShvZSDlUja7q7NB245d4WZb+3cj7C4+/TzS7zRHB5/OeEJvPdftL19A24WtsTPjU3RNT8J1iTu8OztVvwtdjaoAmUkpyCqSoHUXL7Sza1LtUZh5Hol/VqK1Vw+4aW6rVCjITEJKVhEkrbvAq51dve1dmpuGxIxiOHTpDneFkdvSRutUgfzLCUjNUcGxow88HYxf32DfluYiLTEDxQ5d0N1dYfg0Us0D9UkdVBbiamIirpYq0N67K1rVJ1A1VKIoOxXJl+9C6OAB705P6GLtNr58oS0Wtt6JjE+7Ij3pOiTu3ujsdF8koiI/AwkXcgGnjvBqb88ZF5WFmTif+CcqW3vhKTftUxtVQSaSUrJQJGmNLl7t0HSmqzvX1BiThSmEjIQLyIUTOnq1h32jZWFxmZEArYm80N6gQWO5Zur8poXL7hX5l5GQmgOVo5EayxHvlUXZSE2+jLtCB3h4d8IT94eOFhbDmecT8Wdla3j1cIMNGhjTzG+XE1KRo3JERx9PGKZ/42xqNE6MYHYuNDpvq2DxczURiVdLoWjvja5mNdSwmDNVv7lral11xjw4268sQnZqMi7fFcLBwxud6gw2PZqsXptfK++HY1w1pRdnDDXE5qXITUtERrEDunR3h/Fhun612pzcacx8S0tjx7H614cHMY41aCL8T6R6IvzHBrxoTh7x8DwQagrIHxterNegxcPDw/Pvga+Vjy9/L98Yue/4dyIQCGEhFHC+Y87D82BhMSi0gJAFIh+KPDw8PHXB18rHl7+Xb/gnwjw8PDw8PDw8PP9K+CfCPDw8PDw8PDw8/0r4iTAPDw8PDw8PD8+/En4izMPDw8PDw8PD86+Enwjz8PDw8PDw8PD8K/n7TYSVWUhOu42q7115+CiRlZyG249AgMqCNOz7bC4mjRyM/v4DMHTcO1j94x9mfAuMKVS4sicMc1cf023/k9D3VQlOrZ+LBdtSNUf+CRScCMfcD3fqthrLP9tWjzslp9Zj7oJtuq2Hwb/Ux6or2BM2F6uP3dZsmm/3R28v1ZU9CJu7Gsce0OBTdm4j3pszG7NnG//MeW8jzpXpTm4Kin7BF3MXYntaHd9+VnIK6+cuwLbU2sdVuLp3Gd5htjh6s+ltocxKRprOxg8/L/+dmG3nOmOicfy9JsKsiH0xwhcTtmU9ookwmzR+MQK+E7Yh6yELoEyJwCvde2BseAqk3QYhcNTz6Kw6jqUvPYWBi39Gge68+qNCTtwmhEed1W3/U6jtqzJk/XoQPyXmao7+/alEUUI0wiOb4gbmn26rx5+yrF9x8KdE3dbD4F/qY1UO4jaFI+rsXc2m+XZ/9PZS5cRhU3gUzt59QH/oSVmI/Nu3cVv9yUvH4cjPsenI78ir2pdfqPkq3aaisjgJ33/+JWKu1DGpKcvCrwd/QmKuSrdDR+lJrH5vGY7AGz0cm3YKo7ryBUb4TsA23QD/8PPy34nZdq4rJhqL+s+n/W0oT6JFPWTk9cFv2q9efeiUU9KiHiTz+oB+e5gCKM9QSHc5KfxD6XTVV0ZruEcJy/qStbgrzYvX+17geqGkn9/2IFn11y7/U3hEvnpoqOjaZ/1J5jpdt90Y/um24uHRofyZ3vaQ1Xx97d8I5c9vk4es6uvlHzDK4zSrnZg83v6ZjRAPBs3X/koNv8LXHCp+30kfLtxGKSa/B7thlCctoh4yL/qAL4T/Kh7uE+HKmzj+8UQ86+kIK5EFLKX28BgwA1vS1PeZlbj53VT0GfYRzlT/+qUCSZ+MRJ8p37DDOdgydQK+vKhERuQ49Jm4EZnspqDsyl6EBPqgVTMRLGWO6BQwB9sulGgvL9iFN/uOw/LIRRjRpQWkYiu06TUN36alYMu0vnBpLobY1gNDlsbhTtUT3rIr2BsSCJ9WzSCylMGxUwDmbLuAEiZfzpapmPDlRSgzIjGuz0Rs1ApQx/la8ndOR9+g+VgwqhPsrOzg8179n+AV/7gWXya3xqTQd+HXXLdTgxTeby7D8rfHwFuivVevvHkcH098Fp6OVhBZWEJq74EBM7ZAY2INJUjZPAvPedgxe9ig3cD5OHxT7wmDSR+ZR+XN7zC1zzB8VONIVCR9gpF9puCbP5mhdX5ZuXU5Rj/pBLlIAjvPAMzbm4Wq+zxuPUxhzFf52PVmbwxaFFd9Tm7sCgT5tYW1mLXv0BGD53yLtKr3TMyRMTcWK4L80NZazOzkgI6D57DYqueLKhVZOLDkVfi5KCARyeDQ5SV8sK+qjzJc2RuCQJ9WaCayhMyxEwLmbENVeNeGS56KrANY8qofXBQSiGQO6PLSB9iXVW7aVnf34d1+/piz946uFTVF+HHeAPR7e69my2QOMgpOf46JfTrAwYrlm40zfEeHIuZGVcKZQwWyDizBq34uUEhEkDl0wUsf7EOWzhHm1ABTfjQLjjw3B1N2KNj1JnoPWqT5ualkNp1DBQb5YLxOceSIOZhRT4zHZbVzTdhdrUNfjFu5FctHPwknuQgSO08EzNtbHRsoScHmWc/Bw07KbN4OA+cfhn65M7A7o25ZDO3FFQ/qdvuOW4mty0fjSSc5RBI7eAbMw94qwcywS0nKZsx6zgN2UjFs2g3E/MM3of8smCvvmhwOmbU6L0fkohHo0oLZ26oNek1j8ZKyBdP6uqC5WAxbjyFYGqdfSwj5v4RiqKctxGJruD7zOiLOF2oPqfOg9yAsitONI5W5iF0RhF79/w9LQv8P/bwHY863adWvBnLanIPKnC2YOuFLXFRmIHJcH0zcmHlffJiusWbEo04Hv7bWEFtK4dDRUAduOOZJjMbaQUsBTn8+EX06OMCK+c3G2RejQ2NQXbZN6pGPndP7Imj+AozqZAcrOx/MCnsL/fznwHAY+RHzBvTD22ynoZ1N1PvaMdEEdVmDbkL8UMjbEURO0g405rNDdCY5meL3/o8CXUWkCNxMt/WecB2pvtPTf1pZSEm7QzXntx2+kCJ2J9Cd4hMU3E1ONk9OoTX7T1J8zEaa08eBxK6TafdNFeswggIkIpK5DKZF0SfpfNxaGu0iImt7Z3rqP+sp5td4in6vNymkvWj5RfVddjGdCO5Gcpsnacqa/XQyPoY2zulDDmJXmrz7JhUk7abQQFcStR1OCyN2U8Id0+er2H831g4ksVBO3m9sphMnomhH3E2NZuajpPjgziRyGE+7inW76iSPdgQ5kbTDGPrs0BlKTo6nvf8LJFeRggI339acUXT0LfKQtKBn3vmGYk/F0pbgfuRkKSCR7omwaR+Zh+raZ9Rf5krTaxxp+DRD7ReplJq5PUfzN8fSmfi9FBrQikQtJ9GeQvXZ3HpwUXifr/IoIkBKjhP3aI6XJ68gf4Ut9XhjLR2IP08nv19Kw93k1H7qAbqjPoFLxvJkWuGvINseb9DaA/F0/uT3tHS4G8nbT6UDmgbMQUnnl/hRMxsfen3dYTpz9ihFTO5GVorBFP5HBRWfCKZucht6csoa2n8ynmI2zqE+DmJynbybbqpqPRHmkkd5npb4NSMbn9dp3eEzdPZoBE3uZkWKweGUfN6ErVQ36OvhtmTL/J+n7Ynozg56zVFBQzdcZynDkYPlv9J/WT8dJ0bQ0fMp9NuhjynQWUxtXj9ARbrmuFCeX0J+zWzI5/V1dPjMWToaMZm6WSlocPgf3P1zxpo5cOW5GXDYIS8igKSOE7XnNonMXDmknw/G6xRnjpgBZz0xEZd/VHDZXauDtJkbPTd/M8WeYTqGBlArUUuapDFUER19y4MkLZ6hd76JpVOxWyi4nxNZCkTVT4QN7G5SFn17cceDpl1pM3J7bj5tjj3D9A6lgFYiajlJW3847VJ0lN7ykFCLZ96hb2JPUeyWYOrnZEkCka6GcsV9YzHyRJhLZrXO7GaeXAYvouiT5ylu7WhyEVmTvfNT9J/1MfRrfDS911tB0l7LNe1pngiLBWRh60vTv4yhU3HbaH7/J0jk+jrty9c0yPLAkSbuUT8xLqfkFf6ksO1Bb6w9QPHnT9L3S4eTm7w9TdUVXC6bc1KYRLtD1TnSloYvjKDdCXcM44Oz5nPFI7cO3HDNk5rADozyX//LamxHmhhxlM6n/EaHPg4kZ3Ebev2Aulpx6MHGjLUDxSSUe9Mbm0/QiagdFJuykYbb2rLaUz2KsGHkNXJUDKUN11km69nZZL03iIkmqMs6HuJEWEW5p7fR6sjjbBDX7WIOjJvdgaRPhdKFCm4H1341ojDqNbKX9aJlaTW/KlLlbKRhCjkNWHOVVGqjScSaoqc9o5QOT3UmkctUOqz7bYwq53N6Tv3rmX1sR2EUvWYvo17L0nTnM1Q5tHGYguQD1tBVVa1fIXOerx1gJNKBFJ7d0OJ0j/ZNaUmiTu8R59sPqlw6vW01RR7XCwJlHM3uIKWnQi8wGQspepwDyfw/purfrqmyaf0L1iTW2JjLR7pdHJg1EWZ+8V91pVpOZewsaid9ikLVnXDqYQ61f92vP5CVUsw0F5L2XEaa+x8deVtGkZ31MIpU36twyFgaM41cpD1pmWEDNMrOmoZpGjADZSwbbCTk9f7Z6sGGio5Q6Ngp9PnpPIp6zZ5kvZZRTXirKGfjMFLIB9Caq+UGE2EueTSyS7zo/bM1QVR0JJTGTvmcTpeashVR/ndjWMEaRhtvaC1xe+vLZN/iZdrKahpnDt6LpiC75tQ39De6q7m8gjJ/Wk/he1JYNJqDkmJntSOJ1/tUI3oRHQkdS1M+P212Dagz1syBM891+0zBYQeDAbcpZObMIX0fG6tTZuQIJ9z1xGRc5nHZXa2DhMT+q+hKjaFYTml1pMJoGucgI/+Pq+o/uzx7Pb1grR0T1BgMwCZzRM9eZsSDul2J2J9W1QimiWO13ubYpTB6HDnI/OnjmkJN2etfIGuxtoZyxr1uX4O5byLMLbNWZ71XN0oP01RnEblMPcxGMTWsfn3+HElbTtFuqSfCEik987/0Wv5hN2vfsKm1Og+qJj2lMTTNRUo9l12ssTmL4S2j7Mh6WCRpS7Ypm5tH7Vcj9OODu+ZzxKMZOnBj3kS4sXa4Fx1Eds37Uuhvd7WxVJFJP60Ppz0prFpx6aGZCEtIOjCcaqY9+fTdGEdSDNtI2mHkNm192Z5avLyVXamVWWtn0/XeICaaoi7reIivRgjh6PcqxvsWIHpZMKZPGImBvp0xPDwDqspKVNb7/f8K/JF8EcVte6Gvu4VuH+vF0R99OquQnnQB5eodAmu082gN7RkCyJvJYNnSBW1Fmh0QyuWQCVSoULEW/0jGxeK26NXXXXc+Q+gI/z6doUpPwgVNgzWYe77A1gUudg01tQBWchlQVsr96xPWt9+r4+FbEI1lwdMxYeRA+HYejvAMFSqZjVkwIyWtEK19fNG2SmB2Te+eHWCp3WhiH5lAoIB7eyfWoxahQoHmggqUlbFOuPTQXdNgVDlISL6OiovrMNK7K7p21X6eXXQCJfcuITVD92uXOmWsQE5CMq5XXMS6kd7V13d9dhFOlNzDpdQM1LwUUjeV+am4kG2D7n5dINbtg9UAvL9lA2Z0z0byxWK07dUXNeHN/OPfB51V6UgyCEYVhzyXcCP1ArJtusOvS3VPrKv3sWXDDPhJdDvqwPbFIAyxOo6dP+Qy+9/EDzuOQPwC22dvRg5K+2PCeGecW+CLVm28MWj8POwq9MPoIV3QTHe+SSrzkXohGzbd/VAjuhUGvL8FG2Z0N7MGmIg1M6hvXTBKfe3QSJkbkkMGdcrcHDEJVz2pRL6JuOyebY7dBVC4t4dTjaGgaC5ARVkZKjJTkFbYGj6+bauvFzr2Rs8O2mpniGlZ9HPE7LqvcEf7GsGgUDSHoEJtNy67VCAzJQ2FrX3gW1Oo4di7J7Simzn2NSnmjQ0C63bwaK2TSSBHM5klWrq0hXa4FULOxjKBSm9xnIULevZx1fPP03iqXSnSki8Z1FBVTgKSr1fg4rqR8K6qb12fxaITJbh3KRU1JbsumzcWrhpbVfPrjkdzdWgKGmsHaf8JGO98Dgt8W6GN9yCMn7cLhX6jMaRLMzP1EMDWxQU10x5bvBg0BFbHd+KHXBYvN3/AjiNivMD22evO0GCy3vvptrU0SV3WUS3mg6cSOVGT4ev7Cj6MTkC+xB3+kxZj4WhnQyFqVehKlmF1lf4ydUJZinSTOB0CC1iyHZWVKu11AhFEuklvNQJBjeH0KWMTYtaayLBBWGgbhKq2IGaeL7BgMgm0P9cfETp19YAoOxUpt4y8V6nKRPSS+fj0x6uszxxETfaF7ysfIjohHxJ3f0xavBCjnassXAEVm/AL1fJVI4BUKmH/qjHTR2ZxnyNB+ruYn5hZDKg2EacejUUJJUtW6x5BmBscjOCqT8hKREQuwyvtdPYxIaNS2wCC5updHxyClRGRWPZKO8OYrIty5g92poXIWHCwwqkJb8OWBBaW7ApWSGoFI5c8pL7Ts7SA0a64aDYIY4fb4eede5B9fQ92HG+OoUHPw4Yd4s5BWwz+9BTOH1yHd4e6oejUBrz3sh98Rm/EH2a9slauuUm1tBDVxIce5tUAE7FmDvWtC0appx0aK3MDcsiwTpmZIybhriflpuLSLLuz7boMxdpWsZ4My50UUolxS5qURZ961H1Dyaoa5rZLhbZQG8S1QCpFlehmxX2TYt7YIGCD7f3DbS3/GCCCWKTfAtNZvWkwWDCUSlYRrdEjaK5efQtGyMoIRC57BTUluy6bNx7zar6JeDRTB7OoZZ7a86RG28F2MD49dR4H172LoW5FOLXhPbzs54PRG/+Ayiw91HawNOi12aCxGG73M3buycb1PTtwvPlQBD2vHkX0MV3vDWiSuqxFPwIfLJXXELX2O+QNWI0zZ3/E9i9XImTmUDxR/pd6WGf/sZtD5jwqU+JetQJluHEjT3NMi0DPOJZwcXOG5bUUpFSvdGOUJCH5d6CNqxtqJyQXli5ucLa8hpSUO3p9liBJ2yDcWINsDl2NOec3HiEcXgjEs5JT2LIplVnEEGVCJMKWfo59vxMzcRTWfpeHAavP4OyP2/HlyhDMHPoEyv9i0rHAYAKjg5sE1y+kIr9aYCXSL11lAcUww0dmoU5CKoOyxpEou3EDeWY2wKmHmej7ygCLlnBzlqO4xAa9gsZj/HjtZ+xgH7Tz9EJ7zqf3FmjJYk9eXAKbXkHV148fOxg+7Tzh1d7OrMQS2rvC2TofGek3amxbkYYN08Zi4SEpk9ES11JSahZyMkqSkvE72sDVILi45GkBB1dnWOdnIF1vkVpF2gZMG7sQ+65X1m0rDVL0HTsSreJ3Y9PGKPzcYgTG9rdi+7lz0OL2GWxfvRM3uk/B4ojdOJWRjaRVz6LowBbsN2fBnNAers7WyM9Ir1mowaI1bcM0jF14qMlrgDGaIs8rG2uHetLoHGp0jjA464kQ9ibi8pDUpVF2t3TpADfJdVxIza+5XpmOS1c11a4WpmVR50gVjY4HTruwvOrgBsn1C0itKdRM9EvQit70Yx8nTTU21EaVjUu/F+k2GIXJSM60hJuH4cMEi5bM5vJilNj0QlBVfRs/FoN92sHTq73ek8dGUveg0eia31Q6cM+TGkslbp/ZjtU7b6D7lMWI2H0KGdlJWPVsEQ5s2Y9bTzRQD2lfjB3ZCvG7N2Fj1M9oMWIsNMOIPibr/T7dtpamnH81VfiYgXrmLkDZrUxk3mViq27j3FezsPiHu5o7pVImisLFBbZ5x7Bjb6b6eQSyDi3BqoMFNXc6AjEkYkLR3buaiZv90HEYIo9B2MwInMlne0ou4/vghYgq7okxL3vWuiMyA/uhGDdEjpiwmYg4k8/6KMHl74OxMKoYPce8DE8LAcQSMajoLu5qBeA4X9usARXpOBixHjvP5ut2cCNsOw4LZ3dF6tKXMW7lIVwqVLtdieyfP8f/jV2Jix2nI2SSKzOxCJaCMtzKzITWxOfw1azF0JpY/WKFLV6cNAq2R5fjrY2JKFCV4uoPH2DRjuu6QOLykXkIFS5wsc3DsR17kalkl2YdwpJVB1Fg7h0apx7mUMtXBtggYFwgHM5+ghlhR5DNZFTdiseqSc+j34hQnCjWnWYCm4BxCHQ4i09mhOGItgHEr5qE5/uNQKg5DaiR98eYEU6IXzMfm1IL2fykEKmbFmHp1+dQaOOOoeOGQB4ThpkRZ6AN7+8RvDAKxT3H4OVawcUlj7z/GIxwisea+ZuQyuKnsjAVmxYtxdfnCmFja2HCVlrEfmMx2u0kVq78BW1HBaGX7lfFXDkoElzG7qUzMWvJAWSpF5dX/IXsP2+jzM4ZzjbmlB85+o8ZAaf4NZjPbgQL2SSuMHUTFi39GucKbZq+BhijIXleC2Gj7VBPGp1Djc8Rc+qJybh0H9Y4u9u+iEmjbHF0+VvYmFgAVelV/PDBIuzQm9TqYzpH9HzU6Hjgtovti5MwyvYolr+1EYkFKpRe/QEfLNqBKtG5474C6QcjsH7nWb2HHo2hacaG+6C72L/sv9idWYrKogvY8vZi7BO9iPHDWhhOTmwCMC7QAWc/mYGwI9ls9FPhVvwqTHq+H0aEnoCZFZcTgVgCMRXhrpFC2Oia3yQ6mDFPajRCCC7vxtKZs7DkQBbrQV2usvHn7TLYOTuzXGioHmL4jR0Nt5MrsfKXthgV1Av3v5Vnut4b0AR1uRrdu8IPARXdjplPT9tZklBsRc2kYrLzHkth8wJIoRhOkbkqImUKrRvpTjKhJUnlUpK7DqUF058hq6rFcnSPjs32IImFhJp3e5filCq6EbOQnneWkcCCnS9h17X2p9nRVzSL6TQvVsv0/06hkn5515NkvZbT71VvV9/dSENlVasQ1S/wx9DC551JJrBgMkjIUtqa/GdH0xXtu/N079hs8pBYkKR5N3o3TslxvnYRiqzNG3So6sX2wq9pmEREPRYl6XaYiSqHYpYEUmeFiOkqoWZWYrKwaE7tXniffriqU0Z1m2LmP012lkISWzUjqdiOvMeG0bwABSmGR5LaxKTKo9jFg6iNVEgisYhE9j1pYmBXkusWy3H6yCyUlLJuJLnLhMwecmYXVxq6YDo9Y6W3WM7AL0TlCSHkI/OhkARmOHP0MANDX+UYLABT2yEubCi5WwmZrlKSWApI2mYghcTkahcHcMnIzsqLC6Oh7lYkFIpJymJPIG1DA0NizJZPjSr/BC0b4koyCzHJZSISylxpyEe/aFflq25QzMLnyVkmIAtmR4mllFr7z6ZoTXDV+qsRnPKoKP/EMhriKiMLsZxkIiG7dgh99It2tbJJW2mooAthT5NE1IMWJuqSQQNHDrJ/M7ZOIS+FBdOhOVkzHUUOfjRzZ6beQgsOVPl0YtkQcpVZkFguI5FQRq5DPiKt6PWtAbX9aB5cdYEb03bQX5TTJDJz5pDe4i+1DWvXKTVcOcKJOfXEdFyatrtaBxm1nLJftxiLUZ5AIT4y8glJ0Gyq8mJp8aA2JBWKSCwSkX3PiRTYVW78r0aYlEXfXlxyaduVtZxCNS4sp4QQH5L5hLCfzbNLXuxiGtRGSkKRmEQie+o5MZC6yqsWo3HlXSF9PUxCoh6LKMnsGNXDyGI5Lpnv01n5C73rKaNey3+vzvW7G4eSTGdvzWI5eQcaNrE/tZRIScrsLXLyp/8eus56Y6jzoPovBLDz8+IobKg7WQlZTEuZzQVSajMwhGJ0Bde0zc3k3jGa7SEhC0lz6vZu3H3xYbrGmhOPpnUwC455UpPYoTyDtk7xIoUFi+/m1iwXROTgN5N2Zmo9aVIPzWI5GbV54xDplxMNFRco7Gl1XC4k/WHEwM6m6n3tmGh0XdYiUP+jmxM/FCoLryIx8SpKFe3h3bUVm//Xpgy30s8j/U5zdPDpjCdq3zJUFiLzfCL+rGwNrx5u0DxMqchHRsIF5MIJHb3aw75mrUMDqUB+RgIu5AJOHb3Q3qBBdoeSeR6Jf1aitVcPuGkFMHF+E6O8hUvJ6bheYgH7dt3QuXWzWo/1mXxXE5F4tRSK9t7o2up+C6spzU1DYkYxHLp0h7uiVgucPjKPslvpOJ9+B807+KDzfY7kwjw9TGPMV4aoCjKRlJKFIklrdPFqB7v6uk5VgMykFGQVSdC6ixfa1bsBNSx+LicgNUcFx44+8HQwbKMiPwMJ2uCCV3v7moV1xuCSh+XK5YRU5Kgc0dHHEzVdcdvKJBw5WFmUjdTky7grdICHdyc8IdUdqAcV+ZeRkJoDlWNH+Hg6GNqhyWuAMRqf501hB/NpihxqfI6YVU/qjEs1jbV7KXLTEpFR7IAu3d1Rq9zdj0lZ9GmcXGbZpTQXaYkZKHbogu7uilq1nvFQ4r6GphobDKlE0dXzSMgWwf1JL5gOUxUKMpOQklUESesu8GpnZ7oeNoDKwkycT/wTla298JRb7XdYGY2u+U2hA8c8qUlgfslORfLluxA6eMC70xMwLFcP1hcm670Bja/LD30izMPDw8PDw8PDw/M4UM/HPjw8PDw8PDw8PDz/DPiJMA8PDw8PDw8Pz78SfiLMw8PDw8PDw8Pzr4SfCPPw8PDw8PDw8Pwr4SfCPDw8PDw8PDw8/0r4iTAPDw8PDw8PD8+/En4izMPDw8PDw8PD86/kEU+EVbiyJwxzVx/TbJWcWo+5C7ZpflajytqPxeMGw/+ZAZi8IQ11fPvrI6O2vCYpOIHwuR9i5yWVbsdjTMkprJ+7ANtSG2hx1RXsXvoO3lsTi1tmf71nCU6tn4sF21J127UxjJWHgerKHoTNXY1jt5vkO0qN8PB1+vvxONmIK0ZrUfQLvpi7ENvTHrfK1UT87fR7mLFUz1j526BEVnIaGlMSDcdNFbL2L8a4wf54ZsBkbHhkscRiY/dSvPPeGsSaP2g1nEc8H3jwY1slCtL24bO5kzBycH/4DxiKce+sxo9/NPjLuDU8KLkf+UQ4J24TwqPOarbKsn7FwZ8SNT+rC8m+BZOx9GdL9A4cgUHdnB67x9eG8pqmsigB0eGROHbtbzBolGXh14M/ITG3YUlacuITvLciFhY+PeBgttPKkPXrQfyUmKvbro1hrDwMVDlx2BQehbN3H9R3zjx8nf5+PE424orRWiiv4vTBw0i6+Te4+W0Ifzv9HmYs1TNW/hawyeIXI+A7YRuyGjEPMRg3S/ZhweSl+NmyNwJHDEI3p0c0ypecwCfvrUCshQ96mD9oNZhHPR94sGObEikRr6B7j7EIT5Gi26BAjHq+M1THl+KlpwZi8c8FuvPqz4OS+7GaWype/Qoppz/SblQWIienEC1fmIPF78zCa0/bPnYTYQN5/0koXsVXKafx0YCGfG+jCn/essfY9Vuw+Jnmun3moMCrX6Xg9EcDdNs8PI8b9YxR+yB8nXISYc8+kO8/ffT80/VrFP/EekYounkLRY18GKc/blYW5iCnsCVemLMY78x6DU/bPppRXvXnLdiPXY8ti59BfUYtnvspOxuGiXOOoM37h3H24DosfncW3pq3At/+fBgfdklG2LTlOF2mO/kx4SFHXQlSNs/Ccx52kIpt0G7gfBy+WTOzL9j1JnoPWgRUJGLVyy9ixZky5O6aid693sQudhNRmRuLFUF+aGsthqXUAR0Hz8G3aVWP2vOxc3pfBM1fgFGd7GBl54P3jpVwXFOAXW/2xbiVW7F89JNwkosgsfNEwLy9yKp6yFGRhQNLXoWfiwISkQwOXV7CB/uy2HRPT14Nlbh5/GNMfNYTjlYiWFhKYe8xADO2pLH7o8ZTcPpzTOzTAQ5WYohtnOE7OhQxN6oqUiVyY1cgyK8trMWWkDp0xOA536JGzV14s+84LI9chBFdWjDbW6FNr2nMDinYMq0vXJqzNm09MGRpHO6om1Sf33sQFsXVFa3GbF2k078z+k4KxYfjfNDSQH+trV9b9hUWDvGArUQChVtfvB5xlh2pOt4bgxbFaba4YkX9xOXK3hAE+rRCM5ElZI6dEDBnGy6U6A43gJKUzZj1nAfspGLYtBuI+YdvstKvR9kV7A0JhE+rZhBZyuDYKQBztl1gkqoxI5Y4deLwIxc6P6/cuhyjn3SCXCSBnWcA5u3Vxquasit7ERLog1bNRLCUOaJTwBxsM9toHD6svInvpvbBsI/OMO/oqEjCJyP7YMo3f+p2cOnYSBuZYYO6uYt97/aD/5y9uKPbo6box3kY0O9t7L1TK0aZvsc/nohnPR1hJbJg9cUeHgNmYEuaLuPzd2J67wAs+UVtDa76YLx+mYYrp9QiHsfHE5+Fp6MVRBbMXvYeGDBjC6pENFlX6qUfozIXsSuC4NfWGmKmn0PHwZjzbRq0rqlDP5M5xSEfJ1yxpBbZ1PhgAk2cvYZlXy3EEA9bSCQKuPV9HRFnqyxfu541MrcNqEDWgSV41c8FCokIMocueOmDfdV1xnSOm1OnjFGJnC1TMeHLi1BmRGJcn4nYmMku4IiR/J3T0TdoPhaM6gQ7Kzv4vHeMmU47blYkrsLLL67AmbJc7JrZG73e3MWka8Q4Wt9xjlGVH537TkLoh+Pg07Ie+WGSevrbRO7c3fcu+vnPYfVHe6qGoh8xb0A/vK3eyZWnDNNjW1POXYrx49ovkdya2fNdP8ObCqk33ly2HG+P8YZE3fDjJDc9RIqOvkUekhb0zDvfUOypWNoS3I+cLAUk6rNCczwvIoCkjhOJVDfo1PZPaEIXMTkMDKYvvjpIaUXJtMJfQbY93qC1B+Lp/MnvaelwN5K3n0oH7rCL2TVrB4pJKPemNzafoBNROyguJ9H0NZRHEQFSkjZzo+fmb6bYM/G0NzSAWola0qQ9hey4ks4v8aNmNj70+rrDdObsUYqY3I2sFIMp/I+KGnk1Te2gICcpdRjzGR06k0zJ8Xvpf4GuJFIE0ubbTLxrn1F/mStNP1KqPb8+lP9K/+1mRR0nRtDR8yn026GPKdBZTG1eP0BF6sPJK8hfYUs93lhLB+LP08nvl9JwNzm1n3qAtGpGUIBERDKXwbQo+iSdj1tLo11EZG3vTE/9Zz3F/BpP0e/1JoW0Fy2/WKE9X+pIE/fcU199P8ZsfXG7Sf21tpaQWNqCnpzyBR0+eZy2ze9PTiJn+r/d6hO0vnCcuEd9MmesFJ8Ipm5yG9bWGtp/Mp5iNs6hPg5icp28m26qNKfUj6Kj9JaHhFo88w59E3uKYrcEUz8nSxKI+tCKDGYTKqYTwd1IbvMkTVmzn07Gx9DGOX3IQexKk3ffJBVnLHHrxOlHLjR+k1Izt+do/uZYOsN8EBrQikQtJ5FGhOITFNxNTjZPTqE1+09SfMxGmtPHgcSuk2m3WUbj8KHqGn3WX0au049QdZQrf6a3PWTUZ0WGZpNLx0bbiMsGJlHRja+Hk60ti9k83S7W6o7XHEkxdANdVxnGaN6OIHKSdqAxnx2iM8nJFL/3fxToKiJF4GZSR7TqxloaKG1JU/azPOKoD0ZzitMn3Dm1I8iJpB3G0GeHzlByMovJ/wWSq0hBgepOOepKvfSjckpe4U8K2x70xtoDFH/+JH2/dDi5ydvTVHWxNapfoemc4pCPC65YYsHEMT6YQFNTxSRtwWT/4jCdPL6N5vd3IpHz/5HG9LXqWaNzWw/l+SXk18yGfF5fR4fPnKWjEZOpm5WCBof/YUaOc9epuihM2k2h6phtO5wWRuymBCa46Rhh+bR2IImFcvJ+YzOdOBFFO+JuMtNpx03VjVO0/ZMJ1EXsQAODv6CvDqZRKVeemKK+41wj88MUXP42nA+Yzh3Vja9puK0tk6m6KNGdHa+Ro2IobbjORh6OPOUc2xpj89oo4ym4s4gcxu9iI6ZpHie5H+JEuJCixzmQzP9j0swr1Kiyaf0L1iSuPRFWo8qhz5+TkdvMo5pBtTRmGrlIe9IyTQDryNtCo+ysaVjkTV2hlZB0YDhl68YPzmuqBhL/VXSlasxRxtKsdlJ6KvSC7mcJeb1/lk2JdRQdodCxU+jz06UG8qpyT9O21ZF0XG/wUsbNpg7Spyj0QkXjJsL3oinIrjn1Df2N7mqar6DMn9ZT+J4UZtVSipnmQtKey8hQzVFkZz2MtGpqi7Z6MqI9pZQOT3UmkctUOqyb66pyPqfn1IPaPvWgrZ5McE2EDW3NpX+VrSVPh1FqlZzMxxuGKsj6pa8o12CSwRUrhRT1mj3Jei2jtGqdVZSzcRgp5ANozdUaGcylMHocOcj86eOaDil7/QtkLdYlXWEUvWYvo17L0nQ2ZDD5Nw5TkHzAGrqqkd9ELHHqZIYfudD52X/VFSa9FmXsLGqn80Fh1GtkL+tFy2qMxlTYSMMUchqw5mr1NXXD4cNyrokwl45NYCMOG3CS/x2NcVTQsI03tNff3kov27egl7eqByH9GFVR7ulttDryuN6Nl5LiZncg6VOhpO5Kf6LImR9GcoobLn/k0ultqynyuPpGTYcyjmZ30MZkhcm6Uj/9WLGlaS5S6rnsYk1+MPm2jLIj62GRrA0j+nHlVLEp+bjgHm+4xwcTaOJMQk+HpVbLrsrZQEMV1vTSV7nMevqx0gS5XY2SYme1I4nX+3S2ZlCiI6Fjacrnp83Ica46ZYpySlrUg2ReH9Bv5eptrhjRToQl0oEUrhfUBuOmetyRudHMo9qKwT2OmKC+45yqMflhCm5/G8wHuHKH8um7MexmfNhGuqGR4zZtfdmeWry8lZ3FnadcY1ujbF6be/toSksRdXovnklhisdL7of3akRFJlLSCtHaxxdtLXT7hI7o3bMDLHWbdaNCTkIyrldcxLqR3ujatav28+winCi5h0upGbpfxQpg6+ICO41W5l+jcG+P6nf0hQoomgtQUVaGyvxUXMi2QXe/LhDrDsNqAN7fsgEz/AzfixM6+uHV8b4oiF6G4OkTMHKgLzoPD0eGqhKVlYa/jqs30v6YMN4Z5xb4olUbbwwaPw+7Cv0wekgXNFPlICH5OioursNIb52O7PPsohMouXcJqRm6X1sKrNHOozW0phdA3kwGy5YuaCvS7IBQLodMoEJFrV+PVeb+iuhNkYiM1H6+OZCKIs0RfVubq78F3Pz7ob2e/3v6tUfZxRRc0l8zwBUrFX8g+WIx2vbqC/eq4xDC0b8POqvSkXShXLfPXCqQmZKGwtY+8K3pEI69e6KDLjgr/kjGxeK26NXXXWdDBpPJv09nqNKToO2y7lji1MlcP3IhUMC9fc3CUqFCgeaCCpSVleOP5IsobtsLfWuMxkTwR5/OKqQnXYB5VjPTh8bg0vHi701jozptYEYe2r6IoCFWOL7zB+RWVuLmDztwRPwC22evO6EKFh9+r2K8bwGilwVj+oSRGOjbGcPDM6Bi19VOefPywzCnzMOEPyod4ffqePgWRGNZ8HRMGDkQvp2HIzxDxfqsBJmqK/XUT5WTgOTrFbi4biS8dX7p2vVZLDpRgnuXUqF1jaF+nDllYUo+DjjHG3PHBxNYuMG/X/tq2YWOPeHXvgwXUy4Z/oWjpsptNZX5SL2QDZvufuhSMyhhwPtbsGFGdzNz3ESdqhfmxYjA1gUuZgZ1o8fR+oxzLB4anh8mqKe/uXPHFi8GDYHV8Z34IZfZ4eYP2HFEjBfYPntOH3CPbU06dxFYQS4Dykq53vl5vOTWNfkwqICKBZ/QUr9LAaRSCfuXG6WSBY91DwTNnYhONTnOEKJ5x3ZMEbXiAlhYWFa3x32NGvU1BgfVu7SUM5nZWRYibgkrc6Iwue94fHevM/z9e6Cb/ySMeukU3g9O153RGGwx+NNTOP/CdmyN3o+fjm7Ae1tXY+WIdYjb3htaNYMwd2KnmgFFjbA5OrbT2VsggkhXDKoRMN11P9ZFZc5xbPpsa/X7Y5Y+b+O55weznwxtbZ7+zN8yGbN+DRaWTAJigavb1sIVK2VQsZHGUmQYvgImjyVrqVJVz+RlVGg7NEgIgVQKSZWCZax4sqOGXTIbqGVkiavt0kQsceqkNM+PXAgsmAy6n3XUqKAxmoGO6vO1KqgM34euE24fGrajLmpVe7h0JOxrChuZsAE3zTBo7HDYjdyJPdkvwGLHcTQf+i2et9EdrqYSOVGT0Xf8d7jX2R/+PbrBf9IovHTqfRhLeXPzQz+nzMOEPypzEDW5L8Z/dw+d/f3Ro5s/Jo16CafeD4a2VxN1JWoSpN+brx8rtiwrrdEjaC4mGhZb5pqOULsmobZ+nDlliyF1yjdZ7ybYGNzjjXnjgwkEUshkBpaH1vS13yFtotzWUK6ZxFlaiGrsqId5OW6qTtUH83JAwPqyNLP9Ro+j9RnnGpUfpuLPDH/rP3UwI3eaDRqL4XYjsXNPNl6w2IHjzYfiW01R4vYB19jWpHMXUSd09RDhy9QU3Kp8Fq1r3f+oMqMRtv5P+E2dgW6//uexkbuWmA8QSxd0cJPg+oVU5FfXCSXSL11lJYsLC7R0c4a8uAQ2vYIwfvx47WfsYPi084RXezsjijTkGkOE9q5wts5HRvqN6kEeFWnYMG0sFu67rtuhphLXotbiu7wBWH3mLH7c/iVWhszE0CfK8Re78L66WE8qb5/B9tU7caP7FCyO2I1TGdlIWvUsig5swf5bT8DNWY7iEhv0CtLpyD5jB/ugnacX2tfv8dJ9WPrMxd5zCUhI0H7ORk64L7jN11+FrIsXdU+U1RQhJeUPWLh7Vt/laeCKFXbczdkS11JSqhc9qClJSsbvaANXt9qVkAtLuHRwg+T6BaTWdAhl+iVc1QWnpYsbnC2vMXnv1MQCSpCU/DvQxhWcXXLpZNHygfpRoyPLB8trKUgxNBq0KrjBPKuZ8qF6AkooU96rmQyX3cCNPF1/XDo6uj1iG2mR9h2Lka3isXvTRkT93AIjxvaHle5YNZXXELX2O+QNWI0zZ3/E9i9XImTmUDxR/heLj5qbAi0Psj7U7Y92N6Kw9rs8DFh9Bmd/3I4vV4Zg5tAnUK7r1GRdycmqh35q17D8kBejxKYXgnR+GT9+LAb7tIOnV3ujT7m5csrlLxPycS1Y4hxvGj8+QJWFixdrLI8illt/WMDds9ZvOZsyboX2cHW2Rn5GOmpMUIG0DdMwduGhJsrxumFzyhrqlQPm8GDH0dpUXmtEfpiKv3r626zckfbF2JGtEL97EzZG/YwWI8aiv7oocfqAa2xrYpsLHfBC4LOQnNqCTansbsAAJRIiw7D08334XfV4yV2PDGwstniRzfhtjy7HWxsTUaAqxdUfPsCiHdeZStzYBIxDoMNZfDIjDEeylawI3UL8qkl4vt8IhJ4o1p1lSEOuMUDeH2NGOCF+zXzm1EJm3EKkblqEpV+fQ6GNre4kLeqnk4KyW8jMvMv0UeH2ua8wa/EPuMucrzTyW4LSC/sQEbELCVWLjE0gFFzG7qUzMWvJAWSpl0NW/IXsP2+jzM4ZzkyOgHGBcDj7CWaEHYFWzXismvQ8+o0IhTlqNgXm6U+4sy8MwVGXUKIqRvp372LxHgECxo/AEwaRyBUr9hg6bgjkMWGYGXEG+SwxSi5/j+CFUSjuOQYve6rvqktxYV8EInYlVK+gN4Xti+xu0vYolr+1EYkFKpRe/QEfLNqB61XBaT8U44bIERM2ExFn8tnQU4LL3wdjYVQxeo55GZouTcKlk80D96P90HEYIo9B2MwInNEaDd8HL0RUcU+MednT+FOT+zDhQ0sFXFxskXdsB/ZmMgWUWTi0ZBUOFlRNi7l0fPQ20iD2w9jRbji5ciV+aTsKQb2M/Xkw9ZNMAcpuZSLzLpNOdRvnvpqFxT/cZXordX8poYb61gfzMeEPsQiWgjLcysyEVsRz+GrWYmhFLOWoK+J66ceKLcYFOuDsJzMQdiSbaaXCrfhVmPR8P4wIPQGjruHIqU6WpuTjGrq4x5tGjw90B/vCghF1qQSq4nR89+5i7BEEYPyIJ2oNrGbEbekF7IuIwC7OAUGO/mNGwCl+DeZvSkUhG/ELUzdh0dKvca7QpolyvC4EEEvEoKK7uKuZjNQvB8zhweWJEdRPzhucH6bir551yqzcEcNv7Gi4nVyJlb+0xaigXtBWJW4fcI1t3DavQPrBCKzfeVbvprIuhGg7biFmd03F0pfHYeWhSyxG2W5lNn7+/P8wduVFdJwegkmukocgdz3QvSv8cFDlUeziQdRGKiSRWEQi+540MbAryc1YLKd+UTovLoyGuluRUCgmqcSSBNI2NDAkhnLV70prFmPIqM0bh3Tnq+G4RrNwQEYtp+yn6mVh5QkU4iMjn5AEzaYq/wQtG+JKMgsxyWUiEspcachHv2hWfhq89H87huY/bUeWrB+rZlIS23nT2LB5FKBQ0PDIXCqvtVju5rrBJBH1ouW/m/NSdzllbJ1CXgoLspA2J2smh8jBj2buzNS+XM/sGhc2lNythCQUS0liKSBpm4EUEqNetMFQLyKQVa3uVqOkX971JFmv5VTd/d2NNFSmWyCnPp9zsZyhrbn0r1o8Yvv0i+TfUqzxv1DSmvrN20851b6oWWXNFStqGWIWPk/OMgGziZzpLKXW/rMp+opmFQfjJq0bLCGRvo4mYRLGLqZBbaQkFDH5RPbUc2IgdZXrFsupz7gRQwufdyaZwIKkcglZSluT/+xo0nbJHUvcOnH4kYv7/KwWIYR8ZD4UkqAWUkU3YhbS884yElhISc7yQdran2ZHX2ERZg5cPmSRlbKORrrLSMj8IWd+cR26gKY/Y1X9VyM4dWysjThtYB4VF8LoaYmIeixM1LONfoyq6HbMfHrazpLJYUXNpGKy8x5LYfMCSKEYTpGswBgsluPKD6P1iwsOf6huU8z8p8nOUkhiq2YkFduR99gwmhegIMXwSFYDTdWV+umnRpUXR2FD3clKyPqTsvwQSKnNwBCKURfbOvQznVMcdY8LrlhiOpoeH0ygqZG29PSL/tSStS0WCUnSuh/N25+jjUODWGFwxe3NdTSYxVuv5b9rTjeJKp9OLBtCrjILEstlJBLKyHXIR/SL5s9PcOW4Wi6OOmWCe8dmk4fEgiTNu9G7cfc4YqRcs1hO1uYNOqTndJOL5TjHERPUd5xrVH5wwOHv2ovnTeZOFRUXKOxpNqb1WEiJ1UWJO0/V55ga27htXkhfD1P3u4iSzCyhqpwYWhLYmRQiNj5LmpGVmNmweTt64f0f6KrGeA9DbvMRqP/RzYkfGqW5aUjMKIZDl+5wV9TzobSqAJlJKcgqkqB1Fy+0s6teMVA3DbnGgArkX05Aao4Kjh194OlQx/WVhbiamIirpQq09+6KVnLdfmNU3sT6kf8B1u/C/zN8HFonlUXZSE2+jLtCB3h4d8ITUt0BHaqCTCSlZKFI0hpdvNqh3mo2FpP638aXL7TFwtY7kfFpV6QnXYfE3RudnWopUQuuWKnIz0DChVzAqSO82tvXLGpkVN5cD62J/1+tJ84mKM1FWmIGih26oLu7wsivTFgsZCRA26UX2tvX38hcOj1wP1bkIyPhAnLhhI5e7WG+Cmb6kN2lp59Px53mHeDT+QndkwtDuHR85DYyk8rCq0hMvIpSRXt4d20F/ZCvvB6O592Xwe37y8xuzAr1qQ9mYY4/KlF4NRGJV0uhaO+NrkY6NVVX6qWfBhUKMpOQklUESesu8GpnZ5CTxjGdU1x1jwvO8aYh48PtL/FC24VovTMDn3ZNR9J1Cdy9O4OjnJmI20rcXD8S/8F67Pl/T+j2maYi/zISUnOgcuwIH08HQzs3OMe5YPGUeR6Jf1aitVcPuNkITcZIg2jyPDFF4/KDi/rVqYbkjhazfGBqbHtANlfeuoTk9OsosbBHu26d0bqZYf49LnI/kokwD/PtqUUIiuyI1evGoK2R2vzPo2bQ/mPDi6jnWNYASnFqURAiO67GujFtjUxoeerPw/bh3xtlfDC69/sBQ48n4KOnm2wmosej9ceD1+8xpnoi/Ac2vNgEli89hUVBkei4eh3G/DsGBB6exwY+4x4R0qdDsDPi3zIJViOAQGgBoYD9X7fnwSLF0yE7EcFPgpuQh+3DvytKxL7lCVv/j3HN6xWMfPJBTRIflT8eln6PMczmQgsh+18TWV76NEJ2RvCTYB6eRwD/RJiHh4eniSm5cRHp2QK07uoJR2PvhvzN+afrx8PD8++Bnwjz8PDw8PDw8PD8K+F/D8PDw8PDw8PDw/OvhJ8I8/Dw8PDw8PDw/CvhJ8I8PDw8PDw8PDz/SviJ8ENCmZWMtNvar0QpObUecxds0/z82KC6gj1hc7H62G3dDi5UyNq/GOMG++OZAZMR/u3aeuhUglPr52LBtlTddi3qLcs/BQ67MJtf2ROGuauP6bZ5jFJwAuFzP8TOSyq2wWXTelD0C76YuxDb0zRfq2WEApwIn4sPd17SbT8kDPR9DCk5hfVzF2Bbah12a3S+P4K8aKIa9diPC01FRSq2hbyN/371Kwp1ux4n9P3waHlENcRsHvQY9WjGOH4i/BBQXfkCI3wnYFuWNtHKsn7FwZ8SNT8/NqhyELcpHFFn7+p2cFCyDwsmL8XPlr0ROGIQPEvO1kOnMmT9ehA/JebqtmtRX1n+MXDYhRWJnLhNCI86q9vmMUZlUQKiwyNx7Jp64sVlU/OpLE7C959/iZgrdUzoKouQEB2OyGPXdDseDob6PoaUZeHXgz8hMbeOiXqj8/0R5EUT1Ki/xbjQROTvXoa54eeg8PVGc92+x4XafnikPKIaYj4Peox6NGMcPxF+CFDRTdwqqkkyxatfIeX0R7qtvyeVhTnIKWyJF+YsxjuzXsPAKRvroZMCr36VgtMfDdBt82jh7dL08DZ95ChexVcpp/HRAP7vrOnzTxwXjFOKq0WueDNyE97xfvxioLYfeEzxz6ynD3kiXInc2BUI8msLa7ElpA4dMXjOt0gr1R4t2PUm+o5bjshFI9ClhRRiqzboNY0dT9mCaX1d0Fwshq3HECyNu1N1Ad7s+xqWfbUQQzxsIZEo4Nb3dUScLdAez9+J6X2DMH/BKHSys4Kdz3s4VsKkyI3FiiA/tLUWw1LqgI6D5+DbKiFQgNOfT0SfDg6wYv3ZOPtidGgMbujypPLmcXw88Vl4OlpBZMF0sPfAgBlbkKbUHq9NZc4WTJ3wJS4qMxA5rg8mbszU6Nl70CLdGRzyaHQch5Vbl2P0k06QiySw8wzAvL1Z7N5JR2UuYlcEwa+tNcSWUjh0HIw536ax8mOCkhRsnvUcPOyYnW3aYeD8w7hp8If06vZVReIqvPziCpwpy8Wumb3R681dyNLXiVPmAux6szcGLYrTbHHLUoYre0MQ6NMKzUSWkDl2QsCcbbjAfKmh4DQ+n9gHHRysIBbbwNl3NEJjbjAN6qBBccH0zjqAJa/6wUUhgUjmgC4vfYB9WTovlF3B3pBA+LRqBpGlDI6dAjBn2wVUiZi/czr6Bs3HglGdYGdlB5/39mDn9L4Imr8AozrZwcrOB+8du25oF3Z1yuZZeM7DDlKmV7uB83HYwDAcduGIZU4qb+K7qX0w7KMzrCcdFUn4ZGQfTPnmT7ah9mNfjFu5FctHPwknuQgSO08EzNuLKrNwy2iMStw8/jEmPusJRysRLFhM23sMwIwtadCkGVfeG1Ar1lCBrANL8KqfCxQSEWQOXfDSB/t08nL0q4GQ/0sohnraslizhuszrN/zdf2y13S9Mwqz+fGPJ+JZT0dYiSxYHNrDY8AMbKmrwBiBq0YVnP4cE/t0gIOVmOWbM3xHhyKmzqBgNvluKvoM+4jlu24Xs2HSJyPRZ8o32k2ufFcf7z0Ii+J0DXDkO3eN5coLLrs3IC+4alQ9azDnuGBGjJdd2YuQQB+0aiaCpcwRnQLmYJvpxFIXMRxY8ir8XBSQiGRw6PISPthXVZdN52p9x+fKm99hap9h+OiMED6TQjFvmCso6ROM7DMF3/zJjM05TtxP8dEPMLD3ZGzSf3pbdhrLhvbFtO/qekpZt17G/GB8fHgAdcwMOHOhnmNfjU+qk5mV9Pr4pHY95chFznrGlcusiUbM18xG/XeEHxblySvIX2FLPd5YSwfiz9PJ75fScDc5tZ96gO6w43kRAcSSk1wGL6Lok+cpbu1ochFZk73zU/Sf9TH0a3w0vddbQdJey7UN5kVQgERM0hZP0pQvDtPJ49tofn8nEjn/H+2+TaS6sZYGioUk936DNp84QVE74uimMplW+CvItscbtPZAPJ0/+T0tHe5G8vZT6QATovzX/1I3q440MeIonU/5jQ59HEjO4jb0+oEidYe0I8iJpB3G0GeHzlBycjzt/V8guYoUFLiZdWiMwiTaHao+py0NXxhBuxPuaPSUOk7UHi83LY9GR6mUmrk9R/M3x9KZ+L0UGtCKRC0n0Z5CTQOUvMKfFLY96I21Byj+/En6fulwcpO3p6maBoxRREff8iBJi2fonW9i6VTsFgru50SWAhH1WZGhOcOUr27fOEXbP5lAXcQONDD4C/rqYBpl6+vEKXMeRQRIyXHiHvYztyzFJ4Kpm9yGnpyyhvafjKeYjXOoj4OYXCfvppuqcvr1v93IquNEijh6nlJ+O0QfBzqTuM3rpHGZERoSF6Q8T0v8mpGNz+u07vAZOns0giZ3syLF4HD6o6KYTgR3I7kNi8M1++lkfAxtnNOHHMSuNHn3TVKx/26sHUhioZy839hMJ05E0Y7YFFo7UExCuTe9sfkEnYjaQXE3b+rZhVnm6FvkIWlBz7zzDcWeiqUtwf3IyVJAoj4rNMdN24Urls1AdY0+6y8j1+lHqFS3i5Q/09seMp1vtH6UNnOj5+ZvptgzLB9CA6iVqCVN0jqaU0aj5O2gICcpdRjzGR06k0zJLH7+F+hKIkUgadKMK++vfUb9Za40/Yhaav1YU7txCfk1syGf19fR4TNn6WjEZGYjBQ0O/4OzX23cCMjC1pemfxlDp+LU/T5BItfXaV8+a1zPXmq46p0x8nYEkZO0A4357BCdSU6m+L3/o0BXESkCN1MdFeY+fU3WqPJf6b8sbjtOjKCj51Pot0MfU6CzmNq8foBlojFUdO2z/iRznU6a5jUo6ee3PUimi0POfNccd6SJe+6xDa58566xXHnBZff65wWXzA2owVzjAkeMs8Si4G5ysnlyCq3Zf5LiYzbSnD4OJHadTLvrTCwlnV/iR81sfOj1dYfpzNmjFDGZ1U7FYAr/o4IzV+s7PhvGpRblz2+Th6wPrcio4I4bY+R/R6+2kFHvjy4Sa0FD6bE3qV2z/vQp08EYJvUquN8PxsaHzOMPoI4Zw6CGcOVCA8a+RvvEsJ5y5SJXPeO6nmt+1OgxTsdDnAiXUsw0F5L2XEYX9eI1b8sosrMeRpE31T5giSbWOURN6WGa6iwil6mHSV1C1UU55/PnSNpyimZLWywk9HRYanVSqHI20FCFNb30VS6VqwNaIqWB4dnsSi2lMdPIRdqTlhkKQaPsrGkYE+JedBDZNe9Lob/d1V5TkUk/rQ+nPSksClS5dHrbaoo8rp7c6FDG0ewOUnoq9EK1DLUpT1pEPWRe9MFv5Zpt/YLHJY9WRzH5r7pS3acydha1kz5FoRfYNaUxNM1FSj2X1RQGdhFtGWVH1sMiibVwP4XRNM5BRv4fZ9TYLXs9vWAt1hV2bl+pcj6n52RuNPOoNqGMFfE6ZdZPJk5ZCinqNXuS9VpGadWysDjYOIwU8gG05moxRQfZUfO+ofTbXW1vFZk/0frwPaR2mTE0ha6ecaGRX+JF759V6g6yJD4SSmOnfE6n86LoNXsZ9VqWVuMDVQ5tHKYg+YA1dFWlnQhLpAMpPFvXo+oGmwhLSDownKp2GdiF6R09zoFk/h9TVToww9D6F6xJrCkSXHZRmY5lczBrIiwhsf8qulKlgzKWZrXT5oM5MhpDlXuatq2OpON6I4wybjZ1qIofrryvcyKspNhZ7Uji9T7VuLGIjoSOpSmfn+bstypunvlfeq1YZQPTN6ysGwxi3Dl0PyrKPb2NVkce1xtclRQ3uwNJnwolTeoYwWBw46pR96IpyK459Q39jbTpUkGZP62n8D0pzFvGMHMibCrf1cerJsJc+c5ZY7nygtvu9c4LLpkbUoMZpsYFrhgviHqN7GW9aFlNYrHjG2mYQk4D1lytsZ0+mtyUkNf7Z5kHdRQdodCxU+jz03mcuVrf8dmsSZfJccIYf9HuiS1J0mMRJWnMVkw/TXUhm4B1dM2o0tw1qLYf7h8fHlAdM4Z+DeHMhXv1H/sa7ZP6jFFc9Yzreu5xudFjnI6H92qEKgcJyddRcXEdRnp3Rdeu2s+zi06g5N4lpGZoH9ULrNvBo7WF5mcI5Ggms0RLl7YQaXYIIZfLIFDpLQqxcIN/v/bQXQGhY0/4tS/DxZRL0JwlsIWLix27Uo0KOQnJuF5xEetGelfL0PXZRThRcg+XUjMg7D8B453PYYFvK7TxHoTx83ah0G80hnRppm4cfq+Oh29BNJYFT8eEkQPh23k4wjNUqKyshOEDfXPglkdjFYEC7u2ddDowMRQKNBdUoKyMmFkTkHy9AhfXjYR31fVdn8WiEyW4dykVOrMaUJGZgrTC1vDxbatnt97o2cFSu2Gmr0xiQmZ9OGWp+APJF4vRtldfuFedwFp19O+Dzqp0JF2wQP8J4+F8bgF8W7WB96DxmLerEH6jh0DtsjqpV1xcwo3UC8i26Q6/LmLNFWqsBryPLRtmoHt2Mi4Wt0Wvvu7VOqhjxb9PZ6jSk3ChXLtLYOsCFzv9lBPA1sUFBruqqMhESlohWvv4om2NYdC7ZwdoLMNpl3JITcVykyGAwr09nGocDUVzASrKWIyYIaMxhI5+eHW8LwqilyF4+gSMHOiLzsPDkaGqZHmmix+uvDdGZT5SL2TDprsfatxohQHvb8GGGX5m9uuCnn1c9fp9Gk+1K0Va8qWa10fUNCiHmG38XsV43wJELwvG9AkjMdC3M4aHZ0DF6kuVCCbhqlHS/pgw3hnnFviiVRtvDBo/D7sK/TB6SBc0KiqaKt+55OfKCzPsXt+84JK5ITXYLOqM8Qv4Pfkiitv2Qt+axGLH/dGnswrpSRdgLLMq81NxIdsG3f26oCb8B+D9LRswo3u2Wbla7/GZCzPjpobmGDRmKByTd+Lb86yf4lh8t+8v9Ht1BFoaraMNq0EG48ODrGOm4MoFSBs29nFhrk+4clFtI1P1rJzr+kbO1+qBsdB5QCihZAXBukcQ5gYHI7jqE7ISEZHL8Eo7reoCkUiXVDUIBNXRdz8CKWQyfTUsYMlOJ2ZoDexaC0uB9meGUisEgubqyRAcgpURkVj2SjtY2g7Gp6fO4+C6dzHUrQinNryHl/18MHrjH8x5OYia7AvfVz5EdEI+JO7+mLR4IUY7N9yMnPKoT1LrUMsE1RoplWwAtkaPoLl61wcjZGUEIpe9Ap1ZDalQsRATwlL/GLOjVFLVqnm+MokpmfXhlKUM6rpqKTLsU2BhyWzDkklFsB38KU6dP4h17w6FW9EpbHjvZfj5jMbGP+p604xRz7ggJqc6sETGlChTscmXJQxFFLD22Q4Wh0xE7R5mEL0uGewcpodRu7AWVaxLoaFhIJVKdOdz24UZpu5Y1p1vDoblTz0h09+j1qEuR5shoxEqc6Iw2dcXr3wYjYR8Cdz9J2HxwtEwSDOuvDdKuTrc2HkiozY3q1+IIBbp72C6qDfv+6b6huRQJXKiJsPX9xV8GJ2AfIk7/CctxsLRzuYXas4aZYvBn57C+YPr8O5QNxSd2oD3XvaDz+iNMJUute/y1QO5wa6myndO+bnywgy71zcvuGRuSA02BxMxXqZNLBZ9ejAfaEuOyvhDmXJmO3aFhfEiZlau1nt8vj9wDFPF3LjRQ94/CCPaXkL09njkx+zAQeUgjBn2RB050rAapJGrulg/wDpmCjPmGw0a+5rMJ1y5yFXPuK7nHpdNztd0bZiDuS5pPBYt4eYsR3GJDXoFjcf48drP2ME+aOfphfZGH4uZgSoLFy8W6TYYRSlI+cMC7p5VdxX6WKClmzPkxSWw6RVULcP4sYPh084TXu0VuHNmO1bvvIHuUxYjYvcpZGQnYdWzRTiwZT9ysqKw9rs8DFh9Bmd/3I4vV4Zg5tAnUP4XG3xNDcCCulKbS56qJ5Z1Y9HSDc7yYpTY9EJQ1fXjx2KwTzt4erU3+rTR0qUD3CTXcSE1n4WqDmU6Ll1l2a7mQfnKCJyyWLowWSxxLSUFd/RMXJKUjN/RBq4uf+HM9tXYeaM7piyOwO5TGchOWoVniw5gy/4burO54PJDCzi4OsM6PwPpem/hV6RtwLSxC3FI6gJny2tISblTowNKkJT8O9DGFW61Rw5zYHp3cJPg+oVU5NcYBumXrrLyweCyi5sFbpuIZfMWE6gLIqFMea+mdJbdwI08sy42Q0ZjhqnEtai1+C5vAFafOYsft3+JlSEzMfSJchikWb3yXofQHq7O1sjPSNfTvwJpG6Zh7MK9ZvabjUu/6/VbmIzkTEu4eehuWqtoSA5VXkPU2u+QN2A1zpz9Edu/XImQmUPxRPlfzCrq/7ipvGa6RlXePoPtq3fiRvcpWByxG6cyspG06lkUHdiC/XUEhfpGh8qUuFcTBLhxI88seWrDle9c8nPmBafdUe+84JK5ITVYQ53jgo46Y7wT3Fm9srzGtg0TC9qS43bfZFWN0N4Vztb5yEjXW0xVkYYN08Zi4SFpA3KVAxY3FlQGZU3gsPJxA+aWjzqR9MZrI91xdf8WrNxyCHjhNQxhfjWKOTWIyw8Pso6ZgDMXKm/Xf+xrSp9w5SJXPeO6vpHzNfPGOC1NN6PhxAYB4wLhcPYTzAg7gmwly/Nb8Vg16Xn0GxGKE8W60+oL3cG+sGBEXSqBqjgd3727GHsEARg/wvgdok3AOAQ6nMUnM8JwRCsE4ldNwvP9RiD0xD0ILu/G0pmzsORAFnMJqxN/ZePP22Wwc3aGjZjdgQvKcCszE3eZkVW3z+GrWYvxw13mPmXVKsb7EYglEFMR7t7Vulcf0/KYYRSbAIwLdMDZT2Yg7Eg2k1mFW/GrMOn5fhgRegJGW7B9EZNG2eLo8rewMbEAqtKr+OGDRdhxvSpyHpCvjMEpiz2GjhsCeUwYZkacQT4zYcnl7xG8MArFPcfg5U6WuLx7KWbOWoIDWRqP4a/sP3G7zA7OzjbaJsyAyw/y/mMwwikea+ZvQmohS+LCVGxatBRfnyuEjfswjBsiR0zYTEScyWcSlODy98FYGFWMnmNehqepByZ1YosXJ42C7dHleGtjIgpUpbj6wwdYtOO6bhDjsIunyHQss+QovbAPERG7kGDsjy2oESrg4mKLvGM7sDeTtaDMwqElq3CwQP/xgSm4ZDRuGPWTF0HZLWRm3mW6qnD73FeYtfgH3GVaVKdZPfNeixz9x4yAU/wazN+UikI2mBSmbsKipV/jXKGNmf3exf5l/8XuzFJUFl3AlrcXY5/oRYwf1qJWvw3JIfVvFQQou5WJTG2BwbmvZmGxtsCY/iswVaifEpqoUULBZexeOhOzlhyANl3+Qvaft1Fm5wxndVDchxAKFxfY5h3Djr2Zaksg69ASrDpYYPypIxdc+c4hP3decNldyJkX98Elc0NqMMPUuKDBRIw7DB2HIfIYhM2MwBltYuH74IWIKu6JMS97simEEeT9MWaEE+LXzMem1EI2lypE6qZFWPr1ORTauDcoV00hVLjAxTYPx3bshbZ8HMKSVQdhdvmoEzGeeu1ldPxjI1b+IMaLYwaZ+NvE3DWI0w8Pso6ZgisXhIJ6j31N6xOuXOSqZ1zXc43LHPO1ugeC+9G9K/xwUOVRXNhQcrcSklAsJYmlgKRtBlJITK7mRWf1y/iyllNov/bNeyLlL/Sup4x6Lf+9esHA3Y1DSWbw1wls6ekX/amlWERikZAkrfvRvP05mvY0L73L2tAbh2peDFe/wJ0XF0ZD3a1IKBSTVGJJAmkbGhgSQ7nqi8ozaOsUL1JYWJC0uTXJRCJy8JtJOzOZBKrbFDP/abKzFJLYqhlJxXbkPTaM5gUoSDE8Unu9Me4do9keErKQNKdu78Zp9KxeFMElj1pHWUuaUm0UJmJCCPnIfCgkQfdyf14chQ11Jyshk0sqIUuBlNoMDKGYOgVSXxNLiwe1IalQbTcR2fecSIFd5bpFUJoTTPqKc7GcSZn1X7g3R5YbFLPweXKWCchCKmeySKm1/2yKvqLVvzxjK03xUpCFhZSaW8tIJHIgv5k7Se0yYzQoLtjx/BPLaIirjCzEchYXQpK5DqGPftGuClfdiKGFzzuTTMDiRs58IG1N/rOjSSuidrGcrM0bVN2lZrGcjNq8cahmIVotu6h9ELt4ELWRCknE4ltk35MmBnYledUiJQ67mIxlxs11g0ki6kXLf6/DUAxlyjoa6S4jIWtbzvpwHbqApj9jpbdYTkYtp+zXLZZhlCdQiI+MfEIStNtcMhpBdTuG5j9tR5bMD1bNpCS286axYfMoQKGg4ZEs/rjyvs7FcuqD+XRi2RBylVmQWM5iRSgj1yEfkdqNXP1qFt/KO9Cwif2ppURKUtavyMmf/nvouqZfg4Uumm3TOXQ/KrodM5+etrNk51tRM6mY7LzHUti8AFIohlNkHflsuFiOq0aVU8bWKeSlsGD+aE7WMhZXDn40c2em3kKvWihTaN1Id5IJLVlsszhwHUoLpj9DVvqL5Uzlu8ZfVX81Qm0WE/luTo3lzAsOu3PkhTG4alRDarDJcYEjxlmPdCNmIT3vLCMBq3tyVq+krf1pdvQVqjuz2FX5J2jZEFeSWYhJznwvZHEz5KNftH/FhCNX6z0+k5JS1o0kd5mQ1UM5ix1XGrpgOj1jpbcwi2Nsq5PyFFrylJgs3WfS0ZrLjcNVg2r5wej48CDqmO48AwwWy3HnQn3Hvsb7pD5jlBn1jCuXWRsNnq/VA4H6H92c+KGhKshEUkoWiiSt0cWrHeyq39yvJ7e/xAttF6L1zgx82jUdSdclcPfuDCep7rgpVAXITEpBVpEErbt4oZ2BEJUoyk5F8uW7EDp4wLvTE6hpshKFVxOReLUUivbe6NpKrttvmsrCTJxP/BOVrb3wlJuRuzWT8piDCgWZSUjJKoKkdRd4tbOrWRBRJ6XITUtERrEDunR3h8LIHVST+YoTblkq8jOQcCEXcOoIr/b2hvpVFiE7NRmX7wrh4OGNTk+YEwRG4PJDRT4uJ6QiR+WIjj6ecDA4XIH8jARoRfRCe/umMVZpbhoSM4rh0KU73I0YxqRdTMVy5U2sH/kfYP0u/L8nTNw+l91C+vl03GneAT6dn0BD/iS+aRmNUFmIq4mJuFqqQHvvrjBIs8bkvY6K/MtISM2ByrEjfDwdauQx1W81zKZXzyMhWwT3J73qOKeG+uZQZeFVJCZeRamiPby7toJ5FUYf7hpVWZSN1OTLuCt0gId3J3CnSxlupZ9H+p3m6ODTGU80+nsRTOW7eTWWKy9M291Uja8LrhpV/xpc57hgboyzepSRcAG5cEJHr/Ywr+SwOnU5Aak5Kjh29IGnYRGrf65yUHYrHefT76B5Bx90bnzgaGG16+uRnfA/z/04/1FPs2Q0pRfn+KyjSeuYWZiRCw0Y+5raJ6Zy0Zx6xpXLpsflhuSyIY9kItxkVBeLP7DhxfqqzsPz76b01CIERXbE6nVj0NZI7Xls4fOe558OH+N1ov61+b3zoRg8aD+GxP2M+Z0b9O4ZD081f6fh734EAggthOx/HC+78/Dw3If06RDsjPibTYLV8HnP80+Hj3HjVJxBSA9r2Pn9D6X/WYbp/CSYpwn4ez8R5uHh4eHh4fmXoELB1Qu4UuqEzvqvNPHwNAJ+IszDw8PDw8PDw/Ov5O/9agQPDw8PDw8PDw9PA+Enwjw8PDw8PDw8PP9K+IkwDw8PDw8PDw/Pv5JHPBFW4cqeMMxdfUy33QiUWUhOu6350yooOYX1cxdgW2pd3xTzoDDUp+TUesxdsE3zsxpV1n4sHjcY/s8MwOQNaXjY0nFRW16TFJxA+NwPsfNSfb7RW4Wre5fh7dmzMdvY593PEFvzXYuPBaorexA2dzWO3X5wctXL7kW/4Iu5C7E97WFHTxF++WIuFm5P020/Ouq0l+oq9i57h+XfUdx8EO5SXcGesLlYfey2bgePeZTg1Pq5WLAtVbddC96uD4SHUbt4jNGE85paGPj0kc1zGkjZn4iNeB9TRg5CP/8BeOGVqVi8KR65dUwhVFf3Ytk7rC4cvamd1zEKToRj7oc7dVtNxyOfCOfEbUJ41FnddgNhhfSLEb6YsC1La7CyLPx68Cck1mXhB4ahPmVZv+LgT4man9WDwb4Fk7H0Z0v0DhyBQd2cHrvH8YbymqayKAHR4ZE4dq0+SajC9Z+/wecbf8LFW7dx+3btz1+497BdxoEqJw6bwqNw9u6DW1NaH7tDeRWnDx5G0s2HbSglrp4+iMNJN3Xbj4667FV6cjXeC4sBeXWH44NILlUO4jaFI+rsXd0OHvMoQ9avB/FTYq5uuxa8XR8ID6N28RijieY1RjDw6SOb5zQA1R+IHNMLLy6OharjQIwcPQzPtLmJnbP7oefEb5F1371aKU6ufg9hMQSv7o66uVIlihKiER7Z9DcYD/crlu9DST+/7UGy6q/TayDlSbSoh4y8PvjN5NdLPnhM6KPSfqWu89TDel+p+/fF8GtszUVJp+Z2JLHbTNJ9M/Njj/Lnt8lDpvv6SZ7HmAr6feeHFLIlqebrnpsa5c/0toes5qu/eZoG3q4PBL52PSqaaF5jhL+rT5Wng6mzxINmxxXr9qhRUd6uidRG3InmnlLq9umo+J12fhhCW5L0q7mKrn3Wn2Su03XbTcdDfihZgpTNs/Cchx2kYhu0Gzgfh2/q361WIjd2BYL82sJabAmpQ0cMnvMt0kp1h41RmYMtUyfgy4tKZESOQ5+JG5GZvwtv9h6ERXFl7IQC7HqzL15b9hUWDvGArUQChVtfvB5xlh3RUXYFe0MC4dOqGUSWMjh2CsCcbReYtFyY1qdg15voPWgRUJGIVS+/iBVnypC7ayZ693oTu1jnlbmxWBHkh7bWYlhKHdBx8Bx8W61sPnZO74ug+QswqpMdrOx88N6xEo5rtLqOW7kVy0c/CSe5CBI7TwTM24usqpvGiiwcWPIq/FwUkIhkcOjyEj7Yl8XuYfXk1VCJm8c/xsRnPeFoJYKFpRT2HgMwY0salLozHhxm6FEXJvRTfy3n8Y8n4llPR1iJLJj97OExYAa2pNVoVJKyGbOe84CdVAybdgMx//BN1Hi0YTa5u+9d9POfg713dDvUFP2IeQP64W22s152z9+J6b0DsOQXdWwzKnMRuyIIfm2tIWbnOnQcjDnfprH76QZgsi11PPZGwJJfNFtqOblytSLrAJa86gcXhQQimQO6vPQB9qkdyPzw3dQ+GPbRGei0YCcn4ZORfTDlmz912+bGqTp99yIk0Bf+Ez/E0tefg0/AHGy7oMveAlYL+o7Dyq3LMfpJJ8hFEth5BmDeXl1MmKIkBZtnPQcPOynENu0wcP5hGJarhtie+fe7qegz7COwcqCjAkmfjESfKd9ottT69R23EluXj8aTTnKIJHbwDJiHvVzBr46NvkGYv2AUOtlZwc7nPbCSwVEzTPhJjcnaaKxGXTOy7zrL594YtChOcxWnXVlUXNkbgkCfVmgmsoTMsRMC5mxDlUvrRcFpfD6xDzo4WEHMarSz72iExtxgXtDCZRvjNKQ2Mxpcm7hjRs2DqF3cuWpGrTaj7hrFhO8qb36HqX2G4aMagzCxPsHIPlPwzZ/qM3RyLY/EohFd0ILZxKpNL0xj+ZmyZRr6ujRnbdrCY8hSxN3RRkPlzeP4eOKz8HS0gsiC1TR7DwyYsQVcYnLNA9S2r/e8RodJn6prW615jukx07Qc+Tuno2/QfCwY1Ql2VnbweU/95LVpcpEK7qKQLGBhMOMUwv6Fd/BJ6GQ83bzqgK4/X39M/HApXn/Ox2R/2trvg1bNRLCUOaKTfu2vD7oJ8UOh6Ohb5CFpQc+88w3FnoqlLcH9yMlSQCLdnVN58gryV9hSjzfW0oH483Ty+6U03E1O7aceoDuaM4xRSEm7QynQVURthy+kiN0JdCcvggKkjjRxj/puIo8iAiQklragJ6d8QYdPHqdt8/uTk8iZ/m/3bXa8mE4EdyO5zZM0Zc1+OhkfQxvn9CEHsStN3n2T3YPUDZc+eREBJHWcqHkafGr7JzShi5gcBgbTF18dpLSiZFrhryDbHm/Q2gPxdP7k97R0uBvJ20+lA2plNU+QxSSUe9Mbm0/QiagdFJeTaPoaja5SkjZzo+fmb6bYM/G0NzSAWola0qQ9hey4ks4v8aNmNj70+rrDdObsUYqY3I2sFIMp/I+KGnk1Te2gICcpdRjzGR06k0zJ8Xvpf4GuJFIE0mZmtgf7RJhLj7rg0G9HEDlJO9CYzw7RmeRkit/7P03cKAI3kzoSmEPpLQ8JtXjmHfom9hTFbgmmfk6WJBDp7sA5bFIXqhtf03BbWwrcnKfbQ3Rnx2vkqBhKG66zu+L62P3GWhoobUlT9qtju5ySV/iTwrYHvbH2AMWfP0nfLx1ObvL2NFUbEPWAoy1NPEqp5ZT92rO5clV5npb4NSMbn9dp3eEzdPZoBE3uZkWKweH0R9k1+qy/jFynH6n57YjBU8F6xGnxCQruJiebJ6fQmv0nKT5mI83p40Bi18m0+ybLXk0tkFIzt+do/uZYOsPsGRrQikQtJ5HJUKIiOvqWB0laPEPvfBNLp2K3UHA/J7IUiHQyNtT2NU81alLH8AmSRj9pM3J7bj5tjj3D4jSUAlqJqOWkPZrjdaGJDbGQ5N5v0OYTJyhqRxzdVHLUGVN+quCojcZq1I2c+/fdvKnJZ8eJavm57Kp2aTB1k9uwer2G9p+Mp5iNc6iPg5hcJ+8mtUvNp5x+/S+Lm44TKeLoeUr57RB9HOhM4jav04Ei9WEO29RFg2pzY2oTd8w8qNrFCj1HrnLXas66axTTvjM2/hg+LdWO+yKZCw1eFE0nz8fR2tEuJLK2J+en/kPrY36l+Oj3qLdCSr2WX9ScvyPIiaQdxtBnh85QcjLT43+B5CpSsLptykDc84CGzWsYnD6tPc8x7QfTcqjoxtqBJBbKyfuNzXTiRBTtiLvZdLn4VwzN8mT+aOFNgW8tp68P/EbXiu5vwHR/tZ4Ic9X+evAQJ8KFFD3OgWT+H1P1U31VNq1/wZrEmoAppZhpLiTtuYwuVh1n5G0ZRXbWwyjypm6HMWq/GmFkIix5OoxSq/vNoQ1DFWT90leUWxBFr9nLqNeyNKrulh3fOExB8gFr6Gqd9uTSRy2G3oDN2vz8ORm5zTyqKSilMdPIRdqTlhkqS6PsrGmYWllNsZWQdGA4Zetk4LxGp6vYfxVdqZJbGUuz2knpqdALup8l5PX+WVZGdRQdodCxU+jz06UG8qpyT9O21ZF0XC+glHGzqYP0KQq9UNGoibClUERSuZzktT62ozYzq6rh0KMuTOpXQrmnt9HqyON6CaykuNkdSPpUKDGVqDB6HDnI/OnjGodS9voXyFqsLTxcNqmbfPpujCMphm2kG5pLb9PWl+2pxctbmaaGccJpd/2JcGkMTXORUs9lF2til7W4ZZQdWQ+LJFMpcx9cbRlMhLlzVRk7i9pJvOj9szW/8io6Ekpjp3xOp0s4Btd6xGlh1GtkL+tFy9JqBFHlbKRhCjkNWHOVVOpaIBGT/6or1Te1Gtm4fFYYTeMcZOT/cUa1PVTZ6+kFa7FWxgbb3ryJsETsT6tqgp9iZ7XTxKkpNLEhkdLA8OxqXblqhkk/5XHUxvL7a5SxuqW2S/VEmMuurAJEvWZPsl7LqMalKsrZOIwU8gG0pu6CbIR7FB1kR837htJvd7XXVWT+ROvD91AKKzTc9bQOGlKbG1WbuGPmgdUusybCpmq1irPuGse078ydCKvH4iqTlB6eSs4iF5p6WD0vYGjGZHVN28d+zqXT21ZT5HG9h1/KOJrdQatH3RZ6cPMaLp+yQnH/A786/cAlh3YiLJEOpPDqxG3KXGTiXNlPoeOeIXcbNpmHgIQyJ/J6cQaF/3xDZ1+u/soNJsKctV+3zxwe3qsRFZlISStEax9ftK36enChI3r37ABL9c+qHCQkX0fFxXUY6d0VXbtqP88uOoGSe5eQmlHzK5D6YwE3/35or9dvT7/2KLuYggu/J+NicVv06uvOztLBjvv36QxVehIulOv21YZLH5OokJOQjOsVF7FupHe1rl2fXYQTJfdwKTVD92soAWxdXGCn8ZL51yjc28OpyrNCBRTNBagoK0NlfiouZNugu1+Xmq+mtBqA97dswAw/iW6HFqGjH14d74uC6GUInj4BIwf6ovPwcGSoKlFZafB7zHojbDkSn/54BEeOGH4OLR0Mue4cU3rUhWn9ZHD0exXjfQsQvSwY0yeMxEDfzhgengFVJdOJKpCZkobC1j7wrXEoHHv3RAedQxtuE1u8GDQEVsd34odcdu7NH7DjiBgvsH32ujOqqE8fqpwEJF+vwMV1I+FdFQ9dn8WiEyW4dykVdaVMZe6viN4UichI7eebA6koqE9bnLlaivzUC8i26Q6/LtWeYK54H1s2zECtULsP8+O0An8kX0Rx217o616dvcyG/ujTWYX0pAvQpK9AAff2NYtThQoFmgsqUFZWt88qMlOQVtgaPr5tq+uC0LE3euqCoaG2NxeBwh3ta4IfCkVzCCrMaFRgCxcXO52uXDXjEm6Y8FP3bHNqo36NqsLYPi1cdkXFH0i+WIy2vfqixqUsD/37oLMqHUkp1/Br9Kbq2I385gBSi3Sn3YcU/SeMh/O5BfBt1Qbeg8Zj3q5C+I0egi7NzK2ndVG/2lzaqNqkO79OHmTtMgdTtZrJ0SDdTPlOdwonAli380BrnUkE8maQWbaES1uRdodQDrlMAFWFSm0g+L06Hr4F0VgWPB0TRg6Eb+fhCM9QMftU6r1iUosHNq/h9un9mPCDmXIIbF3gUpW4XLlY5+TIOGLXF/H+5hO4nJuDlKPbsGr287C9EIk3Bw1EcGxhPfszs/abSZXJHgIVUKnjzVLfiwJIpRL2rxollMwX1j2CMDc4GMFVn5CViIhchlfa1el9M2D9yGQGylpYMuMRS8QyFZPMEiKD5gXsONvBEkBVdwZw6GMapVZZBM3V0zU4BCsjIrHslXa6yTSTw8Kyuj3zr6kJDA1VDZQzmdlZFiJuCStzojDZ1xevfBiNhHwJ3P0nYfHC0XBuiogRO8DjqZ7o2dPw4+fpoOcjE3rUhUn9KpETNRm+vq/gw+gE5Evc4T9pMRaOdq7us0LrUJ0dtQikUkh0zTXGJs0GjcVwu5+xc082ru/ZgePNhyLoeRvd0Rrq1YdSyQZra/QImqsXD8EIWRmByGWvoK6Uqcw5jk2frcbq1drPZ1HnUHCvPm1x52q5enBhOWYq1AxTSz0o6vbUI07LVBWsH5GBzyCwgDZ9Vdo+2HZ9Q4kFA5NBqGmnGoEU0qpgaKDtq6lVV9STEf1dAiawocjcttCg1tWy5lyumkGm/GRWbTSsUVqM7dPBZVdmVa1LDQ0oYO1ZqmOkIgfHN31WHburP4vCuYL7lpxXYzv4U5w6fxDr3h0Kt6JT2PDey/DzGY2Nf6jMrKd1YagjZ1uNrE0aTMTMg6xdagy71stVDaZqtZm6GcGU77TcZxAYiMWEEIl0k95qBOoUuZ/KHERN9oXvKx8iOiEfEnd/TFq8EKM5DcQ1D2j4vIbLp/djyg/myaGuOzXlgyMX654c1aICF75fiZU7k7Xvo0sc0Ln/GLwVtglHz+3E663S8fVXMexA/fozq/abiZlp0ARYuqCDmwTXL6Si5k/FKpF+6SozE8OiJdyc5SgusUGvoPEYP177GTvYB+08vdDe2OOFalhw634yjgpZFy+i5sFBEVJS/oCFuyc6ubvB2fIa277DTF1FCZKSfwfauMKtdh5VwaWPSSzQ0s0Z8uIS2PQKqtZ1/NjB8GnnCa/2VU909GnINYYI7V3hbJ2PjPSaxSKoSMOGaWOxcN913Q41lbgWtRbf5Q3A6jNn8eP2L7EyZCaGPlGOv9iFrN48lpjUb+85RK39DnkDVuPM2R+x/cuVCJk5FE+U/6VOMfafJVw6uEFy/QJS9f6WsTL9Eq5qHNpIm0j7YuzIVojfvQkbo35GixFj0d9Kd6ya+vVh0ZLFrrwYJTa9EFQVD+PHYrBPO3h6tTf6RE6Npc9c7D2XgIQE7eds5AQ4t65HW5y5agl7V2dY52cg/UaN0BVpGzBt7ELsu64u2IQy5b2aYlV2AzfytOeaH6fMZywnLK+lIEW34EVDSRK06euGutKXC0uXDnCTXMeF1PwaGZTpuKQNhgbbXo16sKIyJe7VKI8bN/Jq+mkyuGpGCziY8NMhqUvDaqMJuOyqrqtuzpa4lpICQ5cm43e0gWv7pzCX5XJV7CacjcSE1nUYu/I2zmxfjZ03umPK4gjsPpWB7KRVeLboALbsv9XoeloDd222bFRt4oqZB1m71DeRdecqJ5XXOHUziknf3VAbBBZUBmWNQZhYN2CuWLWpvBaFtd/lYcDqMzj743Z8uTIEM4c+gXIuAz2weQ2XT+tJQ+TgykWzC0Al8n/+Eu8Hr8cvtdaxCRXe6OYiZDcT6hvy+vTXtLXf/FxvNLZ4cdIo2B5djrc2JqJAVYqrP3yARTuu65LBBgHjAuFw9hPMCDuCbHbroLoVj1WTnke/EaE4Uaw5yTgCMSRiQtHdu3VMQgl39oUhOOoSSlTFSP/uXSzeI0DA+BF4wmEoxg2RIyZsJiLO5LPrS3D5+2AsjCpGzzEvw9PY3aMGLn1MYxMwDoEOZ/HJjDAc0SqL+FWT8Hy/EQitQ9mGXGOAvD/GjHBC/Jr52JRayPK7EKmbFmHp1+dQaGOrO0mL+q5MUHYLmZl3mT4q3D73FWYt/gF31XeWRla7VqQfRMT6nTirl7R1Ul6AaxdTkZpa63MhDX+aeLrDiUn97CFit7pltzKReZf1obqNc1/NwuIf7rLqotSs9Ld9cRJG2R7F8rc2IrFAhdKrP+CDRTtwXSdSfW1iiBh+Y0fD7SS7M/6lLUYF9YKxNwTq1YdNAMYFOuDsJzMQdiSbnaHCrfhVmPR8P4wIPQEzIqKGerXFnatydsc/wikea+ZvQmohG/AKU7Fp0VJ8fa4QNvZ2cHGxRd6xHdibyS5WZuHQklU4WKAb1OoRp/ZDx2GIPAZhMyNwJp9lf8llfB+8EFHFPTHmZU82jDcQ2xcxaZQtji5/CxsTC6AqvYofPliEHVXB0GDbC6FwcYFt3jHs2Jup9iqyDi3BqoMF9XqCYS5cNcOkn9yHNbA2moDLrrDH0HFDII8Jw8yIM9C69HsEL4xCcc8xeLk+nQoFuLx7KWbOWoIDWUx3psFf2X/idpkdnJ1tGl9P9eBsq1G1iTtmHljtEipM5yon6t8omK67RuHwnVDhAhfbPBzbsRdasQ5hyaqDMFus2qifLArKcCszE1oxz+GrWYuhFdOUgR7cvIbLp/WjIXKYkYsV6TgYsR47z+brrjGGGD2n/Ac9b0di2v+two+X7rIIZJRk4+e1c7D6lBNGjhnAdtQv95u09uveFX44qPIodvEgaiMVkkgsIpF9T5oY2JXkuhf+1cfjwoaSu5WQhGIpSSwFJG0zkEJicjlefL5Hx2Z7kMRCQs27vUtxOfevprR9+kXybynW9CuUtKZ+8/ZTjq5R1Y0YWvi8M8kEFiSVS8hS2pr8Z0fTFa4/Ssyhj6nFcmwH5cWF0VB3KxIKxSSVWJJA2oYGhsRQrlouzYIMGbV541DNIgWuazS6yjQLmnTLAYjKEyjER0Y+IQmaTVX+CVo2xJVkFmKSy5gtZK405KNfNKtXDRZt3Y6h+U/bkSXrx6qZlMR23jQ2bB4FKBQ0PDKXymstVij8ehhJRD1oUZIpo+kWy2l/p3X/R2BFI7eq/84gtx51Ubd+KrodM5+etrNksWVFzaRisvMeS2HzAkihGE6RWqNTXuxiGtRGSkIRixWRPfWcGEhd5boFJxw2MR2jjIoLFPa0hEQ9FlKinpnqZXeDvxrBzs+Lo7Ch7mQlFJJYymJXIKU2A0MoRhsQ9cJkWwaL5TQnc+SqivJPLKMhrjKyEMtJJhKSzHUIffSLdp20MmUdjXSXkdBSSnKpnFyHLqDpz1jpFuCwq82MU3U/N2IW0vPOMhJYsLZYTkhb+9Ps6Cs1C2dlNfZSU54QQj4yHwpJMJ3gqrxYWjyoDUmFIhKLRGTfcyIFdpXXyNhQ2ytTaN1Id5IJmaxyJrPrUFow/Rmy0qsbspZTqEbkckoI8SGZT4hu2ziaxXKyNvTGoZqKobaP6Zph2k8ma6OxGmW0bmlrsPavRrBTOOyqbiNm4fPkLBOQBYsNCYuR1v6zKZqzIN9PecZWmuKlIAsWG82tZSynHchv5k7K1Kyv4bJNHTSoNrMzGlObOGJG0/8Dql2mc5WrVptTd41j2ndKSlk3ktxlQhaTcmYTVxq6YDo9Y6W/WM5QLuUv75KnrBct/71qcdVd2jhUpo1L1W2Kmf802VmyXLZqRlKxHXmPDaN5AQpSDI/kiIcHNa8x7VNNbTOY53CMmSbl0C6Wk7V5gwzLB0cuFn5NwyQi6rEoSbtdJxWU89NiGt5RweqkBbNxc5KzWiNxeoomrTtLf+nOMt1frb8aoZbZVO2vBwL1P2wS8lApzU1DYkYxHLp0h7vi/ofSqoJMJKVkoUjSGl282sGuZh1H3bA77MzzifizsjW8erjBprrZ2/jyhbZY2HonMj7tivSk65C4e6Ozk1R3vIoK5Gck4EIu4NTRC+3tzelUC5c+JlEVIDMpBVlFErTu4oV25ijbkGsMYLpeTkBqjgqOHX3g6VDH9cymVxMTcbVUgfbeXdGqZiXbY07d+lUWXkVi4lWUKtrDu2srvcV5epTmIi0xA8UOXdDdXWH4a5OHYRMTfVReD8fz7svg9v1lFtdVz5RVKMhMQkpWESStu8CrnV3Ngpx6U0dbldcR/rw7lrl9j2tfvqA5Uw1nrlbk43JCKnJUjujo4wmDUCu7hfTz6bjTvAN8Oj9h5Am5mXGqhvWTkXABuXBCR6/2qEf6clCK3LREZBQ7oEt3d9yf3g21fRlupZ9H+p3m6ODTGU9wLCBsNFw1w5SfGlEb64bLrmqRMpCg7RRe7e0bHtOVRchOTcblu0I4eHij0xO1an+j66kenG01pjaZETMPqnZx5qppzKq7xuDwXdmtdJxPv4PmHXzQudFJVInCq4lIvFoKRXtvdK1ncX8g8xo1pnzaABoiR5PlIpS4lZGCS9nFENq0RceubrA1fCVYQ736a4La/0gmwg+XmonwHxteRO3pLw/P3wllfDC69/sBQ48n4KOnG16O6o0yHsHd++GHocdx4aOndTt5eHh4eHj+3jT25uJvgAACoQWEAq4FdTw8jzNKxL7lCVv/j3HN6xWMfPLhTYKVsW/B09YfH1/zwisjn9Tt5eHh4eHh+fvzL3gizMPzz6DkxkWkZwvQuqsnHB/0r9L1KbmBi+nZELTuCs+H2jEPDw8PD8+DhZ8I8/Dw8PDw8PDw/Cv5F7wawcPDw8PDw8PDw3M//ESYh4eHh4eHh4fnXwk/Eebh4eHh4eHh4flXwk+EeXh4eHh4eHh4/pX84yfCqit7EDZ3NY7dbtD3Ej7WNKVuJafWY+6Cbbqth00JTq2fiwXbUnXbtVBdwZ6wuVh97LZuR31R4cqeMMxdfUy3/RBptOyGKLOSkVbl75JTWD93AbalVmi3Hya19KodP6qs/Vg8bjD8nxmAyRvS8AgkNEm94r3gBMLnfoidlzRfDPp4oy/rI5dbm9cLtzfC/6os7F88DoP9n8GAyRuQ9rgFEk8TYFifH9hY1MS1+LGmCXWt0x+qq9i77B3mt6O4+TefXv3zJ8I5cdgUHoWzd/95fxyjKXUry/oVB39K1G09bMqQ9etB/JSYq9uuhSoHcZvCEXX2rm5HfVEhJ24TwqPO6rYfIo2WvQbVlS8wwncCtmXpqk5ZFn49+BMScx/BRKeWXobxU4J9CyZj6c+W6B04AoO6OT12haY+8V5ZlIDo8Egcu/b4z8L0ZX30ct9Dyu5wfBlzpcET4ZJ9CzB56c+w7B2IEYO6wen/t3cmcFGV+///zDA7CgMI4sYmizuhhFvgkgsqqWjeDDX8Sbe/mlneNPSWWyouqWWlKblUkldFSi2XEhW1FMNCBVQMFU0QFVFikWWG7/85MwPDIMwZwKx7O+/XC52zPM/57uc7M+cB4TvM/0FM6/Mfdi96jLX4L89j1LUuf5ScXIO3ouJBXbrC6b88L4WyIqBD/cImpJ5ebth60qjxwqZUnF7e37AtUBtUeAd3C6u99Va/gE2pp7G8/5//u31N4qeiANnZBWgxZAYWvjkdL3a3+8sVmj833gUsowIF2dkoaDEEMxa+iekvdoedcMf6n0fIzb8WtftDi5t37PDC+hgs7qc27Pvv5YmWlfyvX0Pgi0uxaf4weNvJIVe7I/DlaJzJ545W4M6Oyeg9fDmSynSnMzQ4//4o9I74wrDNzrqdgBVhAWhjI4NE4Yh2g2fgPxdLDEeB4tStmP6sN+wVMti2HYA5h+6g+uel5sfn4+vXAjF+5ZdYNuYpOKukkNv7IHj2Xtyw5EM3zQ3sX/QCAlzVkEuVcOz4HN759gYLGY4yXNs7D6F+LdFEKoHSqT2CZ2zDhWLdQc44eC1wPFZ+uQxjnnKGSiqHvU8wZu+tHM+jW8Ud7JjcG8OXJ7ErGdCcx/ujeiPii98M23XLx/mm18AF+vPydmFqYBjmzB2N9vbWsPd7C0cr5ayFijs7MLn3cCw3Oo5d+n2M6h2BL35jjRuvbpzde2HgguO6LaYotk5/Ft72Cshs22LAnEO4Y+LEOzi2Khx9fJxgLbVifnSAd/9XEXOx1HBCMVK3Tsez3vZQyGzRdsAcHDKZgD8OTn8cjt5ejrCWMVu7+GPM4njkWPL1D5/sLM5vJ6xAWEAb2MgkUDi2w+AZ/0G1EK6ViuwYTH7pU1wqzcCW8b0RvjlTb9deA7HgOLO7zsYvYumm+RjmbQe5XA33wJcRrU8uPWXXsHdeKPxaNoFUooRT+2DM2HaBWcsCePSqih/NOax+fihWsFi4/fU09Or5Gr5mIpi1dx3xZnaMBflicbzzxpPlVNw5hlXhfeDjZA2pFfOvgzf6vxoDY2im4otp/eFlp2D1zxODZm/Fh68EGnLUkhrYsPjRweP//NMfI7y3FxytZczHLvAfsxjxFgS95sZ+LHohAK5qOaRKR3R87h18W61g0v1ELH/eF82VMl09HTjzK2RWHq5TJg3OrX4eQ1ewenb7a0zr1ROvcYHEo3/erqkIDJuDuaPbw97aHn5vcV+389gs/zQ+Du8NL0dryFi9cPEfg8XxOWyUeerUm68WFx3BOwN6YdLnN6pdowynl4YgcMoO/da1vZgX6oeWTaSQKJ3QPngGtlXdLOqAtwbkYdfUQITNmYvR7e1hbe+Ht1iimb+W4Z64bAsWjOyIZuzeY926J6b85yJSY6Yg0LUps5kdvIctwfH7Bm0qbiNhRRgC2thAJlHAsd1gzGDnG0PUfH02yU1Gg2zBwXsf4ZOzdmqNMd65NLixfxFeCHCFWi6F0rEjnnvnW0NfwfL+2CqE9/GBk7UUVmy8g3d/vBpzEVzZ4L2/cvDoyluXLK2VDL0//BEU/i6WvPws/GqLl3r3UPpxLy7dhPnDvGEnl0PtHoiXo8+wI5WY76Fqz30L4f6gxpMiNzqY5DIFNXsqgj45dJKObZtD/Zyl5PJ/u+keaenmh/1I6TaVDpcYBlAp/fAvb1L2XqHfLE+hFUFqsuv2Cq3bn0jJJ7+iJSPcSeU5mfbfZ8cLj9Dr3nJq9syb9EXCKUqIiaS+zhISSXvTigwN/3jKpehgBSmauNOzc7ZSQlIi7V0cTC2lLWjingLuBDOUUvKiAGpi60cvrz9ESWeOUPSkzmStHkxrr2qo6EQkdVbZ0lMRH9G+k4kUv3kG9XaUkduk3XRHy4bnRlOwQkFN3J+lOVsTKClxLy0ObknSFhNJd2k+3bQ36cN+SnKbepiM5vuB/uWtpN4rMrgNs/JxvlE4heuGaXPW0QCZmFS+r9DWEycodudxvYx1oL35IfVTutFUo+PYpf9F3kqDbHy6GezuFL6HvS6kI697k7zZM/TmFwl0KiGGIvs6k0QkNejBzt4ZRs4KLxr74UFKSkmhxL3vUaiblNShW1kccaZ6nbzlzeiZN7+ghFMJFBPZl5wlIpJaGEflP/2bOlu3o/DoI5Sc+gsdXBVKLrLW9PL+Qv34OuGXvTxlBQWp7ajbK+tof2IynfxqCY1wV5Hn5P2kC8G6KDhPuxeHkpu0DY2YH027z7KzdXZ1ovA9D/Wv5TJSNHuKIj45RCePbaM5/ZxJ6vJ/tJszChXRicjOpLJlxz/aRycT42nzjN7kKHOjSbvvsOwzhwU+qYwfbQ6d2v4+vdRRRo4DIumTTQfoYqF5e9cab6U8ucobU5bHO1881RbftZNLO8OcSeE1lj48mEQpKax+vMf5TE2hW3WRSUff8CG5fQ+avuUonTr6Gc3o3YqsFTKDHflrIF/8VJfVVG4e/5f/RP/ubE3twqPpSHIq/XJwFYW6yKj1y/uZ1GYoTaZFAU3I1u9lWn8oic4ciaZJbB714LV0VcPltZxEVs2p71sxdCz5DB1YOYLaSJvTS7s5J5mTKYeyT22n91/qSDLHART5ySY6cLGER38t5awbQDKxinxf2UonTsTSzuN3eMaU00//ZnHRLpyijyRT6i8HaVWoC8lav0xm092c3mV8tTiPdrzQjJS9ltMlVh51lByl19o2oX4fXGVmOUGRnVVky+6TH+07SYnxm1mcOJLMbRLtNleI+WoAy811A2QkVvnSK1tP0InYnXQ88xjPtfQ+lCpdafCCODqZfJzWjXElqY0DuTz9T9oQ/xMlxr1FvdQK6rnsEju/nFJWBJHarhu9sm4/JSafpK+WjCB3lSdN1t9keetz9dxssC14axa/nLVTW4xl885VmryIAprYkt/L6+lQ0hk6Ej2J3WPUNHgt83fuTgpzVpDX2A/pYFIKpbBa9l6oG0nVocSVDd77K6+ufHXJ8lrJ74+G9lD6OJMpmrEe6RM6dPIYbZvTj5ylLvR/+hsYTw9Ve+5bypNvhOXdKSqtMvu1lL0xhNQ2z9Gm2+W8N4GS+CnkquhBS6uqByM3hkbb29DwLXeoIG48OSqDaJUuODi0lLVhCNnI9AHDN77KGUGr6VpljpUm0PS2Cnp68QXDjjrQnSenLm+fYVIbKDxMi8dF0Mencyn2RQdS9lxKF6suzXTfPJzUqv700XV2MUMRC1p9jR3RU5owndoqnqbFFzS8urFsMV98zcpXYhLsusZErqABa7OqZDGHRY2wGd30djc0wgVxNN5RSUGrMqhK06wNNMTG2CzcPr2N1mw5Vq05L6Xjb3iR4unFdEFTQHHjHUkZtIqMpsqiDUNsSGZhHD2MCyP7poG0+JcHenk1mfT9hrW0J9VcIjN4ZS+h+CmupOix1HgDZOTGjCZ7m+GkC0EzlJ9fQN2UXeidX8r1O3TNYPVGWE7do9KM187eSCFqG3pu023SFsTSiw5K6rn0YtVxdgJtHq4mVf+PiAvBOuHVi7t8tWLJ5v34WSW5Tzuii0U+e9cWb7y5yhdTFsc7XzyxMyxthLW36fS2NbTlWLU3FqXH6Q0vff3QFH5FExxZw7D0ktGO1z+hwU0tbYT546fORpjP/0VxFGbflAIX/0IPdMJrKPP7DbR2TyqZi3qdzeVd6O0zVVZmZl5M4yI+ptMlhnr6zHvGXCw9STN9FOS/KI1fJnZzy/74WVK6T6MjOnvw6a+/GcoVA2htVlUk8Yx5SHFh9tQ0cDH9olecpfv3tGHtHjKX7mb1LuZrhIl+3x1OLeTdaMF5fS4XfT+ZXG2Daf1NLTPLi+Sg7ElLjTcLZpbNNFytov4fXTfGVk34aoCuEZaTYsBaqjQP/7UMPmTxV+nDkkOTyUXqSpMPsbrDoct3BbWI+JZLXJriqqAe1WKcCUYxo+3JZvgWYndp3vpcvZY02BZ8NYtXzrqoJcZ45yqlhOltSd7lbTKGSyEdXjyOIj4+zcrGadq2Zgsdq9bYlx5/g7wMtYz3/sqnK19dqkdvYHG81LuH0o+Td48iY3uYTRtD1GTz3Ca6rS3g6aHKa8l9y3niT1xZuQehr6eVYUsMpx4B8Cy7hNTLfMsptMg+m4JbmktYP8oXnTp10v/0WYATxQ9xOe0Sfk29iIJWfvBvU23+Xj3gJeFe843PMHyNJYLaw9O4KEOshrqpCJoy49cStVGRl4YLWbboGtARMsM+WPfH2zEb8WrXLKRcKkKbnoHwqBSNky2oNzpo03H+Qrl+l0gND0/jwiKxWo2mIg3KysqRaVY3fszKF1DLM6YiO7i62lfJ0mjq1M3kuQFoMlNxsaAV/PzboEpTp17oUaUo0zvgBUzwz0fc0khMfWkUBvh3wIi1GdBWVKCiPBOpFwvQys8fRlM5oVcPL+hn4I8Dcb+XMMHlZ8z1b4nWvgMxYfbXKAgYg2Edm+hmqAte2bXZOJtyC5pL6zHK13Bd9tNnwQkUP7yMtAzzMcaLlTuC+npWu3YPBHiW4VLqZZRcTcGlojboGehRdZyzS1DvDtCmn0dlCNYGv0/MYWHemcSbpWPqjinL450nnkzD0zzMngEvTIB/fhyWRk7FS6MGwL/DCKzN0KKCzaW5noZLvzuja3c3ox1bBeGZdhYmcSPiR8Pnf6t+eGmCC36e64+WrX0xcMJsfF0QgDHDOqLuqK9AXtoFZNl2RUDHKiszM7+NmI2vQm9mVk/beqNVlcI2sGkiQmnJQ36ZasakhfqL7Fzham+ICt4xYvR7aQJcfp4L/5at4TtwAmZ/XYCAMcNQd7pbord5mg4cixCnFOz6TzI0KELCjm/xe98XMLJFBa6mXEJRm54INN4smFmC0LuDFunnL8BMqpqtAfo7rAh2rq7Qm0dj4bVEsKnmQ5GqCZSSFnBtI9XvEKugUoqg1WiZuc8i5ZYGl9aPgq/B1p069cGCE8V4eDkNGcV89bk6lsr3KHw1i1dOnlJcPcZ45yrJQ9qFLNh2DYAxXKzR/+0YbHw1gMkVgBcm+CM/bikip76EUQP80WHEWmRoWf2xoADx1meeuqS1uFZaHi8N6aFY8MI9qC+M7aETegR4ouxSKi6XXLWohzLJ/XpQ/xGNRKRQQln9qlYSpj67cVU+LFXD71wgVO4qLWWGtOmGsFmRiIys/JmHldFbsPQfbcHe8jKNJCYJJVIoIBfpX/ON148TwcrK6GQdhvFmKdew2zfTRVrbyWWsSAASqWmqi5juElZUK7QGDUVW7Nr6l5VUzqbh0a0SU/NxN3LDHrPy1QIni8TCc3U84jhUXlqHGd1M4IopC0uJqaJQVClagezYSfD3/wfejTuLPLkHgiYuxPwxLoZgZnrqTGUyARQKedX1eOPAbjA+OJWMA+tnIsS9EKc2voXnA/wwZvNVJpsZeGUvhf7SYZhVdV32M28lorcsxT/amsZHvWHXUpomFyTM5sQlV5mWWUYC0xBksc4JyxXDGu4zgVcv81iUdzXizeIxdcWUxfHOF0/1oCIbsZP84f+PdxF3Ng9yjyBMXDgfY1yMM5GI5bBVNZlE+ibChEdSqbIGNiJ+eP1vh8EfnELygfWYGeKOwlMb8dbzAfAbsxlXzQR9OYsNLsjqNrPhGo/ANKp3TFqmv4gFhTGU+MfYDf4Ap5IPYP3MELgXnsLGt55HgN8YbDajOL/eNd1YrRZzqPohbGQbXI7bjsS8eOw8UIqBY4ejOQuVMv3NQh/jlbBY15tFWzM8TDFXA3Rw9zdJVZ5Ydi0RpFJD01uFiDvtUUpL2d3OBt3CZhltzX7mrYzGlqX/QFsJf32uToNtwVezeOXUn1YXJjHGO1c5Jw7zg7RWHSuyYzHJ3x//eDcOZ/Pk8AiaiIXzx6Ba2WDU0JT5syqc+HTlq0v16A0sjZcG9VBcHCiVJnXXSh+8LHss66FMc99yTEz9JNDeuIRLhYYNRmFqKq5aecCHvXvhjEdlpXhY5fMy5OTkMjU5rNDC3QWqomLY9gzDhAkT9D/jBsOvrQ+6eDrB3csd8lsXkJZXmfQsRtMv4zozIP/4xn36KXZwg4tNHjLSqy2y0FzExinjMP+gAu4uEtxkulauJ+AoPp+CX9Eabu41i0xNJHA1qxsH1xQQykofGlOmLAc5ufrzzcr37S3DjgbC/GZFZSg1Oo5dOgeGS9cLiasX3OW3cCEtzyhnaTouVypacROx63Ygt/8aJJ35Dts/XYl500LQvPx3Lh1QIXGFl7scty6kwWiqUqRfvs5uuhx8caDG/aTtWLMrB10jFiJ69ylkZJ3H6j6F2B+zz+yCOV7ZrVqwOFChqNgWPcMM12U/4wb7oa1PF3jyvZMV8WS49gYumSYXUq9awcPHCwpXd7hIbiI19b5RNhTjfMqvQGs3mAtBXr3M0pC8a3yuWhzvfPFkOM0SKm7GYt2OXPRfk4Qz323HpyvnYVpIc5T/zmZhNy6rNj7wVHF2rKxpjJJLSK/WcJmtgY2IHwmP/11/T8L2NbuQ0zUCC6N341RGFs6v7oPC/THYV2fQi+Hg5gKbvAykVztHc3Ejpoybj29v1TVOD59Mj8RkQ/TnG6O+j6Tta7ArpysiFkZj96kMZJ1fjT6F+xGzL8cwSU349OYagbprsR45er04Ch7X9yFmZQwOYgheHGbP9rNaz2JfcpPlrunNAnqzuMPs3cJMDXi0t2vktWrBqgXzqaoIxbY9EWaw9YQJ4zDYry18unjCXsZXn6vTcPn4ahavnHwFphq8c0kc4OZig7yM9Gr3Dw0ubpyCcfP34mbsOuzI7Y81SWfw3fZPsXLeNIQ0L4ehbLALmL+/8unKV5cs7w0ef7yYosWNS5dgjN5CVhuuwsrDB14K10b2UOaph7sfD3T/W0RFxuJysRZF6Tswc+EeiIInYGRzCdSurrDLPYqdezO59/G4cXARVh/IryomtsHjEep4Bu+/GoXDWaXMbneRuHoiBvUdicUnimA3dCJG2x3Bstc341y+FiXXv8E7C3aish7zjW8U7B3+2JHOSPxoDj5PK2DxVYC0zxdgyWc/o8DWAyHjh0EVH4Vp0UnIY/FZfOUrRM6PRVGPsXjep7a31qbw6cZ9/eDqaofcozuxN5PpVnoDBxetxoF8g/XMymenP6eBiNWucLXLxdGde6G/9EEsWn0AlZeuF3ZDMXG0HY4sex2bz+VDW3Id37yzADurFOU+QRKh7G4mMh+wfdp7+HnTdCz85gG7cClKYIehE0fD7sgyvL75HPK1Jbj+zTtYsPNWVZKbj4OHEF3ZjSXTpmPR/hssCllN+D0Lv90rg72LC2zNZQyv7LYIHh8KxzPv49Wow9BfOhGrJw5C35GLwReCIpkcMirEgwd1NKB0H99GRSL2cjG0RenYMXMh9oiCMWFkc1bsQjB+mArxUdMQnZTHynAxrnwVifmxRegx9nmYDUFevczTkLxrdK5aHO988VQPuE9KRGW4m5kJ/VQ/Y9P0hdBPxWZqGozwMU448d7r+DT5AbQsR/cvWIAd2ZWNsJinBjYifnj8315yBbuXTMP0RftxQx/0yPrtHsrsXeBiJuhV/cZipHMiPprzOdIK2BuHgjR8vmAJPvu5ALZ8v+us3jHZEP15xjwU4cruJZg2fRH26xXH71m/4V6ZPVxcbPVT1IJZvR3szddiA7KnX8Tz7a5i88pvIBs6FgOb6vc7hIzHMFU8oqZFI0l/s8BXkfMRW9QDY5/3YW8TzWCuBhhOqU6jrlUbtsEYH+qIM++/iqjDWSyCtbibuBoTB/XFyMUnwO7SvPW5Og2Wj69m8cpZD3jnUqHf2JFwTvwIcz5PQwFrPgvSPseCJZ/h5wJb3aecorK7yMx8wGygxb2fN2H6wm/wgKsArGzw3l/5dOWrS/XoDR57vJhAuP9tFCJjL6NYW4T0HTOxcI8IwRNGornYodE9lFkMzwo/EXQPXdt1p6FBLUgmlZFULKdWfWfTvmzDw82lqbR+lAcpxRJSqBSkcguhuVOfIWvDQ/Tcw9G5x6MoxMOaxGIZKeQSEila04B58XRbNwU7nrCQBrZWkJibX+pAPcJDqZOqcnUl33jugW0ltYjYR4ZlAETlZ2men5L85p017Kgbbd4JWjrMjZRWMlIppSRWutGw5T/qfxuANofi5w8iF6WIrBQqkksU1CroDYq7Vm3hk7IFReyrujK79DzyU/rRvLPcOXy6ceZbT6M8lCRmc6vYNdxC5tLUZ6yrFmiYk6/6A/G6xUvK1vTKQePD+eYppdT1o8hDKSYJu65C5UYhc6fSM9bVFsuZ1Y2ze+VvjWDXz02ghQNbk0IsZXEiJYce4RTaSVW1oOhe/Bzqbi8hscyamihkZO87jqJmB5NaPYK2cI7U5lLCwoHUWiEmqUxKUoceFB7aiVSWxlF5Bn0Z0YXUVlakaGpDSiaDY8A02pVZ9ZR+nZiXXXcCHY8KIQ9rMZNfweJARIrWA2he/G0mFQ8Pj9Ib3nKykjelzjOP6+1afbGcwo66Dw2iFkxnmVRM8lZ9afa+7Kp5tTnxNH+QCylFTC+VnPmqFQW9EUeVIWgOPr2qx49+8YxxsRzbYdbetccbj494Y4rNYFG888eT5Yvl7lH8nO5kLxGTzLoJKWT25DsuimYHq0k9Yote7vsnaUWIm96OzE8OT4dQYCuFMT74aiBP/NS5WI47Ztb/5ZTxZQR1UVux+tSUbJi9pI4BNG1XZrUFQLWhpbwTS2mYm5KsZCqWK2JSug2j5T/qrFxLPU2ld7spqfPbSbpN8zLVXCzH7TKnv34hk7L1K2QaSuZtVp7xJUV0UZOVlYKa2ihZbXWkgGm7yHy6m9ObvxbrKafURU+TTOJB044Y45ibOyd+Pg1yUZKIyaRisa9oFURvxF1jI8zAVwN0i+WU1PqVg8ZFfLzXetSHpT/OJB9lT1r2a6WBHtDmEGW1+n2cokI8yFrM8kDBfCpSUOsB8yhelwC6E8zWZ5Na0lBbMPhqFq+ctVJ7jPHrnEcnlg4jN6UVyVQsxsRKchu2nLhw0d6Lpznd7UnC6px1EwXJ7H1pXNRsClaracQWLkZ57q/c9OZ0taAuWdobsDPrHS+W9VDcOAXZdR9KQS1Yf8PiQixvRX1n76PK9pCL37p7qNr9Yiki7h9DT/yHc+/TIWgzvxV2ZXyATunncUvuAd8OzlAYjuth71zSk5F+vym8/DqgeW0LD7T5yDyfihuFcrTq2AVt7Y0LFnSU3MbFcxkocuyIrh7qR98J841vFBrkXTmLtGwtnNr5wcfRdG5NXgbOXrgNOLdDF08H48PplsKnG3tnmZ6cjvtNveDXoTkeNZ95+RpD2d10JKffR1MvP3So1XH1oQS3L55DRpEjOnb1gLqGohUF13Hu3HWUqD3h26kle8/9KCW3L+JcRhEcO3aFR80JOMzGQQUKs9KQcuUBxI7e8G3fvEacmsO87Bza/EycT72BQnkrdOzSFpaGYEVBJpLP/YaKVl3wtHu1T6zufYohbeaj1a4MfNApHedvyeHh2wHOjwjN/J9xFvoQ7AJPh/r4n18vszQk7xqdq5bFuyXxZBkVKLh+Dueul0Dt6YtOLWubqQx3LiXj10IndOqUjXd9B+L0yyn4YVbbquN8NbCh8cPn/4rCLKSlXMEDsSO8fdujuaVBr8nDlbNpyNY6oZ2fD+pXVuofkw3R3+yYikJkpaXgygMxHL190d5Sxc3pzVuLK3Dns1Fo/54P9iUvR4+aOrC5M85ewG04o10XT/CaxeIaUAv1vRYvWuRnnkfqjULIW3VEl7b2j9zreOtzdRosH1/N4pfTcvjn0uRdwdm0bGid2sHPx9F4vKIA18+dw/USNTx9O6G2ssF/fzWnqyV1qR69wWOPl3v4dEgbzG+1CxkfdEL6+VuQe/iiQy3B2+geqhb+nEb46kYMtbTACggI8FN1E7yKjUJy/fdQ9iPe7FyzERb4n4f71vphMhYPHoh9w47jhzkdGvm1MkOoAQL/tRgb4asbh9bjQ6fHQ30/02kUIpEYVmIR75ofAQGBesKSSmwlZv8JyfXfBec3K4gFv/2N0CBpXjfY2AfgvZJ/YunUx9AEcwg1QOC/FtYXivV18M+I3if6ibCAgICAgMDfHW3+dVy4VgLnDvV9jERAQOBxIzTCAgICAgICAgICf0ue6KMRAgICAgICAgICAn8VhEZYQEBAQEBAQEDgb4nQCAsICAgICAgICPwt+es0wsWnsGHWXGxL0xh2mKMQP34yC/O3XzRsCwg0Hu21PYiatQZH79X2N44sQHsNe6JmYc3Re4YdjxMtru2Jwqw1Rw3bjw8TveuVh38Byn5DQvTbiBg1EH2D+mPIPyZj4eeJuG38q8WPkT/OB382jY59i2E23L0Eb771ERLu/tHXagB/aA43gvwTWDvrXey63PjAzj+xFrPe3WXYeoLUqkMRTm14B5uSbuPE2ll4d9dlw/4nT/GpDZg1fzsuNrj0aXFj30KMHxyEZ/pPwsaGT8TMwurwO5uQVK8/bfm/zh9XO/46jXDZDfx04Hucs+gOVorrpw/g0Pk7hm0BgcajzT6Oz9fG4syDBq4f1Wbj+OdrEXvmgWHH40SL7OOfY23sGcP248NE73rl4Z+M9iq2jO2JoQsToG03AKPGDMczre9g1xt90SP8P7jx2PusP84HfzaNjn1LKT6B999agQQrP3Rz/At+IfmH5nDDqSg8i7i1W3D0ZmPfoFag8Gwc1m558m/matWhOAGblh7GbVUpzsatxZajNw0HnjwPU3dj7afxuNZQExd/i7mTluAHSS+EjhyIzs4Nj+/ihE1Yevg2mkgNOwT+0Nrx16lE6hewKfU0lve35C+SOSDss1ScjOpj2BYQEHgs1CsP/1zKfo7Gyv3W+H/bD+GzqEhMf+0NvL16FxK2jIUmdhE+/qnMcKbAXwXtb3fhMG4DYhY+g6aGfQJ/X8qSvscJu2cxyOux/CblP5WKgmxkF7TAkBkL8eb0F9HdrqHtVRmSvj8Bu2cH4X/ALI+NP7J2PLlG+MG3mNk3CDP23jfs4CjEd7P7o++/9gL5X+O1XgOx4Dh386rAnWOrEN7HB07WUlhJFHDw7o9XYy6iVDcuD7um9kLwoh91W9z5txNWICygDWxkEigc22HwjP/goiVfK+SfxsfhveHlaA2ZzBYu/mOwOD5H94d/Ku7swOTew7E8yXhD1Zx/H6N6R+CL37gz8vH1a4F4cekmzB/mDTu5HGr3QLwcfYYdMVBxGwkrwhDQxgYypodju8GY8Z+L0IvG6RGIsDlzMbq9Pazt/fDW0WKeMeZgdtsxGb2HL4dRZA3Ovz8KvSO+0G3lf/0aAsevxJfLxuApZxWkcnv4BM/G3huVnwDy2d4c+Tj9cTh6eznCWiaDrYs/xiyOR47emNgxuTeGL09iaW5Acx7vj+qNiC9+023qZVuGLQtGomMzBWTWrdFzCvNjagymBLqiKZvTznsYlhw3xBCb89iqcPTxcYK11AoShQO8+7+KmIv8knIUp27F9Ge9Ya9gsrYdgDmH7sD4eZgFdihOxdbpz8Lbnslq2xYD5hzCnWofqFXcOYZV4X3g42QNqRWLSwdv9H81BpaJV4zUrdPxrLc9FCwu2w6Yg0PVJ29EzJvV2yQP9fE9fuWXWDbmKTirpJDb+yB49l4Yw8V8rObtmorAsDmYO7o97K3t4fcW90lUGa7tnYdQv5ZoIpVA6dQewTO24QIL/fpA+Q9QQFawMqliYjgMeRPvL56E7k0rDzTUVnw+4NRPwIqwALSxkbH4c0S7wTPwn6qJzeQDB1+eNzS+LRhnPvb59dLFxbItWDCyI5qxOaxb98QUJntqzBQEujZltdQO3sOW4Ph9vbKVudAhcCIWvzsefi1q5IKZOlwnXKwGvoilm+ZjmLcd5HI13ANfRvSZquqLsmt7MS/UDy2bSCFROqF98Axsqx5oPDls3kd11O+60NzA/kUvIMBVDblUCceOz+Gdb29Al0r19LXmxn4seiEArmo5pEpHdHzuHXzLJaUFddYUnjqXtwtTA8MwZ+5otLe3hr3fWzCnovm4qYkG575LgKjPIHSRGHZVwVMjGhIvHOZ8wEH3kbj8efg2V0LG3RsHzsRXmZVH65ZJc241nh+6gt13b+Prab3Q87WvdT2AWXvUZVvNOXyXIEKfQV3AmaVRNaZOWG37Yhr6e9lBwfLGc9BsbP3wFQTq+gT+PoI7p0E1VZez47FsywKM7NiM1VVrtO45hemTipgpgXBtKoPMzhvDlhyHoXTw1o780x8jvLcXHK3ZWFsX+I9ZjHh+A5jC/R7hJ4I2hz4bYUd2oVsp17CL7u+kF53UFLLxFlFuNAUrnCh8z0P2eieFOSvIa+yHdDAphVIS99J7oW4kVYfS1ntsHJtr3QAFtYjYp5umPGUFBantqNsr62h/YjKd/GoJjXBXkefk/XRfd0ZdlNNP/+5M1u3CKfpIMqX+cpBWhbqQrPXLtL+QXebmh9RP6UZTD5cYzicq/eFf5K3sTSsyNGwrl6KD5SRTNKOnIj6hQyeP0bY5/chZ6kL/t5sTtJxSVgSR2q4bvbJuPyUmn6Svlowgd5UnTd7PJNPpISOxypde2XqCTsTupON3Ss2PMYuWbn7Yj5RuU8kocin98C9vUvZeodvKjQ4mhaIJuT87h7YmJFHi3sUU3FJKLSbu0R3ntb0Zyn/6N3W2bkfh0UcoOfUXOrgqlFxkrellvTHpw35Kcpt6mIyi/UD/8lZS7xUZuk1ONlacyHXwAoo7mUzH140hV6kNObg8Tf/cEE8/JcbRW73UpOi5TH/+zjByVnjR2A8PUlJKCtPlPQp1k5KaxRiPqESFR+h1bzk1e+ZN+iLhFCXERFJfZwmJpAbf8tqhkI687k3yZs/Qm18k0KmEGIrs60wSkdSgTy7tDHMmhddY+vBgEqWkJNLe90LJTaqmUD5DMgqPvE7e8mb0zJtfUMKpBIqJ7EvOEhFJDX5scMzz6l0tD3XxrSBFE3d6ds5WSkhiOiwOppbSFjRxTwE7zhPfLB5z1g0gmVhFvq9spRMnYmnn8TtUdCKSOqtsWc58RPtOJlL85hnU21FGbpN20x0tJ6SF/B5P033kJG3mS6GvL6PP9v9CNwsfnaChtuLzAZuYVgSpya7bK7RufyIln/yKloxwJ5XnZOLUN5sPvLZreHzzjuOLAR699HHB7K50pcEL4uhk8nFaN8aVpDYO5PL0P2lD/E+UGPcW9VIrqOeyS7rzzeeC+TpcJ1ysymWkaPYURXxyiE4e20Zz+jmT1OX/SFd+i05QZGcV2T4VQR/tO0mJ8ZtpRm9HkrlNot26QOPL4YbU77oCuJSSFwVQE1s/enn9IUo6c4SiJzGd1YNp7VUNr89M7kWlybQooAnZ+r1M6w8l0Zkj0TSpszWpB6+lq2V8ddZ4j9DBU+e0OetogExMKt9XaOuJExS783jdOcoTN4/cTzVptKi7G8sHVmuq3R84zNeIBsYLnw+4+4/Iipr3fYtijiXTmQMraUQbKTV/abdutDmZcrJP0fb3X6KOMkcaEPkJbTpwkUr47FGHbTVpi6i7G9OFK8GNqjF1U3j0DfKR21OP6Vvo6Kmj9NmM3tTKWkEyXW3j7yMafP/R5ayUlK6DaUHcSUo+vo7GuErJxsGFnv7nBor/KZHi3upFakVPWnZJ32OZrR3lP9G/Wey3C4+mI8mp9MvBVRTqIqPWL+9n2W05T64RZuTtGEtO6uG0OUefSfe+fJ4cmj1PX3KdcbUbsPb2adq2Zgsdq5ZxpcffIC/F07T4AjOOSSNcQvFTXEnRYynp7GYgN2Y02dsMpy13DDtq5SHFhdlT08DF9MsD/bU0md/ThrV7KJXd5y1thOXdoyit8trabNoYoiab5zbR7eJ4muKqoB5LL5FRtFyKGW1PNsO3sKDn9JCTYsBayqpUtYRnjGFP7VjWCMtlQbT6WuUFSylheltSPL1Yt8VrezM8jAsj+6aBtPiXB0wShiaTvt+wlvbojWlZIyyrtC2j5BBNdpGS6+RDzFMcWsr++FlStIjQvb59ehut2XKsWmEupeNveOl04RGVCuLGk6MyiFZVXovNl7VhCNkYrs9rh4I4Gu+opKBVGVV+0mZtoCE2Mr0+2tt0etsa2nLsjt4WHKXH6Q0vBT29+EI139ZGAcWNdyRl0CoyipdFG4bYGApVw2OeT+/qecjFne6NXtBqMoZLAk1vq9eBP1b1jbBcMYDWVgV4AcW+6EDKnkvpYtUg5tfNw0mt6k8fXTfa2xJKr+2jxeOfIQ9b1shBRGKlM3UZ+iqt/SHHIFNDbcXnA079KeSq6EFLTSem0fY2NJxNbDYfLLBdw+KbfxxfDPDpxcmpiwtmh8opSg5NJhepK00+pM9Urg5+/CxXo79lr/lywXwdrhPdTVVO3aPSqmyozd5IIWobem7TbcqPfZEclD1pqTHQ2PHNNFytov4fXSctXw7z+ai2+l0XuryRU5e3zzBvGCg8TIvHRdDHp4t5fVb9XlSaMJ3ayrvQ22eqZmJTLaZxER/T6eL6NcJ8dU7XrMkVNGBtltF3dcAXNzXvp5qrq6lvqzDa9TvbMGmE+WpEUcPixawPSgz3n2fovaq8KKWTM31I4b+IveavW9rsj+lZpTtNO6LXj9cetdpWQ1dX96VWYbuIM0ujakydFNJXExxJwXSpmlZ7nT4Z3NTCRrgRPZfhzSsXi/qhJXRosgtJXSeTsXQwOypaUMS3bAdf7XgYR2H2TSlw8S+kDwUNZX6/gdbuSWUes5wn+oyw3dAwDLM+hl3f3EZFxR18s/MwZEPYPgfDCQbETgF4YYI/8uOWInLqSxg1wB8dRqxFhraCjTP9apJb3HA25RY0l9ZjlG8ndOqk/+mz4ASKH15GWkbVZ/u1oEC/lybA5ee58G/ZGr4DJ2D21wUIGDMMHZsYTuHFCu5BfeFZ+SyP2Ak9AjxRdikVF2+cRcotDS6tHwVfg1ydOvXBghPFeHg5DXrRRLBzdYW9wRPabEvGNA6R2gOeVQ/yi6FWN4VIo5+4XravgaLfS5jg8jPm+rdEa9+BmDD7axQEjMEwy40JkU1beLcyGFOkQhOlBC1c20C/ZkAMlUoJkZZbzSCGU8ALmOCfj7ilkZj60igM8O+AEWszoK1gspoVVYPM1IsoaOUH/zZVjoNTrx7wMnxFx2cHTSbzb0Er+Pm3YRFQOaYXehgnQMALE+CfH4elkVPx0qgB8O8wAmsztGx8hcnX0I+gyUTqxQK08vOHUTwn9OrhpfuqrOExz6/3o4ig9vCEMVzUUDcVQVNWZnGsiuxc4VoZ4JqrSLlUhDY9A+FRKQInQ1BvdNCm4/yFcsM+y5C5DcXbW0/gyu1spB7ZhtVvDILdhS14beAARCYUNNxWfD7gFs6dTcEtzSWsH+VbNW+nPgtwovghLqdlQGwmH/ht19D45hvHFwP8euktJoJNW28YU7UJlJIWcG1jWN0jVkGlFEGr0ersZj4XGlGHrdwR1NezWg72QIBnGS6lXsCvKZdQ1KYnAo2Bxo4HoXcHLdLPX8BDnhy2LL5N63ddVOSl4UKWLboGdETVX1S27o+3Yzbi1QBlPXxdgby0C8iy7YqAjsa/zWzd/23EbHwVAfV8tN+iei+yg6urPYsSc1gaN5VU4O6hQ0gPGIy+NR/45K0RVg2KF/M+0BtOpK52/2HXtLFpAlFpSQPqloX2qGnbirs4dCgdAYP7omkja0ydaK8j7dLvcO7aHW5VqrZC0DPtDLWNh0b1XAyRDdp6tzLknAiqJkpIWrjCWDpUUIq04EoHb+1Q9MNLE1zw81x/tGzti4ETZuPrggCMGdYRlncdsEzvx0aTgRg3wh6jdu1B1hAr7DzWFCH/GQRbw+FKKrJjMSlwAnY87ICgoG7oHDQRo587hbcj0w1nVKcUpczuNt3CMCu8fVVB0yFuinZtzatoN/gDnEoegu1fxmHf90ew8a0vsWblSKw/HouJutyoccfhjG+ySwSFUmlSJKwkTApihaS0lAW7DbqFzUJ4exPJmGjtwIl2lo23spKwfw1YMIaXR0Qmk10iKytTOxmvXk/b18BuMD44lYwh279E3L7vcWTjW/hyzUqMXH8csXpj1hCNK/Kme0RSqaHpNSISmUqrpwLZsZMQOGEHHnYIQlC3zgiaOBrPnXobloiq0XI3aIlJAogUCsgNpuC1A8tSLfO6xHQCKIwTIHZSICbseIgOQUHo1jkIE0c/h1NvR4JfPA304plMDoVCbvBUw2OeT+9H4eKzhv0rz7UgVjnvcvEmqZqfNdDsfYxEaiqjiOWAhIsHbY3grRMNLnz1AfZXDMZrz3eGXO6IDv3G6n5emzkWUwJG4LNN8VgZ2L6BtuLzAae+bmKEzQqHqfpiNG3XFhI7pzrzYXsvPts1NL75x/HFAK9eutciSFmumiJifjS8rI4FuWCuDk+q1sg+Ass5pdKk+kJffitQpg80Ez05ATmXVlRoQXw53JD6XRflLJ6YJFbS2s6sn6/LuQ6BKVnrVAb46mwlFtV7ZjMrYwLXCX/cVP9tK/k4/N05dBm4EXaGPUb4a4TdsAbEi1kf6NFfozbqX7f47XH2UdvmH8Z357pg4EbOKtSoGhM7yaPGfb4aJGJxb1UtbllDyn3IZNjSUUMlYx/RuJ6L3eRZ7TC8rkTE8sjw0gTe2mGHwR+cQvKQ7fgybh++P7IRb325BitHrsdxllPmSkd1eN7HPm4UCBw3Ci0Td+PzzbH4odlIjOtnbThWSQVuxq7Djtz+WJN0Bt9t/xQr501DSPNy/F7BOcNwWiVWLeDuokJRsS16hk3AhAn6n3GD/dDWpws8zb1Vr7iHpO1rsCunKyIWRmP3qQxknV+NPoX7EbMvh83NgpTKUPrQGBFlOTnINZFBixuXLqHQsAX2KjX1Kqw8fNCujTtcVEUotu2JMINcEyaMw2C/tvDp4lnrpwhWLeo/pjpc00JlpTCKXIacnFxmVUuop+1NqMC9pO1YsysHXSMWInr3KWRkncfqPoXYH7MPORXMllaEstKHxvwqy0GOqTEtp+ImYtftQG7/NUg68x22f7oS86aFoHn571xZ4tFXAlcvd8hvXUBanvHM0vTLuM592GyBHSSuXnCX38KFtDzjtUrTcVk/ARMvFut25KL/miSc+W47Pl05D9NCmqOc35Dc5PByl+PWhTQYxStF+uXrrD1jNDjm+fSuHw2KVaabu4sEN1NTqxZDcBSfT8GvaA0395oVsi4qkPfDp+yGvQE/1li8I1b7orOrmDWyrGFoqK34fMDKdgt3F6iKimHbM6xq3gnjBsOvrQ+6eKpx30w+3G3OYzs0ML5584IvBvj04vtk8FF4c4GvDptDewOXLhmrLwpTkXrVCh4+7eHB9JDcZNumgYaUX4HWbu5Q8uRwY2txdcQObnCxyUNGerUFXZqL2DhlHObv/bkevhbDwc0FNnkZSK+2IEhzcSOmjJuPb29xjbmldbYx9b4m9YybwgR895MnBgxq/mg88dUI198bFC9mffDtLcOOOqh33WpYHhUmfIefPAdgUHPuaONqTJ3rxazawMdTpattxrAowaX0q6yb0WO2j2hMz1VP+GpHxb0kbF+zCzldI7AwejdOZWTh/Oo+KNwfg331WDD3+CS2EFnAOIxxP4mVK39Em9Fh6FnLVzncuy5R2V1kZj5ghtfi3s+bMH3hN3jAvRN5ZFWiLYLHh8LxzPt4NeowskpZbbybiNUTB6HvyMU4UWQ4rTbEIlzZvQTTpi/C/hvcEkQNfs/6DffK7OHiYstuqK5wtcvF0Z17kckOl944iEWrDyDf2BczCPe/jUJk7GUUa4uQvmMmFu4RIXjCSDS3C8b4UEecef9VRB3OYtJrcTdxNSYO6ouRi0+gVtFsGzCmCjHUrq6wyz2KnXszOWvhxsFFWH0gv+abuzqpn+2rI4boym4smTYdi/bfYGcza/6ehd/ulcHexQW2EjVcXe2Qe3Qn9uqNiYOLVuOAqTHrgQRS9k667G4mMh+wgNfew8+bpmPhNw/Y3KW8v2HDbuhEjLY7gmWvb8a5fC1Krn+DdxbsxC1D7vDawW4oe2dqhyPLXsfmc/nQllzHN+8swE7jBJCIynA3MxN68X7GpukLoRePVzoMnTgadkeW4fXN55CvLcH1b97Bgp23DAW84THPp3e9aFCsOiBk/DCo4qMwLToJeaznKL7yFSLnx6Kox1g878PewmvScSB6A3adyTOMqQ0ZekT8Ez3ubcGU/1uN7y4/YFdnFGfhh3UzsOaUM0aN7c92NNRWfD7g1B+PUMczeP/VKBzWT4zE1RMxqO9ILD7x0Hw+8NaGhsY3/zi+GDCvl/kKVCt8ucBTh81C9/FtVCRiLxdDW5SOHTMXYo8oGBNGNodjyHgMU8Ujalo0kvSBhq8i5yO2qAfGPu8DK74cblQtroGqH8aOdEbiR3PweVoBu4cXIO3zBVjy2c8osHWol69V/cZipHMiPprzOdIKWDNQkIbPFyzBZz8XwNbBvl51tuH1/lHqEzclp77Dj879Mdi1to/seGpEe0nD4sWsDx79XNoUC+pWDeqfRyU49d2PcO4/GJVmaVSNqbO7a4rg8DFwOvEeXv80GQ+0rE/YvwALdmTrayhvH9GInqu+8NQOsegKdi+ZhumL9kMfCr8j67d7KLN3gUvdBngUw7PCTxANXYjqTnJpN5p/rtywj1F9sdy9eJrT3Z4kYhlZN1GQzN6XxkXNpmC1mkZsuU1ak8VyDG0uHY8KIQ9rMYllCpJLRKRoPYDmxbNz9WfUSXnGlxTRRU1WVgpqaqMkqdSRAqbtokzdk9yllLp+FHkoxSRRqEihcqOQuVPpGevqi+UUZNd9KAW1kJFUJiWxvBX1nb2Psg0X1uYep6gQD7IWi0mmkJNEpKDWA+ZR/G12gk4PJbV+5aBxYQPD7Bg+SlNp/SgPUoolTF4FqdxCaO7UZ8jasMCHWxCgbBFB+wwPpjML0Nl5fqT0m6fb4rW97qw6KM+gLyO6kNrKihRNbUgplZJjwDTapTcmE209jfJQkljC5GL2dAuZS1OfsTZZLGciW+mPNNNHST2X/Vq1WOXB5hBSOoWzV1q6Fz+HuttLmM+tqYlCRva+4yhqdjCp1SNoC6+ttJSbsJAGtlaQWMp8J3WgHuGh1EllWCxngR20uQm0cGBrUoilJGO6OvQIp9BOKsNiuXsUP6c72UuYD62bkEJmT77jomh2sJrUI7YQv3i5lLBwILVWiHVxJXXoQeGhnUhl8GPDY9683tXzUB/fSl2eGcPlLM3zU5LfvLO6TfOxql8sp2z9Ch00CfAcip8/iFyUIrJicSBn8dAq6A2Ku2aoBwWf0XC5lLotOK/frhMNZX+/kEa0U7PrWjE7NyWVVExy56dp4vozusUmOhpqKz4fcLY8HkUhHtYkZnGikEtIpGhNA+bF6/3Lkw98tmtYfFsyjicG+PSqJS5Kf5xJPsqetOzXqkylzSFKcgrfw6bjzwXzdbgOdLFqR92HBlEL5h8Z5/tWfWn2vmymAQeLv/j5NMhFSSI2r4rpoWgVRG/EXWNVT4/ZHNYdr3/9rgtt3glaOsyNlFYyUinZvULpRsOW/0j3LfCZ6UIzLeWdWErD3JRkJVOxuBKT0m0YLf9Rv17ffJ2tsViOp86Vcwu6lK3pFZMErgvzcWPU4Xf64V/tqdOsU8ZFazV+awRfjWhQvDDq9kEt9x8WJanvdiNl57f1mzwy1Vwsx/aYt0dN23KLGtt3olmnjIsg+ebgqzF1c59OrgghN11tYzXA4WkKCWxFisraxtNHNLimcjmrbEERxps8/TjTh5Q9l5GxdGymEKXhHsRbO8op48sI6qK2Yj5pSjbMp1LHAJq2K7OqZ7AEEfePoSf+a8HerV0/dw7XS9Tw9O2ElirDfo6KW1g7yANL3b/CzU+HGHaydwv5mTifegOF8lbo2KUt7I1rCcxTUYistBRceSCGo7cv2jdXGA7oKbubjuT0+2jq5YcOzat/hH0Pnw5pg/mtdiHjg05IP38Lcg9fdHA2Hc8kQ37meaTeKIS8VUd0aWtvfFi/ThoyphL2Dio9Gen3m8LLrwNMRLYEc7bnpQKFWWlIufIAYkdv+LZvDhNrlN1FenI67jf1gl+H5qivaDWpKLiOc+euo0TtCd9OLVEvUTlKbuPiuQwUOXZEVw+16VckFtmhBLcvnkNGkSM6dvWA2nQCFFw/h3PXS6D29EWn+hlSR8ntiziXUQTHjl3hYTq5jgbHvDm9603DYlWTl4GzF24Dzu3QxdOhHvFdk1LczUjF5awiiG3boF0nd9jV8phaQ23F5wM2MTLPp+JGoRytOnZBW5OJefKBx3YNjW+LxvHFgFm96osFucBThx/h3qcY0mY+Wu3KwAed0nH+lhwevh3wSPnV5CHj7AXchjPadfGEwyNqmMthjsbU4ppokHflLNKytXBq5wcfR+NM9fY10+vK2TRka53Qzs8H1aaqX51tVL2vhccYN2ZrRH3jpYq6fWAJ9a5bj8MejaoxdVN25xKSfy2EU6dOyH7XFwNPv4ziH2ZVHuXtIxp8/6kX/LWjojALaSlX8EDsCG/f9rA4FAz8dRthc5QmIrJrX3wTcgwXlnc37PwzMDbCVzcOtTj4BAQEBAQaSVUjfBUbhwrVV0Cg4ZThxzc712iE/z407oOgP4HShNfhYxeEVTe74B+jnjLs/bMQQSS2gljE/jfsERAQEBB4ArC6K7YSs/+E6isg0Fi4XsZK/PfMpf++T4SLc3ApPQuiVp3g49TYL9YFBAQEBAQEBAT+rvx3PhohICAgICAgICAg0Ej+6x6NEBAQEBAQEBAQEHgcCI2wgICAgICAgIDA3xKhERYQEBAQEBAQEPhbIjTCAgICAgICAgICf0v+5EZYi2t7ojBrzVHdVvGpDZg1d5vu9V+DYpzaMAvzt1+E/q/P/0kUncKGdzYhqZ5/8vK/Be21PYiatQZH7xn+tGl90V7DnqhZWHP0nmHH/zqmefP4KcWNlItoqDv+Hv7Q14a529IM2+Yp/PETzJq/3bAlICAgIPBX4U9vhLOPf461sWd0W2U3fsKB78/pXv81eIjU3Wvxafy1P7URLk7YhKWHb6OJ1LDjfwxt9nF8vjYWZx408BeYaLNx/PO1iD3zwLDjfx3TvHm8sCb7k5Hwf2kbbjS4Ef47+KMMN346gO/P3TZsm6f0+mkcOHTesCUgICAg8FfhL/VohPqFTUg9vdywJaCnDEnfn4Dds4PgZWXYJSDwh0EovHMXhQ1tgv82qPHCplScXt7fsG0eh7DPkHoyyrAlICAgIPBX4Qk3wsVI3Todz3rbQyGzRdsBc3DojvFTwPyvX0OvgQsqN/Ba4His/HIZxjzlDJVUDnufYMzeewNa/RmouJ2AFWEBaGMjg0ThiHaDZ+A/FyufH8jDrqmBCJszF6Pb28Pa3g9vHS1G2bW9mBfqh5ZNpJAondA+eAa2XSg2jKkdup+I5c/7orlSBrm9DwbO/AqZBiEq7hzDqvA+8HGyhtRKAoWDN/q/GoOLpexg0RG8M6AXJn1+A8a+ogynl4YgcMoO9roCd46tQngfHzhZS2ElUcDBuz9ejbkIbrgOzTl8lyBCn0FdILHAJqbUbgNmOCSsCENAGxvI2DUd2w3GjP9cRNWTF5ob2L/oBQS4qiGXKuHY8Tm8863hGhV3cGxVOPr4OMFaasXs7gDv/q8iRqcwd3gHJvcejuVJZbptDs359zGqdwS++E1vheLUrZj+rDfsFTLYth2AOYfusParEgtsUpyKrdOfhbe9AjLbthgw5xCqhREz8TXsnRcKv5ZNIJUo4dQ+GDO2XWDRZyH5p/FxeG94OVpDxuLUxX8MFsfn6HzIr18+vn4tEOOXbcGCkR3RjOlo3bonpjD7psZMQaBrUzanHbyHLcHx+3p7mI0hHebzhoupa3vnIdSvJZpIJVA6tUfwjG2oCmsz+phSgeyYyXjp00sozdiC8b3DsZkLdD578vnjscnHkY/TH4ejt5cjrGUsflz8MWZxPHL0zsGOyb0xfHkSu6IBzXm8P6o3Ir74Tb9t8bUe4NuZfRE0Yy/uG/ZwFH43G/37/gt773N+7oWBC47rD/DkRd6uqegVvEj3msN87TKjo4CAgIDA44X7gxpPisIjr5O3vBk98+YXlHAqgWIi+5KzRETS3it0x3Ojg0nhFK57zTYoWKGgJu7P0pytCZSUuJcWB7ckaYuJtKeAHS9PoRVBarLr9gqt259IySe/oiUj3EnlOZn232fHtTm0boCMxCpfemXrCToRu5OOZx6jyM4qsn0qgj7ad5IS4zfTjN6OJHObRLvvaHWXNSWXooPlJLJqTn3fiqFjyWfowMoR1EbanF7azQmRSzvDnEnhNZY+PJhEKSmJtPe9UHKTqil06z12PI92vNCMlL2W0yWNbkKikqP0Wtsm1O+Dq2z4TgpzVpDX2A/pYFIKpTAd3wt1I6k6lHTDGZq0RdTd7WXa/5Bt8NmkJrXZ4E4ppawIIrVdN3pl3X5KTD5JXy0ZQe4qT5qsM1wpJS8KoCa2fvTy+kOUdOYIRU/qTNbqwbT2qoaJHEbOCi8a++FBSkpJocS971Gom5TUoVuJE1l780Pqp3SjqYdLdCJwlP7wL/JW9qYVGcwIhUfodW85NXvmTfoi4RQlxERSX2cJiaSG47w2KaQjr3uTvNkz9OYXCXQqIYYi+zqTRCSl3isy2PEiOhHZmVS2T1HER/voZGI8bZ7RmxxlbjRp9x2qzcumlNNP/2b6tgun6CPJlPrLQVoV6kKy1swHhRboZ4gZqdKVBi+Io5PJx2ndGFeS2jiQy9P/pA3xP1Fi3FvUS62gnssu6c43H0P8eVN0IpI6q2zpqYiPaN/JRIrfPIN6O8rIbdJuuqM1r09NCs7vpsWcvduMoPnRu+nsfT578vnj8cpX/tO/qbN1OwqPPkLJqb/QwVWh5CJrTS/rnUMf9lOS29TDVOWd0h/oX95Kgyz1uZaWcj4bQXZ2LO5yDbvoPu180YnUIRvplpbzs4KcwvfojpjPCzbXugGkaBGhO5evdpnVUUBAQEDgsfIEG+ECihvvSMqgVaTrFzi0WbRhiA3J6mqE5TIKWn2tqnkpTZhObRVP0+ILGiqJn0Kuih60tKrDZOTG0Gh7Gxq+5Q6bm2sC5aQYsJayDBMUxL5IDsqetPSicYw2ezMNV6uo/0fXa2mS9E2N7Jn3jDKXnqSZPgryX5TGBt+m09vW0JZj1Rqs0uP0hpeCnl58gbghv+8OpxbybrTgfLnucNH3k8nVNpjW39Sy4adp25otdKxaE156/A3yMujI2mC6urovtQrbRb9zB3ls8gi12IAZjqa4KqjH0ks6+fTkUsxoe7IZvoXulCbQ9LZy6vL2GdYSGyg8TIvHRdDHp4vp9ulttGbLMdbAGI6xs46/4UWKpxcTJwJfo1gQN54clUG0yhgElLVhCNnI9Md5bVIQR+MdlRS0KqNKfm3WBhpiI9M3OwWx9KKDknouvWjUT5tNm4erSdX/I7punLYOHlJcmD01DVxMvzzQn6zJ/J42rN1DqezNhqWNMBfTlSqWHJpMLlJXmnyIezfDYPJ8/KyCWkR8y17zxRBf3hRQ7IsOpOy5lIxhraXszcNJrepPH10vMqvPo5TT+QXdSNnlHfqFC1k+e+bz+OMxy/cwLozsmwbS4l8e6O2lyaTvN6ylPXrn8DTC5n37CHk7aKyTmoZvztFf696X9LxDM3r+S64zrt4Ia3nywrQR5qtdZnUUEBAQEHisPLlHIzSZSL1YgFZ+/mhT+ayr2Am9enhBYth8BJEaHp7OVc9viNVqNBVpUFamQfbZFNzSXML6Ub7o1KmT/qfPApwofojLaRmGr0ZFsHN1hb1uAg2uplxCUZueCPQwPmwrdgpC7w5apJ+/gHLDPlNEULf1RqsqmW1g00SE0pKHOvkDXpgA//w4LI2cipdGDYB/hxFYm6FFRUWF7uv+pgPHIsQpBbv+k8wkKELCjm/xe98XMLKFmA0PwAsT/JEftxSRU1/CqAH+6DBiLTK0FWw8G11xF4cOpSNgcF801V/djE1MvouuRnUbcOuYziLllgaX1o+Cb6XdOvXBghPFeHg5DZdz0nAhyxZdAzpCph8CWPfH2zEb8WqAEk4BL2CCfz7ilkZi6kujMMC/A0aszYCW6cuJbB4NMlMvoqCVH/yNQQCnXj3gZQgCPptoMlNxsaAV/PzbwBhGvdDDMIHmagouFbVBz0CPquOcn4J6d4A2/Twu1O7kaijQ76UJcPl5LvxbtobvwAmY/XUBAsYMQ8cmhlN4EcGmWsyIVE2glLSAaxvDakexCiqlCFqNVieb2RjiyxvNVaRcKkKbnoEwhjWzaVBvdNCm4/wFq0bpw2fPlAzz/njc8in6vYQJLj9jrn9LtPYdiAmzv0ZBwBgMs8g59fSt3VCEDbPGsV3f4DbzxZ1vduKwbAjb52A4oRKmj8V5oeWtXeJG6SggICAgUB+eXCPMmiAtd9+XVG97RVAo5OzfOhBZwarq5qmn8tzSUtbq2nRD2KxIREZW/szDyugtWPqPtobmWsTGS6rGlGk1gERq2niza3AiVVRoqz2nWh02h4nMlXCNajZiJ/nD/x/vIu5sHuQeQZi4cD7GuFQzq6ofwka2weW47UjMi8fOA6UYOHY4mrNTKrJjMcnfH/94Nw5n8+TwCJqIhfPHoGp4/mF8d64LBg6wM+xgmLFJ7ZjagBmOvUmwQbewWdXsFol5K6OxZek/0JaYn5iFrKS1zVqB7NhJ8Pf/B96NO4s8uQeCJi7E/DEuNQKphiW5hs6wS6MPAhMfiBQKyA2X47UJax617GqmYaSAonKCMi2LNAmkpk7W+5DJoa3dySbYDf4Ap5IPYP3MELgXnsLGt55HgN8YbL6qe0qaUbd+ekSQSmv+ig8R57pH4Y0hvrwpYw01F9YmCrNrcTZmTRhTmF8fM/DZs5zHH49bPrvB+OBUMg6sn4kQ90Kc2vgWng/ww5jNV/XPsDNMvcM1osY99bNFEwwcNwL2P+zCnqxb2LPzGJqGhGGQreFwFZbmhR7e2mWBjgICAgICj4fa6vQfg8QVXu5y3LqQhryqRR+lSL98nd1o64sVWri7QFVUDNueYZgwYYL+Z9xg+LX1QRdP+1oUk8CVjZHcTEWqYZGSjuLzSPkVaO3mjpqtCx8VN2Oxbkcu+q9JwpnvtuPTlfMwLaQ5yn9n87MmQY8cvV4cBY/r+xCzMgYHMQQvDrNn+ytwM3YdduT2x5qkM/hu+6dYOW8aQpqXo3J4YcJ3+MlzAAZxXfNjwqqFO1xURSi27YmwSrtNGIfBfm3h08UTzRzd4GKTh4z0aguINBexcco4zN/7M2LX7UBu/zVIOvMdtn+6EvOmhaB5+e9cu6E/n3XpVlSG0ofG5qMsJwe5uoPMB17ukN+6gDRjEKA0/TKu64KA3yYSVy+4y2/hQlqeUb7SdFzWT8COM/0kN5Gaet94HMU4r3cy3PmcXHEPSdvXYFdOV0QsjMbuUxnIOr8afQr3I2ZfDo9+9Yc3hvjyhh13d5HgZmoqTMM6Bb+iNdxcfzevTy2Iqr0H4rOnZ1vz/ni88lXgXtJ2rNmVg64RCxG9+xQyss5jdZ9C7I/Zh5wK7k0ioaz0obEZLstBTqVz+HxbC4rAcRjVMhG7P9+M2B+aYeS4frA2HKui4iZ/XlTBV7vUuG9WR8M0AgICAgKPhSfXCMMOQyeOht2RZXh98znka0tw/Zt3sGDnrRo3CsuwDR6PUMczeP/VKBzOKgW0d5G4eiIG9R2JxSeKDGeZ4hAyHsNU8YiaFo2kPHajLr6CryLnI7aoB8Y+72P86tdSuE+XRWW4m5mJB0wJ7b2fsWn6QnzzgPUCpVW/gwGyp1/E8+2uYvPKbyAbOhYDDc85cJ+SicruIjPzAbOBFvd+3oTpC7/BA9bolJaU4NR3P8K5/2C41lswM9gGY3yoI868/yqiDmexK2lxN3E1Jg7qi5GLT6BI1Q9jRzoj8aM5+DytgPViBUj7fAGWfPYzCmwdIJWIUHY3E5l6hfHzpulYqFdY91snxGpXuNrl4ujOvchkbim9cRCLVh9AvqEzsRs6EaPtjmDZ65txLl+Lkuvf4J0FO3HLEATmbaKbABNH2+HIstex+Vw+tCXX8c07C7CzcgKHEIwfpkJ81DREJ+WxZrEYV76KxPzYIvQY+zx8OFuWXMC30dH4+my+fkx1xCJc2b0E06Yvwv4b3Ip/DX7P+g33yuzh4mLLq1+94Y0hvrxxQMj4YVDFR2FadBL0Yf0VIufHoqjHWDzfXmJWn0cRQSaXgQof4AHXy/LZsxmPPx6rfGKIruzGkmnTsWj/DRYR7Ozfs/DbvTLYu7jAVqKGq6sdco/uxF69c3Bw0WocqHQOj29rRRaAcWPccXLlSvzYZjTCesoNB6rDfWJuPi+qY752PTSvI6vYmvQDiN6wC2eqvZkUEBAQEGgghmeFnwzaXEpYOJBaK8QklUlJ6tCDwkM7kaquxXLKFhSxz7DAiFF+dh75Kf1o3lluFY+Wco9HUYiHNYnFMlLIJSRStKYB8+LpNrfCRLdQTEmtXzloXDjDxuTEz6dBLkoSWSlIxcYoWgXRG3HXSL+UrSbcghgltYjYR1VSlKfSu92U1PntJDbdPYqf053sJWKSWTchhcyefMdF0exgNalHbNHLoaOcUhc9TTKJB007YtRHey+e5nS3JwmT37qJgmT2vjQuajYFq9U04tNvaEb7TjTrVNWSNQtsUoNabcB25x6nqBAPshYzuRVykogU1HrAPIo3CKzNO0FLh7mR0kpGKqWUxEo3Grb8R7rP7Hcvfg51t5eQWGZNTRQysvcdR1Gzg0mtHkFbdONLKXX9KPJQikmiUJFC5UYhc6fSM9aVi8mY3xIW0sDWChJLZSSVOlCP8FDqpDIsljNnky23dYuHtLkJtHBga1KIpSSTSsmhRziFdlJV/ZYCbU48zR/kQkqRFbs+00/RioLeiKNrlSa6s54Gy6XUc9mvhh2mlGd8SRFd1GTFYqSpjZLJ6EgB03ZRpm5tE59+j8ZM6Y8zyUfZk5b9Wrk46gFtDlHqF1pZEkM8ecP5OX7+IHJRisiKySSXKKhV0BsUZ1DYvD6P8vDoG+QttyJ5084083gprz35/PFY5SvPoC8jupDaisnS1IaU7HqOAdNol+Hk0tT1NMpDSWJ2DRW7llvIXJr6jHWVLPW1BYfmQhR1Z/HSbf65anXCdLGc+bwoN/2tEVwOmKtdPDoWfDac5FLjAlwBAQEBgYYj4v4x9MRPjJLbF3EuowiOHbvCQ93ID6W1+cg8n4obhXK06tgFbe2rlnjVjSYPGWcv4Dac0a6LJxwsGFI3FSi4fg7nrpdA7emLTi1Vhv3VqcCdz0ah/Xs+2Je8HD2qX6+iANfPncP1EjU8fTuh1uF/CFrkZ55H6o1CyFt1RJe29sbFcTo0yLtyFmnZWji184OPo/FoRcF1nDt3HSVqT/h2aonaRC67m47k9Pto6uWHDs1r+RSt5DYunstAkWNHdPVQm341YZFNSnD74jlkFDmiY1cPPBpGTP6Ms7hwG3Bu1wWeJk5m/tgwCv/EBuz5f80N+2pQUYistBRceSCGo7cv2jdXGA7o4dWvXlgSQ/x5o8nLwFm9wuji6WDqTx59TGHyZCbj3G8VaNWlG9y5jyHN2pODzx+PV77CrDSkXHkAsaM3fNs3h8nZZXeRnpyO+0294NehOR7xTr2uZTl150UFbq0dBI+l7nh481PDPobZ2sWjo4CAgIDAY+FPaYT/VnDfXj5MxuLBA7Fv2HH8MKdD/R/BEHi8lJzCgrAtaLdmPca2qaVjExB4rJQiMbIr+n4TgpILwl/OFBAQEPgrITTCfygaJL3THc++dx6izjOx5/BS9K3jUUSBJ0kFKirEEAs9sMAfTWkCXu8yFJ9ckeKpd77HTwu6Gw4ICAgICPz5AP8fOtdtXLs+bwoAAAAASUVORK5CYII=;" vertex="1" parent="1">
          <mxGeometry x="414" y="-60" width="706" height="154" as="geometry" />
        </mxCell>
        <mxCell id="Ol-fPhwVLLmiDNsKS8r2-2" value="COLECTIVO" style="whiteSpace=wrap;html=1;align=center;" vertex="1" parent="1">
          <mxGeometry x="550" y="430" width="100" height="40" as="geometry" />
        </mxCell>
        <mxCell id="Ol-fPhwVLLmiDNsKS8r2-4" value="RECORRIDO" style="whiteSpace=wrap;html=1;align=center;" vertex="1" parent="1">
          <mxGeometry x="970" y="230" width="100" height="40" as="geometry" />
        </mxCell>
        <mxCell id="Ol-fPhwVLLmiDNsKS8r2-5" value="CHOFER" style="whiteSpace=wrap;html=1;align=center;" vertex="1" parent="1">
          <mxGeometry x="970" y="620" width="100" height="40" as="geometry" />
        </mxCell>
        <mxCell id="Ol-fPhwVLLmiDNsKS8r2-6" value="EMPRESA" style="whiteSpace=wrap;html=1;align=center;" vertex="1" parent="1">
          <mxGeometry x="550" y="230" width="100" height="40" as="geometry" />
        </mxCell>
        <mxCell id="Ol-fPhwVLLmiDNsKS8r2-7" value="VIAJE" style="whiteSpace=wrap;html=1;align=center;" vertex="1" parent="1">
          <mxGeometry x="970" y="430" width="100" height="40" as="geometry" />
        </mxCell>
        <mxCell id="Ol-fPhwVLLmiDNsKS8r2-8" value="Conduce" style="shape=rhombus;perimeter=rhombusPerimeter;whiteSpace=wrap;html=1;align=center;" vertex="1" parent="1">
          <mxGeometry x="960" y="510" width="120" height="60" as="geometry" />
        </mxCell>
        <mxCell id="Ol-fPhwVLLmiDNsKS8r2-9" value="" style="endArrow=none;html=1;rounded=0;entryX=0.5;entryY=1;entryDx=0;entryDy=0;exitX=0.5;exitY=0;exitDx=0;exitDy=0;" edge="1" parent="1" source="Ol-fPhwVLLmiDNsKS8r2-8" target="Ol-fPhwVLLmiDNsKS8r2-7">
          <mxGeometry relative="1" as="geometry">
            <mxPoint x="660" y="430" as="sourcePoint" />
            <mxPoint x="820" y="430" as="targetPoint" />
          </mxGeometry>
        </mxCell>
        <mxCell id="Ol-fPhwVLLmiDNsKS8r2-10" value="(1,M)" style="resizable=0;html=1;whiteSpace=wrap;align=right;verticalAlign=bottom;" connectable="0" vertex="1" parent="Ol-fPhwVLLmiDNsKS8r2-9">
          <mxGeometry x="1" relative="1" as="geometry">
            <mxPoint y="20" as="offset" />
          </mxGeometry>
        </mxCell>
        <mxCell id="Ol-fPhwVLLmiDNsKS8r2-11" value="" style="endArrow=none;html=1;rounded=0;entryX=0.5;entryY=0;entryDx=0;entryDy=0;exitX=0.5;exitY=1;exitDx=0;exitDy=0;" edge="1" parent="1" source="Ol-fPhwVLLmiDNsKS8r2-8" target="Ol-fPhwVLLmiDNsKS8r2-5">
          <mxGeometry relative="1" as="geometry">
            <mxPoint x="660" y="430" as="sourcePoint" />
            <mxPoint x="820" y="430" as="targetPoint" />
          </mxGeometry>
        </mxCell>
        <mxCell id="Ol-fPhwVLLmiDNsKS8r2-12" value="(1,1)" style="resizable=0;html=1;whiteSpace=wrap;align=right;verticalAlign=bottom;" connectable="0" vertex="1" parent="Ol-fPhwVLLmiDNsKS8r2-11">
          <mxGeometry x="1" relative="1" as="geometry">
            <mxPoint x="40" as="offset" />
          </mxGeometry>
        </mxCell>
        <mxCell id="Ol-fPhwVLLmiDNsKS8r2-19" value="Ejecuta" style="shape=rhombus;perimeter=rhombusPerimeter;whiteSpace=wrap;html=1;align=center;" vertex="1" parent="1">
          <mxGeometry x="960" y="320" width="120" height="60" as="geometry" />
        </mxCell>
        <mxCell id="Ol-fPhwVLLmiDNsKS8r2-20" value="Tiene" style="shape=rhombus;perimeter=rhombusPerimeter;whiteSpace=wrap;html=1;align=center;" vertex="1" parent="1">
          <mxGeometry x="540" y="320" width="120" height="60" as="geometry" />
        </mxCell>
        <mxCell id="Ol-fPhwVLLmiDNsKS8r2-26" value="" style="endArrow=none;html=1;rounded=0;entryX=0.5;entryY=0;entryDx=0;entryDy=0;exitX=0.5;exitY=1;exitDx=0;exitDy=0;" edge="1" parent="1" source="Ol-fPhwVLLmiDNsKS8r2-19" target="Ol-fPhwVLLmiDNsKS8r2-7">
          <mxGeometry relative="1" as="geometry">
            <mxPoint x="710" y="430" as="sourcePoint" />
            <mxPoint x="870" y="430" as="targetPoint" />
          </mxGeometry>
        </mxCell>
        <mxCell id="Ol-fPhwVLLmiDNsKS8r2-27" value="(1,M)" style="resizable=0;html=1;whiteSpace=wrap;align=right;verticalAlign=bottom;" connectable="0" vertex="1" parent="Ol-fPhwVLLmiDNsKS8r2-26">
          <mxGeometry x="1" relative="1" as="geometry">
            <mxPoint as="offset" />
          </mxGeometry>
        </mxCell>
        <mxCell id="Ol-fPhwVLLmiDNsKS8r2-30" value="Define" style="shape=rhombus;perimeter=rhombusPerimeter;whiteSpace=wrap;html=1;align=center;" vertex="1" parent="1">
          <mxGeometry x="750" y="220" width="120" height="60" as="geometry" />
        </mxCell>
        <mxCell id="Ol-fPhwVLLmiDNsKS8r2-31" value="" style="endArrow=none;html=1;rounded=0;entryX=1;entryY=0.5;entryDx=0;entryDy=0;exitX=0;exitY=0.5;exitDx=0;exitDy=0;" edge="1" parent="1" source="Ol-fPhwVLLmiDNsKS8r2-30" target="Ol-fPhwVLLmiDNsKS8r2-6">
          <mxGeometry relative="1" as="geometry">
            <mxPoint x="650" y="360" as="sourcePoint" />
            <mxPoint x="810" y="360" as="targetPoint" />
          </mxGeometry>
        </mxCell>
        <mxCell id="Ol-fPhwVLLmiDNsKS8r2-32" value="(1,1)" style="resizable=0;html=1;whiteSpace=wrap;align=right;verticalAlign=bottom;" connectable="0" vertex="1" parent="Ol-fPhwVLLmiDNsKS8r2-31">
          <mxGeometry x="1" relative="1" as="geometry">
            <mxPoint x="40" as="offset" />
          </mxGeometry>
        </mxCell>
        <mxCell id="Ol-fPhwVLLmiDNsKS8r2-33" value="" style="endArrow=none;html=1;rounded=0;entryX=0;entryY=0.5;entryDx=0;entryDy=0;exitX=1;exitY=0.5;exitDx=0;exitDy=0;" edge="1" parent="1" source="Ol-fPhwVLLmiDNsKS8r2-30" target="Ol-fPhwVLLmiDNsKS8r2-4">
          <mxGeometry relative="1" as="geometry">
            <mxPoint x="650" y="360" as="sourcePoint" />
            <mxPoint x="810" y="360" as="targetPoint" />
          </mxGeometry>
        </mxCell>
        <mxCell id="Ol-fPhwVLLmiDNsKS8r2-34" value="(1,M)" style="resizable=0;html=1;whiteSpace=wrap;align=right;verticalAlign=bottom;" connectable="0" vertex="1" parent="Ol-fPhwVLLmiDNsKS8r2-33">
          <mxGeometry x="1" relative="1" as="geometry" />
        </mxCell>
        <mxCell id="Ol-fPhwVLLmiDNsKS8r2-35" value="" style="endArrow=none;html=1;rounded=0;entryX=0.5;entryY=1;entryDx=0;entryDy=0;exitX=0.5;exitY=0;exitDx=0;exitDy=0;" edge="1" parent="1" source="Ol-fPhwVLLmiDNsKS8r2-19" target="Ol-fPhwVLLmiDNsKS8r2-4">
          <mxGeometry relative="1" as="geometry">
            <mxPoint x="650" y="260" as="sourcePoint" />
            <mxPoint x="810" y="310" as="targetPoint" />
          </mxGeometry>
        </mxCell>
        <mxCell id="Ol-fPhwVLLmiDNsKS8r2-36" value="(1,1)" style="resizable=0;html=1;whiteSpace=wrap;align=right;verticalAlign=bottom;" connectable="0" vertex="1" parent="Ol-fPhwVLLmiDNsKS8r2-35">
          <mxGeometry x="1" relative="1" as="geometry">
            <mxPoint y="20" as="offset" />
          </mxGeometry>
        </mxCell>
        <mxCell id="Ol-fPhwVLLmiDNsKS8r2-42" value="ID_empresa" style="ellipse;whiteSpace=wrap;html=1;align=center;fontStyle=4;" vertex="1" parent="1">
          <mxGeometry x="430" y="160" width="100" height="40" as="geometry" />
        </mxCell>
        <mxCell id="Ol-fPhwVLLmiDNsKS8r2-43" value="Nombre" style="ellipse;whiteSpace=wrap;html=1;align=center;" vertex="1" parent="1">
          <mxGeometry x="364" y="210" width="100" height="40" as="geometry" />
        </mxCell>
        <mxCell id="Ol-fPhwVLLmiDNsKS8r2-44" value="Direccion" style="ellipse;whiteSpace=wrap;html=1;align=center;" vertex="1" parent="1">
          <mxGeometry x="540" y="140" width="100" height="40" as="geometry" />
        </mxCell>
        <mxCell id="Ol-fPhwVLLmiDNsKS8r2-45" value="Tel_empresa" style="ellipse;whiteSpace=wrap;html=1;align=center;" vertex="1" parent="1">
          <mxGeometry x="400" y="270" width="100" height="40" as="geometry" />
        </mxCell>
        <mxCell id="Ol-fPhwVLLmiDNsKS8r2-46" value="ID_recorrido" style="ellipse;whiteSpace=wrap;html=1;align=center;fontStyle=4;" vertex="1" parent="1">
          <mxGeometry x="980" y="160" width="100" height="40" as="geometry" />
        </mxCell>
        <mxCell id="Ol-fPhwVLLmiDNsKS8r2-47" value="Tipo" style="ellipse;whiteSpace=wrap;html=1;align=center;" vertex="1" parent="1">
          <mxGeometry x="1120" y="210" width="100" height="40" as="geometry" />
        </mxCell>
        <mxCell id="Ol-fPhwVLLmiDNsKS8r2-48" value="" style="endArrow=none;html=1;rounded=0;entryX=0.5;entryY=1;entryDx=0;entryDy=0;exitX=0.5;exitY=0;exitDx=0;exitDy=0;" edge="1" parent="1" source="Ol-fPhwVLLmiDNsKS8r2-4" target="Ol-fPhwVLLmiDNsKS8r2-46">
          <mxGeometry relative="1" as="geometry">
            <mxPoint x="680" y="170" as="sourcePoint" />
            <mxPoint x="840" y="170" as="targetPoint" />
          </mxGeometry>
        </mxCell>
        <mxCell id="Ol-fPhwVLLmiDNsKS8r2-49" value="" style="endArrow=none;html=1;rounded=0;entryX=0;entryY=0.5;entryDx=0;entryDy=0;exitX=1;exitY=0.5;exitDx=0;exitDy=0;" edge="1" parent="1" source="Ol-fPhwVLLmiDNsKS8r2-4" target="Ol-fPhwVLLmiDNsKS8r2-47">
          <mxGeometry relative="1" as="geometry">
            <mxPoint x="680" y="170" as="sourcePoint" />
            <mxPoint x="840" y="170" as="targetPoint" />
          </mxGeometry>
        </mxCell>
        <mxCell id="Ol-fPhwVLLmiDNsKS8r2-50" value="" style="endArrow=none;html=1;rounded=0;exitX=0.5;exitY=1;exitDx=0;exitDy=0;entryX=0.5;entryY=0;entryDx=0;entryDy=0;" edge="1" parent="1" source="Ol-fPhwVLLmiDNsKS8r2-44" target="Ol-fPhwVLLmiDNsKS8r2-6">
          <mxGeometry relative="1" as="geometry">
            <mxPoint x="680" y="170" as="sourcePoint" />
            <mxPoint x="840" y="170" as="targetPoint" />
          </mxGeometry>
        </mxCell>
        <mxCell id="Ol-fPhwVLLmiDNsKS8r2-51" value="" style="endArrow=none;html=1;rounded=0;exitX=1;exitY=1;exitDx=0;exitDy=0;entryX=0;entryY=0;entryDx=0;entryDy=0;" edge="1" parent="1" source="Ol-fPhwVLLmiDNsKS8r2-42" target="Ol-fPhwVLLmiDNsKS8r2-6">
          <mxGeometry relative="1" as="geometry">
            <mxPoint x="680" y="170" as="sourcePoint" />
            <mxPoint x="840" y="170" as="targetPoint" />
          </mxGeometry>
        </mxCell>
        <mxCell id="Ol-fPhwVLLmiDNsKS8r2-52" value="" style="endArrow=none;html=1;rounded=0;exitX=1;exitY=0.5;exitDx=0;exitDy=0;entryX=0;entryY=0.25;entryDx=0;entryDy=0;" edge="1" parent="1" source="Ol-fPhwVLLmiDNsKS8r2-43" target="Ol-fPhwVLLmiDNsKS8r2-6">
          <mxGeometry relative="1" as="geometry">
            <mxPoint x="680" y="170" as="sourcePoint" />
            <mxPoint x="840" y="170" as="targetPoint" />
          </mxGeometry>
        </mxCell>
        <mxCell id="Ol-fPhwVLLmiDNsKS8r2-53" value="" style="endArrow=none;html=1;rounded=0;exitX=1;exitY=0.5;exitDx=0;exitDy=0;entryX=0;entryY=1;entryDx=0;entryDy=0;" edge="1" parent="1" source="Ol-fPhwVLLmiDNsKS8r2-45" target="Ol-fPhwVLLmiDNsKS8r2-6">
          <mxGeometry relative="1" as="geometry">
            <mxPoint x="680" y="170" as="sourcePoint" />
            <mxPoint x="840" y="170" as="targetPoint" />
          </mxGeometry>
        </mxCell>
        <mxCell id="Ol-fPhwVLLmiDNsKS8r2-54" value="ID_viaje" style="ellipse;whiteSpace=wrap;html=1;align=center;fontStyle=4;" vertex="1" parent="1">
          <mxGeometry x="1120" y="410" width="100" height="40" as="geometry" />
        </mxCell>
        <mxCell id="Ol-fPhwVLLmiDNsKS8r2-55" value="ID_colectivo" style="ellipse;whiteSpace=wrap;html=1;align=center;fontStyle=4;" vertex="1" parent="1">
          <mxGeometry x="370" y="450" width="100" height="40" as="geometry" />
        </mxCell>
        <mxCell id="Ol-fPhwVLLmiDNsKS8r2-56" value="Patente" style="ellipse;whiteSpace=wrap;html=1;align=center;" vertex="1" parent="1">
          <mxGeometry x="464" y="510" width="100" height="40" as="geometry" />
        </mxCell>
        <mxCell id="Ol-fPhwVLLmiDNsKS8r2-57" value="Recauda" style="ellipse;whiteSpace=wrap;html=1;align=center;" vertex="1" parent="1">
          <mxGeometry x="1120" y="470" width="100" height="40" as="geometry" />
        </mxCell>
        <mxCell id="Ol-fPhwVLLmiDNsKS8r2-58" value="" style="endArrow=none;html=1;rounded=0;entryX=0;entryY=0.5;entryDx=0;entryDy=0;exitX=1;exitY=0.25;exitDx=0;exitDy=0;" edge="1" parent="1" source="Ol-fPhwVLLmiDNsKS8r2-7" target="Ol-fPhwVLLmiDNsKS8r2-54">
          <mxGeometry relative="1" as="geometry">
            <mxPoint x="680" y="480" as="sourcePoint" />
            <mxPoint x="840" y="480" as="targetPoint" />
          </mxGeometry>
        </mxCell>
        <mxCell id="Ol-fPhwVLLmiDNsKS8r2-59" value="" style="endArrow=none;html=1;rounded=0;entryX=0;entryY=0.5;entryDx=0;entryDy=0;exitX=1;exitY=1;exitDx=0;exitDy=0;" edge="1" parent="1" source="Ol-fPhwVLLmiDNsKS8r2-7" target="Ol-fPhwVLLmiDNsKS8r2-57">
          <mxGeometry relative="1" as="geometry">
            <mxPoint x="680" y="480" as="sourcePoint" />
            <mxPoint x="840" y="480" as="targetPoint" />
          </mxGeometry>
        </mxCell>
        <mxCell id="Ol-fPhwVLLmiDNsKS8r2-60" value="&lt;h1 style=&quot;margin-top: 0px;&quot;&gt;&lt;span style=&quot;background-color: transparent; color: light-dark(rgb(0, 0, 0), rgb(255, 255, 255));&quot;&gt;Restricciones&lt;/span&gt;&lt;/h1&gt;&lt;h1 style=&quot;margin-top: 0px;&quot;&gt;&lt;span style=&quot;background-color: transparent; color: light-dark(rgb(0, 0, 0), rgb(255, 255, 255)); font-size: 12px; font-weight: normal;&quot;&gt;-&lt;/span&gt;&lt;span style=&quot;background-color: transparent; color: light-dark(rgb(0, 0, 0), rgb(255, 255, 255)); font-size: 12px; font-weight: normal;&quot;&gt;Los choferes solo pueden conducir colectivos diferenciales si su promedio de recaudaciÃ³n por viaje supera un umbral dado&lt;/span&gt;&lt;span style=&quot;background-color: transparent; color: light-dark(rgb(0, 0, 0), rgb(255, 255, 255)); font-size: 12px; font-weight: normal;&quot;&gt;&lt;br&gt;&lt;/span&gt;&lt;/h1&gt;&lt;div&gt;&lt;span style=&quot;background-color: transparent; color: light-dark(rgb(0, 0, 0), rgb(255, 255, 255)); font-size: 12px;&quot;&gt;-&lt;/span&gt;&lt;span style=&quot;background-color: transparent; color: light-dark(rgb(0, 0, 0), rgb(255, 255, 255));&quot; data-end=&quot;1575&quot; data-start=&quot;1523&quot;&gt;CÃ¡lculo de chofer/es con mayor recaudaciÃ³n total&lt;/span&gt;&lt;/div&gt;" style="text;html=1;whiteSpace=wrap;overflow=hidden;rounded=0;" vertex="1" parent="1">
          <mxGeometry x="460" y="700" width="320" height="190" as="geometry" />
        </mxCell>
        <mxCell id="Ol-fPhwVLLmiDNsKS8r2-61" value="Servicio_dif" style="ellipse;whiteSpace=wrap;html=1;align=center;" vertex="1" parent="1">
          <mxGeometry x="580" y="530" width="100" height="40" as="geometry" />
        </mxCell>
        <mxCell id="Ol-fPhwVLLmiDNsKS8r2-62" value="Con_sin_aire" style="ellipse;whiteSpace=wrap;html=1;align=center;" vertex="1" parent="1">
          <mxGeometry x="430" y="400" width="100" height="40" as="geometry" />
        </mxCell>
        <mxCell id="Ol-fPhwVLLmiDNsKS8r2-67" value="" style="endArrow=none;html=1;rounded=0;entryX=0.5;entryY=1;entryDx=0;entryDy=0;exitX=0.5;exitY=0;exitDx=0;exitDy=0;" edge="1" parent="1" source="Ol-fPhwVLLmiDNsKS8r2-20" target="Ol-fPhwVLLmiDNsKS8r2-6">
          <mxGeometry relative="1" as="geometry">
            <mxPoint x="680" y="430" as="sourcePoint" />
            <mxPoint x="840" y="430" as="targetPoint" />
          </mxGeometry>
        </mxCell>
        <mxCell id="Ol-fPhwVLLmiDNsKS8r2-68" value="(1,1)" style="resizable=0;html=1;whiteSpace=wrap;align=right;verticalAlign=bottom;" connectable="0" vertex="1" parent="Ol-fPhwVLLmiDNsKS8r2-67">
          <mxGeometry x="1" relative="1" as="geometry">
            <mxPoint y="21" as="offset" />
          </mxGeometry>
        </mxCell>
        <mxCell id="Ol-fPhwVLLmiDNsKS8r2-70" value="" style="endArrow=none;html=1;rounded=0;entryX=0.5;entryY=0;entryDx=0;entryDy=0;exitX=0.5;exitY=1;exitDx=0;exitDy=0;" edge="1" parent="1" source="Ol-fPhwVLLmiDNsKS8r2-20" target="Ol-fPhwVLLmiDNsKS8r2-2">
          <mxGeometry relative="1" as="geometry">
            <mxPoint x="680" y="330" as="sourcePoint" />
            <mxPoint x="840" y="330" as="targetPoint" />
          </mxGeometry>
        </mxCell>
        <mxCell id="Ol-fPhwVLLmiDNsKS8r2-71" value="(1,M)" style="resizable=0;html=1;whiteSpace=wrap;align=right;verticalAlign=bottom;" connectable="0" vertex="1" parent="Ol-fPhwVLLmiDNsKS8r2-70">
          <mxGeometry x="1" relative="1" as="geometry" />
        </mxCell>
        <mxCell id="Ol-fPhwVLLmiDNsKS8r2-74" value="" style="endArrow=none;html=1;rounded=0;exitX=1;exitY=0;exitDx=0;exitDy=0;entryX=0.25;entryY=1;entryDx=0;entryDy=0;" edge="1" parent="1" source="Ol-fPhwVLLmiDNsKS8r2-56" target="Ol-fPhwVLLmiDNsKS8r2-2">
          <mxGeometry relative="1" as="geometry">
            <mxPoint x="680" y="550" as="sourcePoint" />
            <mxPoint x="840" y="550" as="targetPoint" />
          </mxGeometry>
        </mxCell>
        <mxCell id="Ol-fPhwVLLmiDNsKS8r2-75" value="" style="endArrow=none;html=1;rounded=0;exitX=0.5;exitY=0;exitDx=0;exitDy=0;entryX=0.5;entryY=1;entryDx=0;entryDy=0;" edge="1" parent="1" source="Ol-fPhwVLLmiDNsKS8r2-61" target="Ol-fPhwVLLmiDNsKS8r2-2">
          <mxGeometry relative="1" as="geometry">
            <mxPoint x="680" y="550" as="sourcePoint" />
            <mxPoint x="840" y="550" as="targetPoint" />
          </mxGeometry>
        </mxCell>
        <mxCell id="Ol-fPhwVLLmiDNsKS8r2-76" value="" style="endArrow=none;html=1;rounded=0;exitX=1;exitY=0.5;exitDx=0;exitDy=0;entryX=0;entryY=1;entryDx=0;entryDy=0;" edge="1" parent="1" source="Ol-fPhwVLLmiDNsKS8r2-55" target="Ol-fPhwVLLmiDNsKS8r2-2">
          <mxGeometry relative="1" as="geometry">
            <mxPoint x="680" y="550" as="sourcePoint" />
            <mxPoint x="840" y="550" as="targetPoint" />
          </mxGeometry>
        </mxCell>
        <mxCell id="Ol-fPhwVLLmiDNsKS8r2-77" value="" style="endArrow=none;html=1;rounded=0;exitX=1;exitY=0.5;exitDx=0;exitDy=0;entryX=0;entryY=0.25;entryDx=0;entryDy=0;" edge="1" parent="1" source="Ol-fPhwVLLmiDNsKS8r2-62" target="Ol-fPhwVLLmiDNsKS8r2-2">
          <mxGeometry relative="1" as="geometry">
            <mxPoint x="680" y="550" as="sourcePoint" />
            <mxPoint x="840" y="550" as="targetPoint" />
          </mxGeometry>
        </mxCell>
        <mxCell id="Ol-fPhwVLLmiDNsKS8r2-78" value="ID_chofer" style="ellipse;whiteSpace=wrap;html=1;align=center;fontStyle=4;" vertex="1" parent="1">
          <mxGeometry x="827" y="630" width="100" height="40" as="geometry" />
        </mxCell>
        <mxCell id="Ol-fPhwVLLmiDNsKS8r2-79" value="" style="endArrow=none;html=1;rounded=0;exitX=1;exitY=0.5;exitDx=0;exitDy=0;entryX=0;entryY=0.5;entryDx=0;entryDy=0;" edge="1" parent="1" source="Ol-fPhwVLLmiDNsKS8r2-78" target="Ol-fPhwVLLmiDNsKS8r2-5">
          <mxGeometry relative="1" as="geometry">
            <mxPoint x="680" y="550" as="sourcePoint" />
            <mxPoint x="840" y="550" as="targetPoint" />
          </mxGeometry>
        </mxCell>
        <mxCell id="Ol-fPhwVLLmiDNsKS8r2-80" value="Nombre_chofer" style="ellipse;whiteSpace=wrap;html=1;align=center;" vertex="1" parent="1">
          <mxGeometry x="930" y="680" width="100" height="40" as="geometry" />
        </mxCell>
        <mxCell id="Ol-fPhwVLLmiDNsKS8r2-81" value="Fecha" style="ellipse;whiteSpace=wrap;html=1;align=center;" vertex="1" parent="1">
          <mxGeometry x="800" y="440" width="100" height="40" as="geometry" />
        </mxCell>
        <mxCell id="Ol-fPhwVLLmiDNsKS8r2-82" value="" style="endArrow=none;html=1;rounded=0;exitX=1;exitY=0.5;exitDx=0;exitDy=0;entryX=0;entryY=0.5;entryDx=0;entryDy=0;" edge="1" parent="1" source="Ol-fPhwVLLmiDNsKS8r2-81" target="Ol-fPhwVLLmiDNsKS8r2-7">
          <mxGeometry relative="1" as="geometry">
            <mxPoint x="680" y="430" as="sourcePoint" />
            <mxPoint x="840" y="430" as="targetPoint" />
          </mxGeometry>
        </mxCell>
        <mxCell id="Ol-fPhwVLLmiDNsKS8r2-83" value="" style="endArrow=none;html=1;rounded=0;entryX=0.5;entryY=0;entryDx=0;entryDy=0;exitX=0.25;exitY=1;exitDx=0;exitDy=0;" edge="1" parent="1" source="Ol-fPhwVLLmiDNsKS8r2-5" target="Ol-fPhwVLLmiDNsKS8r2-80">
          <mxGeometry relative="1" as="geometry">
            <mxPoint x="680" y="670" as="sourcePoint" />
            <mxPoint x="840" y="670" as="targetPoint" />
          </mxGeometry>
        </mxCell>
      </root>
    </mxGraphModel>
  </diagram>
</mxfile>
